<?xml version="1.0" encoding="UTF-8" standalone="no"?>
<!DOCTYPE svg PUBLIC "-//W3C//DTD SVG 1.1//EN"
 "http://www.w3.org/Graphics/SVG/1.1/DTD/svg11.dtd">
<!-- Generated by graphviz version 2.40.1 (20161225.0304)
 -->
<!-- Title: post_comments Pages: 1 -->
<svg width="989pt" height="1603pt"
 viewBox="0.00 0.00 989.00 1603.00" xmlns="http://www.w3.org/2000/svg" xmlns:xlink="http://www.w3.org/1999/xlink">
<g id="graph0" class="graph" transform="scale(1 1) rotate(0) translate(4 1599)">
<title>post_comments</title>
<polygon fill="#ffffff" stroke="transparent" points="-4,4 -4,-1599 985,-1599 985,4 -4,4"/>
<!-- post_comments -->
<g id="node1" class="node">
<title>post_comments</title>
<polygon fill="#efefef" stroke="transparent" points="413,-1513.5 413,-1548.5 651,-1548.5 651,-1513.5 413,-1513.5"/>
<polygon fill="none" stroke="#000000" points="413,-1513.5 413,-1548.5 651,-1548.5 651,-1513.5 413,-1513.5"/>
<text text-anchor="start" x="419.8601" y="-1526.3" font-family="Arial Bold" font-size="18.00" fill="#000000">post_comments</text>
<text text-anchor="start" x="546.8861" y="-1526.3" font-family="Arial" font-size="14.00" fill="#000000"> </text>
<text text-anchor="start" x="550.7767" y="-1526.3" font-family="Arial" font-size="14.00" fill="#666666">[BASE TABLE]</text>
<polygon fill="none" stroke="#000000" points="413,-1483.5 413,-1513.5 651,-1513.5 651,-1483.5 413,-1483.5"/>
<text text-anchor="start" x="420" y="-1494.9" font-family="Arial" font-size="14.00" fill="#000000">id </text>
<text text-anchor="start" x="434.7798" y="-1494.9" font-family="Arial" font-size="14.00" fill="#666666">[bigint]</text>
<polygon fill="none" stroke="#000000" points="413,-1453.5 413,-1483.5 651,-1483.5 651,-1453.5 413,-1453.5"/>
<text text-anchor="start" x="420" y="-1464.9" font-family="Arial" font-size="14.00" fill="#000000">post_id </text>
<text text-anchor="start" x="469.0182" y="-1464.9" font-family="Arial" font-size="14.00" fill="#666666">[bigint]</text>
<polygon fill="none" stroke="#000000" points="413,-1423.5 413,-1453.5 651,-1453.5 651,-1423.5 413,-1423.5"/>
<text text-anchor="start" x="420" y="-1434.9" font-family="Arial" font-size="14.00" fill="#000000">tenant_user_id </text>
<text text-anchor="start" x="516.4824" y="-1434.9" font-family="Arial" font-size="14.00" fill="#666666">[varchar(36)]</text>
<polygon fill="none" stroke="#000000" points="413,-1393.5 413,-1423.5 651,-1423.5 651,-1393.5 413,-1393.5"/>
<text text-anchor="start" x="420" y="-1404.9" font-family="Arial" font-size="14.00" fill="#000000">comment </text>
<text text-anchor="start" x="481.4502" y="-1404.9" font-family="Arial" font-size="14.00" fill="#666666">[varchar(255)]</text>
<polygon fill="none" stroke="#000000" points="413,-1363.5 413,-1393.5 651,-1393.5 651,-1363.5 413,-1363.5"/>
<text text-anchor="start" x="420" y="-1374.9" font-family="Arial" font-size="14.00" fill="#000000">created_at </text>
<text text-anchor="start" x="490.028" y="-1374.9" font-family="Arial" font-size="14.00" fill="#666666">[datetime]</text>
<polygon fill="none" stroke="#000000" points="413,-1333.5 413,-1363.5 651,-1363.5 651,-1333.5 413,-1333.5"/>
<text text-anchor="start" x="420" y="-1344.9" font-family="Arial" font-size="14.00" fill="#000000">updated_at </text>
<text text-anchor="start" x="493.9326" y="-1344.9" font-family="Arial" font-size="14.00" fill="#666666">[datetime]</text>
<polygon fill="none" stroke="#000000" stroke-width="3" points="411.5,-1332.5 411.5,-1550.5 652.5,-1550.5 652.5,-1332.5 411.5,-1332.5"/>
</g>
<!-- posts -->
<g id="node2" class="node">
<title>posts</title>
<polygon fill="#efefef" stroke="transparent" points="282,-1173.5 282,-1208.5 462,-1208.5 462,-1173.5 282,-1173.5"/>
<polygon fill="none" stroke="#000000" points="282,-1173.5 282,-1208.5 462,-1208.5 462,-1173.5 282,-1173.5"/>
<text text-anchor="start" x="301.8658" y="-1186.3" font-family="Arial Bold" font-size="18.00" fill="#000000">posts</text>
<text text-anchor="start" x="344.8804" y="-1186.3" font-family="Arial" font-size="14.00" fill="#000000"> </text>
<text text-anchor="start" x="348.771" y="-1186.3" font-family="Arial" font-size="14.00" fill="#666666">[BASE TABLE]</text>
<polygon fill="none" stroke="#000000" points="282,-1143.5 282,-1173.5 462,-1173.5 462,-1143.5 282,-1143.5"/>
<text text-anchor="start" x="289" y="-1154.9" font-family="Arial" font-size="14.00" fill="#000000">id </text>
<text text-anchor="start" x="303.7798" y="-1154.9" font-family="Arial" font-size="14.00" fill="#666666">[bigint]</text>
<polygon fill="none" stroke="#000000" points="282,-1113.5 282,-1143.5 462,-1143.5 462,-1113.5 282,-1113.5"/>
<text text-anchor="start" x="289" y="-1124.9" font-family="Arial" font-size="14.00" fill="#000000">title </text>
<text text-anchor="start" x="314.6676" y="-1124.9" font-family="Arial" font-size="14.00" fill="#666666">[varchar(255)]</text>
<polygon fill="none" stroke="#000000" points="282,-1083.5 282,-1113.5 462,-1113.5 462,-1083.5 282,-1083.5"/>
<text text-anchor="start" x="289" y="-1094.9" font-family="Arial" font-size="14.00" fill="#000000">detail </text>
<text text-anchor="start" x="326.3422" y="-1094.9" font-family="Arial" font-size="14.00" fill="#666666">[varchar(255)]</text>
<polygon fill="none" stroke="#000000" points="282,-1053.5 282,-1083.5 462,-1083.5 462,-1053.5 282,-1053.5"/>
<text text-anchor="start" x="289" y="-1064.9" font-family="Arial" font-size="14.00" fill="#000000">tenant_id </text>
<text text-anchor="start" x="350.474" y="-1064.9" font-family="Arial" font-size="14.00" fill="#666666">[varchar(36)]</text>
<polygon fill="none" stroke="#000000" points="282,-1023.5 282,-1053.5 462,-1053.5 462,-1023.5 282,-1023.5"/>
<text text-anchor="start" x="288.7574" y="-1034.9" font-family="Arial" font-size="14.00" fill="#000000">posted_by_id </text>
<text text-anchor="start" x="375.906" y="-1034.9" font-family="Arial" font-size="14.00" fill="#666666">[varchar(36)]</text>
<polygon fill="none" stroke="#000000" points="282,-993.5 282,-1023.5 462,-1023.5 462,-993.5 282,-993.5"/>
<text text-anchor="start" x="289" y="-1004.9" font-family="Arial" font-size="14.00" fill="#000000">created_at </text>
<text text-anchor="start" x="359.028" y="-1004.9" font-family="Arial" font-size="14.00" fill="#666666">[datetime]</text>
<polygon fill="none" stroke="#000000" points="282,-963.5 282,-993.5 462,-993.5 462,-963.5 282,-963.5"/>
<text text-anchor="start" x="289" y="-974.9" font-family="Arial" font-size="14.00" fill="#000000">updated_at </text>
<text text-anchor="start" x="362.9326" y="-974.9" font-family="Arial" font-size="14.00" fill="#666666">[datetime]</text>
</g>
<!-- post_comments&#45;&gt;posts -->
<g id="edge1" class="edge">
<title>post_comments:post_id&#45;&gt;posts:id</title>
<path fill="none" stroke="#000000" d="M402.9288,-1467.8538C336.7145,-1458.7891 378.3975,-1356.3598 413,-1288 425.2044,-1263.8893 449.7956,-1276.1107 462,-1252 480.7674,-1214.9237 503.5556,-1158.5 462,-1158.5"/>
<polygon fill="#000000" stroke="#000000" points="403.0205,-1467.8596 412.7118,-1472.9908 408.0103,-1468.1798 413,-1468.5 413,-1468.5 413,-1468.5 408.0103,-1468.1798 413.2882,-1464.0092 403.0205,-1467.8596 403.0205,-1467.8596"/>
<text text-anchor="start" x="360.745" y="-1452.5" font-family="Arial" font-size="10.00" fill="#000000">FOREIGN KEY (post_id) REFERENCES posts (id)</text>
</g>
<!-- tenant_users -->
<g id="node3" class="node">
<title>tenant_users</title>
<polygon fill="#efefef" stroke="transparent" points="345,-806.5 345,-841.5 560,-841.5 560,-806.5 345,-806.5"/>
<polygon fill="none" stroke="#000000" points="345,-806.5 345,-841.5 560,-841.5 560,-806.5 345,-806.5"/>
<text text-anchor="start" x="351.8531" y="-819.3" font-family="Arial Bold" font-size="18.00" fill="#000000">tenant_users</text>
<text text-anchor="start" x="455.8931" y="-819.3" font-family="Arial" font-size="14.00" fill="#000000"> </text>
<text text-anchor="start" x="459.7837" y="-819.3" font-family="Arial" font-size="14.00" fill="#666666">[BASE TABLE]</text>
<polygon fill="none" stroke="#000000" points="345,-776.5 345,-806.5 560,-806.5 560,-776.5 345,-776.5"/>
<text text-anchor="start" x="352" y="-787.9" font-family="Arial" font-size="14.00" fill="#000000">id </text>
<text text-anchor="start" x="366.7798" y="-787.9" font-family="Arial" font-size="14.00" fill="#666666">[varchar(36)]</text>
<polygon fill="none" stroke="#000000" points="345,-746.5 345,-776.5 560,-776.5 560,-746.5 345,-746.5"/>
<text text-anchor="start" x="352" y="-757.9" font-family="Arial" font-size="14.00" fill="#000000">name </text>
<text text-anchor="start" x="390.899" y="-757.9" font-family="Arial" font-size="14.00" fill="#666666">[varchar(255)]</text>
<polygon fill="none" stroke="#000000" points="345,-716.5 345,-746.5 560,-746.5 560,-716.5 345,-716.5"/>
<text text-anchor="start" x="352" y="-727.9" font-family="Arial" font-size="14.00" fill="#000000">tenant_id </text>
<text text-anchor="start" x="413.474" y="-727.9" font-family="Arial" font-size="14.00" fill="#666666">[varchar(36)]</text>
<polygon fill="none" stroke="#000000" points="345,-686.5 345,-716.5 560,-716.5 560,-686.5 345,-686.5"/>
<text text-anchor="start" x="352" y="-697.9" font-family="Arial" font-size="14.00" fill="#000000">role_id </text>
<text text-anchor="start" x="397.8948" y="-697.9" font-family="Arial" font-size="14.00" fill="#666666">[int]</text>
<polygon fill="none" stroke="#000000" points="345,-656.5 345,-686.5 560,-686.5 560,-656.5 345,-656.5"/>
<text text-anchor="start" x="352" y="-667.9" font-family="Arial" font-size="14.00" fill="#000000">created_at </text>
<text text-anchor="start" x="422.028" y="-667.9" font-family="Arial" font-size="14.00" fill="#666666">[datetime]</text>
<polygon fill="none" stroke="#000000" points="345,-626.5 345,-656.5 560,-656.5 560,-626.5 345,-626.5"/>
<text text-anchor="start" x="352" y="-637.9" font-family="Arial" font-size="14.00" fill="#000000">updated_at </text>
<text text-anchor="start" x="425.9326" y="-637.9" font-family="Arial" font-size="14.00" fill="#666666">[datetime]</text>
</g>
<!-- post_comments&#45;&gt;tenant_users -->
<g id="edge2" class="edge">
<title>post_comments:tenant_user_id&#45;&gt;tenant_users:id</title>
<path fill="none" stroke="#000000" d="M656.7175,-1429.8431C675.1124,-1353.0664 593.8169,-791.5 560,-791.5"/>
<polygon fill="#000000" stroke="#000000" points="656.5111,-1430.1556 647.245,-1436.02 653.7556,-1434.3278 651,-1438.5 651,-1438.5 651,-1438.5 653.7556,-1434.3278 654.755,-1440.98 656.5111,-1430.1556 656.5111,-1430.1556"/>
<text text-anchor="start" x="657.592" y="-1448.5" font-family="Arial" font-size="10.00" fill="#000000">FOREIGN KEY (tenant_user_id) REFERENCES tenant_users (id)</text>
</g>
<!-- posts&#45;&gt;tenant_users -->
<g id="edge8" class="edge">
<title>posts:posted_by_id&#45;&gt;tenant_users:id</title>
<path fill="none" stroke="#000000" d="M471.9488,-1037.4182C511.1928,-1028.0493 490.8439,-960.0534 462,-921 429.6774,-877.2365 377.3226,-928.7635 345,-885 320.3118,-851.5731 303.4444,-791.5 345,-791.5"/>
<polygon fill="#000000" stroke="#000000" points="471.9414,-1037.4189 461.5135,-1034.0264 466.9707,-1037.9595 462,-1038.5 462,-1038.5 462,-1038.5 466.9707,-1037.9595 462.4865,-1042.9736 471.9414,-1037.4189 471.9414,-1037.4189"/>
<text text-anchor="start" x="468.9255" y="-1048.5" font-family="Arial" font-size="10.00" fill="#000000">FOREIGN KEY (posted_by_id) REFERENCES tenant_users (id)</text>
</g>
<!-- tenants -->
<g id="node5" class="node">
<title>tenants</title>
<polygon fill="#efefef" stroke="transparent" points="278,-469.5 278,-504.5 448,-504.5 448,-469.5 278,-469.5"/>
<polygon fill="none" stroke="#000000" points="278,-469.5 278,-504.5 448,-504.5 448,-469.5 278,-469.5"/>
<text text-anchor="start" x="284.8585" y="-482.3" font-family="Arial Bold" font-size="18.00" fill="#000000">tenants</text>
<text text-anchor="start" x="343.8877" y="-482.3" font-family="Arial" font-size="14.00" fill="#000000"> </text>
<text text-anchor="start" x="347.7783" y="-482.3" font-family="Arial" font-size="14.00" fill="#666666">[BASE TABLE]</text>
<polygon fill="none" stroke="#000000" points="278,-439.5 278,-469.5 448,-469.5 448,-439.5 278,-439.5"/>
<text text-anchor="start" x="285" y="-450.9" font-family="Arial" font-size="14.00" fill="#000000">id </text>
<text text-anchor="start" x="299.7798" y="-450.9" font-family="Arial" font-size="14.00" fill="#666666">[varchar(36)]</text>
<polygon fill="none" stroke="#000000" points="278,-409.5 278,-439.5 448,-439.5 448,-409.5 278,-409.5"/>
<text text-anchor="start" x="285" y="-420.9" font-family="Arial" font-size="14.00" fill="#000000">name </text>
<text text-anchor="start" x="323.899" y="-420.9" font-family="Arial" font-size="14.00" fill="#666666">[varchar(255)]</text>
<polygon fill="none" stroke="#000000" points="278,-379.5 278,-409.5 448,-409.5 448,-379.5 278,-379.5"/>
<text text-anchor="start" x="285" y="-390.9" font-family="Arial" font-size="14.00" fill="#000000">service_plan_id </text>
<text text-anchor="start" x="386.1318" y="-390.9" font-family="Arial" font-size="14.00" fill="#666666">[int]</text>
<polygon fill="none" stroke="#000000" points="278,-349.5 278,-379.5 448,-379.5 448,-349.5 278,-349.5"/>
<text text-anchor="start" x="285" y="-360.9" font-family="Arial" font-size="14.00" fill="#000000">created_at </text>
<text text-anchor="start" x="355.028" y="-360.9" font-family="Arial" font-size="14.00" fill="#666666">[datetime]</text>
<polygon fill="none" stroke="#000000" points="278,-319.5 278,-349.5 448,-349.5 448,-319.5 278,-319.5"/>
<text text-anchor="start" x="285" y="-330.9" font-family="Arial" font-size="14.00" fill="#000000">updated_at </text>
<text text-anchor="start" x="358.9326" y="-330.9" font-family="Arial" font-size="14.00" fill="#666666">[datetime]</text>
</g>
<!-- posts&#45;&gt;tenants -->
<g id="edge5" class="edge">
<title>posts:tenant_id&#45;&gt;tenants:id</title>
<path fill="none" stroke="#000000" d="M271.7366,-1068.2056C9.0484,-1053.0091 8.5698,-454.5 278,-454.5"/>
<polygon fill="#000000" stroke="#000000" points="272.0041,-1068.2132 281.8709,-1072.9982 277.0021,-1068.3566 282,-1068.5 282,-1068.5 282,-1068.5 277.0021,-1068.3566 282.1291,-1064.0018 272.0041,-1068.2132 272.0041,-1068.2132"/>
<text text-anchor="start" x="32.598" y="-1078.5" font-family="Arial" font-size="10.00" fill="#000000">FOREIGN KEY (tenant_id) REFERENCES tenants (id)</text>
</g>
<!-- tenant_users&#45;&gt;tenants -->
<g id="edge6" class="edge">
<title>tenant_users:tenant_id&#45;&gt;tenants:id</title>
<path fill="none" stroke="#000000" d="M334.7423,-730.6194C282.6054,-720.977 309.2046,-634.4299 345,-584 373.0688,-544.4557 419.9312,-587.5443 448,-548 472.0531,-514.1132 489.5556,-454.5 448,-454.5"/>
<polygon fill="#000000" stroke="#000000" points="335.0367,-730.6445 344.615,-735.9835 340.0183,-731.0723 345,-731.5 345,-731.5 345,-731.5 340.0183,-731.0723 345.385,-727.0165 335.0367,-730.6445 335.0367,-730.6445"/>
<text text-anchor="start" x="95.598" y="-741.5" font-family="Arial" font-size="10.00" fill="#000000">FOREIGN KEY (tenant_id) REFERENCES tenants (id)</text>
</g>
<!-- roles -->
<g id="node7" class="node">
<title>roles</title>
<polygon fill="#efefef" stroke="transparent" points="552,-469.5 552,-504.5 702,-504.5 702,-469.5 552,-469.5"/>
<polygon fill="none" stroke="#000000" points="552,-469.5 552,-504.5 702,-504.5 702,-469.5 552,-469.5"/>
<text text-anchor="start" x="558.8737" y="-482.3" font-family="Arial Bold" font-size="18.00" fill="#000000">roles</text>
<text text-anchor="start" x="597.8725" y="-482.3" font-family="Arial" font-size="14.00" fill="#000000"> </text>
<text text-anchor="start" x="601.7631" y="-482.3" font-family="Arial" font-size="14.00" fill="#666666">[BASE TABLE]</text>
<polygon fill="none" stroke="#000000" points="552,-439.5 552,-469.5 702,-469.5 702,-439.5 552,-439.5"/>
<text text-anchor="start" x="559" y="-450.9" font-family="Arial" font-size="14.00" fill="#000000">id </text>
<text text-anchor="start" x="573.7798" y="-450.9" font-family="Arial" font-size="14.00" fill="#666666">[int]</text>
<polygon fill="none" stroke="#000000" points="552,-409.5 552,-439.5 702,-439.5 702,-409.5 552,-409.5"/>
<text text-anchor="start" x="559" y="-420.9" font-family="Arial" font-size="14.00" fill="#000000">name </text>
<text text-anchor="start" x="597.899" y="-420.9" font-family="Arial" font-size="14.00" fill="#666666">[varchar(255)]</text>
<polygon fill="none" stroke="#000000" points="552,-379.5 552,-409.5 702,-409.5 702,-379.5 552,-379.5"/>
<text text-anchor="start" x="559" y="-390.9" font-family="Arial" font-size="14.00" fill="#000000">service_plan_id </text>
<text text-anchor="start" x="660.1318" y="-390.9" font-family="Arial" font-size="14.00" fill="#666666">[int]</text>
<polygon fill="none" stroke="#000000" points="552,-349.5 552,-379.5 702,-379.5 702,-349.5 552,-349.5"/>
<text text-anchor="start" x="559" y="-360.9" font-family="Arial" font-size="14.00" fill="#000000">created_at </text>
<text text-anchor="start" x="629.028" y="-360.9" font-family="Arial" font-size="14.00" fill="#666666">[datetime]</text>
<polygon fill="none" stroke="#000000" points="552,-319.5 552,-349.5 702,-349.5 702,-319.5 552,-319.5"/>
<text text-anchor="start" x="559" y="-330.9" font-family="Arial" font-size="14.00" fill="#000000">updated_at </text>
<text text-anchor="start" x="632.9326" y="-330.9" font-family="Arial" font-size="14.00" fill="#666666">[datetime]</text>
</g>
<!-- tenant_users&#45;&gt;roles -->
<g id="edge9" class="edge">
<title>tenant_users:role_id&#45;&gt;roles:id</title>
<path fill="none" stroke="#000000" d="M570.0096,-700.7489C620.9668,-692.1911 559.0466,-612.1932 552,-548 547.4656,-506.6926 510.4444,-454.5 552,-454.5"/>
<polygon fill="#000000" stroke="#000000" points="569.972,-700.7517 559.6633,-697.0126 564.986,-701.1258 560,-701.5 560,-701.5 560,-701.5 564.986,-701.1258 560.3367,-705.9874 569.972,-700.7517 569.972,-700.7517"/>
<text text-anchor="start" x="566.726" y="-711.5" font-family="Arial" font-size="10.00" fill="#000000">FOREIGN KEY (role_id) REFERENCES roles (id)</text>
</g>
<!-- post_likes -->
<g id="node4" class="node">
<title>post_likes</title>
<polygon fill="#efefef" stroke="transparent" points="115,-1498.5 115,-1533.5 306,-1533.5 306,-1498.5 115,-1498.5"/>
<polygon fill="none" stroke="#000000" points="115,-1498.5 115,-1533.5 306,-1533.5 306,-1498.5 115,-1498.5"/>
<text text-anchor="start" x="121.8654" y="-1511.3" font-family="Arial Bold" font-size="18.00" fill="#000000">post_likes</text>
<text text-anchor="start" x="201.8808" y="-1511.3" font-family="Arial" font-size="14.00" fill="#000000"> </text>
<text text-anchor="start" x="205.7714" y="-1511.3" font-family="Arial" font-size="14.00" fill="#666666">[BASE TABLE]</text>
<polygon fill="none" stroke="#000000" points="115,-1468.5 115,-1498.5 306,-1498.5 306,-1468.5 115,-1468.5"/>
<text text-anchor="start" x="122" y="-1479.9" font-family="Arial" font-size="14.00" fill="#000000">id </text>
<text text-anchor="start" x="136.7798" y="-1479.9" font-family="Arial" font-size="14.00" fill="#666666">[bigint]</text>
<polygon fill="none" stroke="#000000" points="115,-1438.5 115,-1468.5 306,-1468.5 306,-1438.5 115,-1438.5"/>
<text text-anchor="start" x="122" y="-1449.9" font-family="Arial" font-size="14.00" fill="#000000">post_id </text>
<text text-anchor="start" x="171.0182" y="-1449.9" font-family="Arial" font-size="14.00" fill="#666666">[bigint]</text>
<polygon fill="none" stroke="#000000" points="115,-1408.5 115,-1438.5 306,-1438.5 306,-1408.5 115,-1408.5"/>
<text text-anchor="start" x="122" y="-1419.9" font-family="Arial" font-size="14.00" fill="#000000">tenant_user_id </text>
<text text-anchor="start" x="218.4824" y="-1419.9" font-family="Arial" font-size="14.00" fill="#666666">[varchar(36)]</text>
<polygon fill="none" stroke="#000000" points="115,-1378.5 115,-1408.5 306,-1408.5 306,-1378.5 115,-1378.5"/>
<text text-anchor="start" x="122" y="-1389.9" font-family="Arial" font-size="14.00" fill="#000000">created_at </text>
<text text-anchor="start" x="192.028" y="-1389.9" font-family="Arial" font-size="14.00" fill="#666666">[datetime]</text>
<polygon fill="none" stroke="#000000" points="115,-1348.5 115,-1378.5 306,-1378.5 306,-1348.5 115,-1348.5"/>
<text text-anchor="start" x="122" y="-1359.9" font-family="Arial" font-size="14.00" fill="#000000">updated_at </text>
<text text-anchor="start" x="195.9326" y="-1359.9" font-family="Arial" font-size="14.00" fill="#666666">[datetime]</text>
</g>
<!-- post_likes&#45;&gt;posts -->
<g id="edge3" class="edge">
<title>post_likes:post_id&#45;&gt;posts:id</title>
<path fill="none" stroke="#000000" d="M316.0367,-1452.7162C365.794,-1444.1172 318.838,-1366.4952 306,-1306 300.5479,-1280.3085 287.4521,-1277.6915 282,-1252 273.3734,-1211.3497 240.4444,-1158.5 282,-1158.5"/>
<polygon fill="#000000" stroke="#000000" points="315.9696,-1452.7214 305.6496,-1449.0137 310.9848,-1453.1107 306,-1453.5 306,-1453.5 306,-1453.5 310.9848,-1453.1107 306.3504,-1457.9863 315.9696,-1452.7214 315.9696,-1452.7214"/>
<text text-anchor="start" x="74.495" y="-1463.5" font-family="Arial" font-size="10.00" fill="#000000">FOREIGN KEY (post_id) REFERENCES posts (id)</text>
</g>
<!-- post_likes&#45;&gt;tenant_users -->
<g id="edge4" class="edge">
<title>post_likes:tenant_user_id&#45;&gt;tenant_users:id</title>
<path fill="none" stroke="#000000" d="M316.3321,-1422.3643C354.0499,-1413.0828 328.176,-1348.9604 306,-1306 286.9937,-1269.1802 249.0063,-1288.8198 230,-1252 133.2384,-1064.5487 134.0479,-791.5 345,-791.5"/>
<polygon fill="#000000" stroke="#000000" points="315.9401,-1422.4073 305.5083,-1419.0269 310.9701,-1422.9536 306,-1423.5 306,-1423.5 306,-1423.5 310.9701,-1422.9536 306.4917,-1427.9731 315.9401,-1422.4073 315.9401,-1422.4073"/>
<text text-anchor="start" x="6.592" y="-1433.5" font-family="Arial" font-size="10.00" fill="#000000">FOREIGN KEY (tenant_user_id) REFERENCES tenant_users (id)</text>
</g>
<!-- service_plans -->
<g id="node6" class="node">
<title>service_plans</title>
<polygon fill="#efefef" stroke="transparent" points="384,-162.5 384,-197.5 605,-197.5 605,-162.5 384,-162.5"/>
<polygon fill="none" stroke="#000000" points="384,-162.5 384,-197.5 605,-197.5 605,-162.5 384,-162.5"/>
<text text-anchor="start" x="390.8642" y="-175.3" font-family="Arial Bold" font-size="18.00" fill="#000000">service_plans</text>
<text text-anchor="start" x="500.882" y="-175.3" font-family="Arial" font-size="14.00" fill="#000000"> </text>
<text text-anchor="start" x="504.7726" y="-175.3" font-family="Arial" font-size="14.00" fill="#666666">[BASE TABLE]</text>
<polygon fill="none" stroke="#000000" points="384,-132.5 384,-162.5 605,-162.5 605,-132.5 384,-132.5"/>
<text text-anchor="start" x="391" y="-143.9" font-family="Arial" font-size="14.00" fill="#000000">id </text>
<text text-anchor="start" x="405.7798" y="-143.9" font-family="Arial" font-size="14.00" fill="#666666">[int]</text>
<polygon fill="none" stroke="#000000" points="384,-102.5 384,-132.5 605,-132.5 605,-102.5 384,-102.5"/>
<text text-anchor="start" x="391" y="-113.9" font-family="Arial" font-size="14.00" fill="#000000">name </text>
<text text-anchor="start" x="429.899" y="-113.9" font-family="Arial" font-size="14.00" fill="#666666">[varchar(255)]</text>
<polygon fill="none" stroke="#000000" points="384,-72.5 384,-102.5 605,-102.5 605,-72.5 384,-72.5"/>
<text text-anchor="start" x="391" y="-83.9" font-family="Arial" font-size="14.00" fill="#000000">created_at </text>
<text text-anchor="start" x="461.028" y="-83.9" font-family="Arial" font-size="14.00" fill="#666666">[datetime]</text>
<polygon fill="none" stroke="#000000" points="384,-42.5 384,-72.5 605,-72.5 605,-42.5 384,-42.5"/>
<text text-anchor="start" x="391" y="-53.9" font-family="Arial" font-size="14.00" fill="#000000">updated_at </text>
<text text-anchor="start" x="464.9326" y="-53.9" font-family="Arial" font-size="14.00" fill="#666666">[datetime]</text>
</g>
<!-- tenants&#45;&gt;service_plans -->
<g id="edge7" class="edge">
<title>tenants:service_plan_id&#45;&gt;service_plans:id</title>
<path fill="none" stroke="#000000" d="M458.369,-393.344C496.3811,-383.9006 472.4075,-318.733 448,-277 431.524,-248.8286 400.476,-269.1714 384,-241 363.0208,-205.1289 342.4444,-147.5 384,-147.5"/>
<polygon fill="#000000" stroke="#000000" points="457.9384,-393.3919 447.5014,-390.0277 452.9692,-393.946 448,-394.5 448,-394.5 448,-394.5 452.9692,-393.946 448.4986,-398.9723 457.9384,-393.3919 457.9384,-393.3919"/>
<text text-anchor="start" x="142.271" y="-404.5" font-family="Arial" font-size="10.00" fill="#000000">FOREIGN KEY (service_plan_id) REFERENCES service_plans (id)</text>
</g>
<!-- roles&#45;&gt;service_plans -->
<g id="edge11" class="edge">
<title>roles:service_plan_id&#45;&gt;service_plans:id</title>
<path fill="none" stroke="#000000" d="M541.6604,-393.3604C503.883,-384.0477 529.3721,-319.7241 552,-277 565.3277,-251.8358 591.6723,-266.1642 605,-241 624.4495,-204.277 646.5556,-147.5 605,-147.5"/>
<polygon fill="#000000" stroke="#000000" points="542.0602,-393.4044 551.507,-398.9729 547.0301,-393.9522 552,-394.5 552,-394.5 552,-394.5 547.0301,-393.9522 552.493,-390.0271 542.0602,-393.4044 542.0602,-393.4044"/>
<text text-anchor="start" x="559.271" y="-404.5" font-family="Arial" font-size="10.00" fill="#000000">FOREIGN KEY (service_plan_id) REFERENCES service_plans (id)</text>
</g>
<!-- right_role_mappings -->
<g id="node8" class="node">
<title>right_role_mappings</title>
<polygon fill="#efefef" stroke="transparent" points="664,-791.5 664,-826.5 938,-826.5 938,-791.5 664,-791.5"/>
<polygon fill="none" stroke="#000000" points="664,-791.5 664,-826.5 938,-826.5 938,-791.5 664,-791.5"/>
<text text-anchor="start" x="670.8583" y="-804.3" font-family="Arial Bold" font-size="18.00" fill="#000000">right_role_mappings</text>
<text text-anchor="start" x="833.8879" y="-804.3" font-family="Arial" font-size="14.00" fill="#000000"> </text>
<text text-anchor="start" x="837.7785" y="-804.3" font-family="Arial" font-size="14.00" fill="#666666">[BASE TABLE]</text>
<polygon fill="none" stroke="#000000" points="664,-761.5 664,-791.5 938,-791.5 938,-761.5 664,-761.5"/>
<text text-anchor="start" x="671" y="-772.9" font-family="Arial" font-size="14.00" fill="#000000">id </text>
<text text-anchor="start" x="685.7798" y="-772.9" font-family="Arial" font-size="14.00" fill="#666666">[int]</text>
<polygon fill="none" stroke="#000000" points="664,-731.5 664,-761.5 938,-761.5 938,-731.5 664,-731.5"/>
<text text-anchor="start" x="671" y="-742.9" font-family="Arial" font-size="14.00" fill="#000000">right_id </text>
<text text-anchor="start" x="720.7854" y="-742.9" font-family="Arial" font-size="14.00" fill="#666666">[int]</text>
<polygon fill="none" stroke="#000000" points="664,-701.5 664,-731.5 938,-731.5 938,-701.5 664,-701.5"/>
<text text-anchor="start" x="671" y="-712.9" font-family="Arial" font-size="14.00" fill="#000000">role_id </text>
<text text-anchor="start" x="716.8948" y="-712.9" font-family="Arial" font-size="14.00" fill="#666666">[int]</text>
<polygon fill="none" stroke="#000000" points="664,-671.5 664,-701.5 938,-701.5 938,-671.5 664,-671.5"/>
<text text-anchor="start" x="671" y="-682.9" font-family="Arial" font-size="14.00" fill="#000000">created_at </text>
<text text-anchor="start" x="741.028" y="-682.9" font-family="Arial" font-size="14.00" fill="#666666">[datetime]</text>
<polygon fill="none" stroke="#000000" points="664,-641.5 664,-671.5 938,-671.5 938,-641.5 664,-641.5"/>
<text text-anchor="start" x="671" y="-652.9" font-family="Arial" font-size="14.00" fill="#000000">updated_at </text>
<text text-anchor="start" x="744.9326" y="-652.9" font-family="Arial" font-size="14.00" fill="#666666">[datetime]</text>
</g>
<!-- right_role_mappings&#45;&gt;roles -->
<g id="edge10" class="edge">
<title>right_role_mappings:role_id&#45;&gt;roles:id</title>
<path fill="none" stroke="#000000" d="M653.7829,-715.4127C616.9832,-706.5175 648.7837,-644.8894 664,-599 672.8966,-572.1697 693.1034,-574.8303 702,-548 715.079,-508.5563 743.5556,-454.5 702,-454.5"/>
<polygon fill="#000000" stroke="#000000" points="654.0561,-715.4417 663.5238,-720.9747 659.0281,-715.9708 664,-716.5 664,-716.5 664,-716.5 659.0281,-715.9708 664.4762,-712.0253 654.0561,-715.4417 654.0561,-715.4417"/>
<text text-anchor="start" x="670.726" y="-726.5" font-family="Arial" font-size="10.00" fill="#000000">FOREIGN KEY (role_id) REFERENCES roles (id)</text>
</g>
</g>
</svg>
