<?xml version="1.0" encoding="UTF-8" standalone="no"?>
<!DOCTYPE svg PUBLIC "-//W3C//DTD SVG 1.1//EN"
 "http://www.w3.org/Graphics/SVG/1.1/DTD/svg11.dtd">
<!-- Generated by graphviz version 2.40.1 (20161225.0304)
 -->
<!-- Title: post_likes Pages: 1 -->
<svg width="964pt" height="1597pt"
 viewBox="0.00 0.00 964.00 1597.00" xmlns="http://www.w3.org/2000/svg" xmlns:xlink="http://www.w3.org/1999/xlink">
<g id="graph0" class="graph" transform="scale(1 1) rotate(0) translate(4 1593)">
<title>post_likes</title>
<polygon fill="#ffffff" stroke="transparent" points="-4,4 -4,-1593 960,-1593 960,4 -4,4"/>
<!-- post_likes -->
<g id="node1" class="node">
<title>post_likes</title>
<polygon fill="#efefef" stroke="transparent" points="414,-1495.5 414,-1530.5 605,-1530.5 605,-1495.5 414,-1495.5"/>
<polygon fill="none" stroke="#000000" points="414,-1495.5 414,-1530.5 605,-1530.5 605,-1495.5 414,-1495.5"/>
<text text-anchor="start" x="420.8654" y="-1508.3" font-family="Arial Bold" font-size="18.00" fill="#000000">post_likes</text>
<text text-anchor="start" x="500.8808" y="-1508.3" font-family="Arial" font-size="14.00" fill="#000000"> </text>
<text text-anchor="start" x="504.7714" y="-1508.3" font-family="Arial" font-size="14.00" fill="#666666">[BASE TABLE]</text>
<polygon fill="none" stroke="#000000" points="414,-1465.5 414,-1495.5 605,-1495.5 605,-1465.5 414,-1465.5"/>
<text text-anchor="start" x="421" y="-1476.9" font-family="Arial" font-size="14.00" fill="#000000">id </text>
<text text-anchor="start" x="435.7798" y="-1476.9" font-family="Arial" font-size="14.00" fill="#666666">[bigint]</text>
<polygon fill="none" stroke="#000000" points="414,-1435.5 414,-1465.5 605,-1465.5 605,-1435.5 414,-1435.5"/>
<text text-anchor="start" x="421" y="-1446.9" font-family="Arial" font-size="14.00" fill="#000000">post_id </text>
<text text-anchor="start" x="470.0182" y="-1446.9" font-family="Arial" font-size="14.00" fill="#666666">[bigint]</text>
<polygon fill="none" stroke="#000000" points="414,-1405.5 414,-1435.5 605,-1435.5 605,-1405.5 414,-1405.5"/>
<text text-anchor="start" x="421" y="-1416.9" font-family="Arial" font-size="14.00" fill="#000000">tenant_user_id </text>
<text text-anchor="start" x="517.4824" y="-1416.9" font-family="Arial" font-size="14.00" fill="#666666">[varchar(36)]</text>
<polygon fill="none" stroke="#000000" points="414,-1375.5 414,-1405.5 605,-1405.5 605,-1375.5 414,-1375.5"/>
<text text-anchor="start" x="421" y="-1386.9" font-family="Arial" font-size="14.00" fill="#000000">created_at </text>
<text text-anchor="start" x="491.028" y="-1386.9" font-family="Arial" font-size="14.00" fill="#666666">[datetime]</text>
<polygon fill="none" stroke="#000000" points="414,-1345.5 414,-1375.5 605,-1375.5 605,-1345.5 414,-1345.5"/>
<text text-anchor="start" x="421" y="-1356.9" font-family="Arial" font-size="14.00" fill="#000000">updated_at </text>
<text text-anchor="start" x="494.9326" y="-1356.9" font-family="Arial" font-size="14.00" fill="#666666">[datetime]</text>
<polygon fill="none" stroke="#000000" stroke-width="3" points="412,-1344.5 412,-1532.5 606,-1532.5 606,-1344.5 412,-1344.5"/>
</g>
<!-- posts -->
<g id="node2" class="node">
<title>posts</title>
<polygon fill="#efefef" stroke="transparent" points="258,-1173.5 258,-1208.5 438,-1208.5 438,-1173.5 258,-1173.5"/>
<polygon fill="none" stroke="#000000" points="258,-1173.5 258,-1208.5 438,-1208.5 438,-1173.5 258,-1173.5"/>
<text text-anchor="start" x="277.8658" y="-1186.3" font-family="Arial Bold" font-size="18.00" fill="#000000">posts</text>
<text text-anchor="start" x="320.8804" y="-1186.3" font-family="Arial" font-size="14.00" fill="#000000"> </text>
<text text-anchor="start" x="324.771" y="-1186.3" font-family="Arial" font-size="14.00" fill="#666666">[BASE TABLE]</text>
<polygon fill="none" stroke="#000000" points="258,-1143.5 258,-1173.5 438,-1173.5 438,-1143.5 258,-1143.5"/>
<text text-anchor="start" x="265" y="-1154.9" font-family="Arial" font-size="14.00" fill="#000000">id </text>
<text text-anchor="start" x="279.7798" y="-1154.9" font-family="Arial" font-size="14.00" fill="#666666">[bigint]</text>
<polygon fill="none" stroke="#000000" points="258,-1113.5 258,-1143.5 438,-1143.5 438,-1113.5 258,-1113.5"/>
<text text-anchor="start" x="265" y="-1124.9" font-family="Arial" font-size="14.00" fill="#000000">title </text>
<text text-anchor="start" x="290.6676" y="-1124.9" font-family="Arial" font-size="14.00" fill="#666666">[varchar(255)]</text>
<polygon fill="none" stroke="#000000" points="258,-1083.5 258,-1113.5 438,-1113.5 438,-1083.5 258,-1083.5"/>
<text text-anchor="start" x="265" y="-1094.9" font-family="Arial" font-size="14.00" fill="#000000">detail </text>
<text text-anchor="start" x="302.3422" y="-1094.9" font-family="Arial" font-size="14.00" fill="#666666">[varchar(255)]</text>
<polygon fill="none" stroke="#000000" points="258,-1053.5 258,-1083.5 438,-1083.5 438,-1053.5 258,-1053.5"/>
<text text-anchor="start" x="265" y="-1064.9" font-family="Arial" font-size="14.00" fill="#000000">tenant_id </text>
<text text-anchor="start" x="326.474" y="-1064.9" font-family="Arial" font-size="14.00" fill="#666666">[varchar(36)]</text>
<polygon fill="none" stroke="#000000" points="258,-1023.5 258,-1053.5 438,-1053.5 438,-1023.5 258,-1023.5"/>
<text text-anchor="start" x="264.7574" y="-1034.9" font-family="Arial" font-size="14.00" fill="#000000">posted_by_id </text>
<text text-anchor="start" x="351.906" y="-1034.9" font-family="Arial" font-size="14.00" fill="#666666">[varchar(36)]</text>
<polygon fill="none" stroke="#000000" points="258,-993.5 258,-1023.5 438,-1023.5 438,-993.5 258,-993.5"/>
<text text-anchor="start" x="265" y="-1004.9" font-family="Arial" font-size="14.00" fill="#000000">created_at </text>
<text text-anchor="start" x="335.028" y="-1004.9" font-family="Arial" font-size="14.00" fill="#666666">[datetime]</text>
<polygon fill="none" stroke="#000000" points="258,-963.5 258,-993.5 438,-993.5 438,-963.5 258,-963.5"/>
<text text-anchor="start" x="265" y="-974.9" font-family="Arial" font-size="14.00" fill="#000000">updated_at </text>
<text text-anchor="start" x="338.9326" y="-974.9" font-family="Arial" font-size="14.00" fill="#666666">[datetime]</text>
</g>
<!-- post_likes&#45;&gt;posts -->
<g id="edge1" class="edge">
<title>post_likes:post_id&#45;&gt;posts:id</title>
<path fill="none" stroke="#000000" d="M403.7457,-1449.6973C352.8315,-1440.8909 399.5025,-1361.4123 414,-1300 419.4799,-1276.7867 432.5201,-1275.2133 438,-1252 447.5475,-1211.5561 479.5556,-1158.5 438,-1158.5"/>
<polygon fill="#000000" stroke="#000000" points="404.0305,-1449.7195 413.6488,-1454.9863 409.0152,-1450.1097 414,-1450.5 414,-1450.5 414,-1450.5 409.0152,-1450.1097 414.3512,-1446.0137 404.0305,-1449.7195 404.0305,-1449.7195"/>
<text text-anchor="start" x="361.745" y="-1434.5" font-family="Arial" font-size="10.00" fill="#000000">FOREIGN KEY (post_id) REFERENCES posts (id)</text>
</g>
<!-- tenant_users -->
<g id="node4" class="node">
<title>tenant_users</title>
<polygon fill="#efefef" stroke="transparent" points="320,-806.5 320,-841.5 535,-841.5 535,-806.5 320,-806.5"/>
<polygon fill="none" stroke="#000000" points="320,-806.5 320,-841.5 535,-841.5 535,-806.5 320,-806.5"/>
<text text-anchor="start" x="326.8531" y="-819.3" font-family="Arial Bold" font-size="18.00" fill="#000000">tenant_users</text>
<text text-anchor="start" x="430.8931" y="-819.3" font-family="Arial" font-size="14.00" fill="#000000"> </text>
<text text-anchor="start" x="434.7837" y="-819.3" font-family="Arial" font-size="14.00" fill="#666666">[BASE TABLE]</text>
<polygon fill="none" stroke="#000000" points="320,-776.5 320,-806.5 535,-806.5 535,-776.5 320,-776.5"/>
<text text-anchor="start" x="327" y="-787.9" font-family="Arial" font-size="14.00" fill="#000000">id </text>
<text text-anchor="start" x="341.7798" y="-787.9" font-family="Arial" font-size="14.00" fill="#666666">[varchar(36)]</text>
<polygon fill="none" stroke="#000000" points="320,-746.5 320,-776.5 535,-776.5 535,-746.5 320,-746.5"/>
<text text-anchor="start" x="327" y="-757.9" font-family="Arial" font-size="14.00" fill="#000000">name </text>
<text text-anchor="start" x="365.899" y="-757.9" font-family="Arial" font-size="14.00" fill="#666666">[varchar(255)]</text>
<polygon fill="none" stroke="#000000" points="320,-716.5 320,-746.5 535,-746.5 535,-716.5 320,-716.5"/>
<text text-anchor="start" x="327" y="-727.9" font-family="Arial" font-size="14.00" fill="#000000">tenant_id </text>
<text text-anchor="start" x="388.474" y="-727.9" font-family="Arial" font-size="14.00" fill="#666666">[varchar(36)]</text>
<polygon fill="none" stroke="#000000" points="320,-686.5 320,-716.5 535,-716.5 535,-686.5 320,-686.5"/>
<text text-anchor="start" x="327" y="-697.9" font-family="Arial" font-size="14.00" fill="#000000">role_id </text>
<text text-anchor="start" x="372.8948" y="-697.9" font-family="Arial" font-size="14.00" fill="#666666">[int]</text>
<polygon fill="none" stroke="#000000" points="320,-656.5 320,-686.5 535,-686.5 535,-656.5 320,-656.5"/>
<text text-anchor="start" x="327" y="-667.9" font-family="Arial" font-size="14.00" fill="#000000">created_at </text>
<text text-anchor="start" x="397.028" y="-667.9" font-family="Arial" font-size="14.00" fill="#666666">[datetime]</text>
<polygon fill="none" stroke="#000000" points="320,-626.5 320,-656.5 535,-656.5 535,-626.5 320,-626.5"/>
<text text-anchor="start" x="327" y="-637.9" font-family="Arial" font-size="14.00" fill="#000000">updated_at </text>
<text text-anchor="start" x="400.9326" y="-637.9" font-family="Arial" font-size="14.00" fill="#666666">[datetime]</text>
</g>
<!-- post_likes&#45;&gt;tenant_users -->
<g id="edge4" class="edge">
<title>post_likes:tenant_user_id&#45;&gt;tenant_users:id</title>
<path fill="none" stroke="#000000" d="M403.8794,-1419.4433C364.3312,-1410.2824 389.9662,-1343.6052 414,-1300 433.2843,-1265.0119 468.6185,-1285.7473 490,-1252 545.0296,-1165.1446 637.8208,-791.5 535,-791.5"/>
<polygon fill="#000000" stroke="#000000" points="404.0541,-1419.4615 413.5327,-1424.9757 409.027,-1419.9807 414,-1420.5 414,-1420.5 414,-1420.5 409.027,-1419.9807 414.4673,-1416.0243 404.0541,-1419.4615 404.0541,-1419.4615"/>
<text text-anchor="start" x="420.592" y="-1404.5" font-family="Arial" font-size="10.00" fill="#000000">FOREIGN KEY (tenant_user_id) REFERENCES tenant_users (id)</text>
</g>
<!-- posts&#45;&gt;tenant_users -->
<g id="edge8" class="edge">
<title>posts:posted_by_id&#45;&gt;tenant_users:id</title>
<path fill="none" stroke="#000000" d="M447.9495,-1037.4177C487.1994,-1028.0445 466.8904,-960.019 438,-921 405.3724,-876.9335 352.6276,-929.0665 320,-885 295.2719,-851.6026 278.4444,-791.5 320,-791.5"/>
<polygon fill="#000000" stroke="#000000" points="447.9414,-1037.4185 437.5133,-1034.0264 442.9707,-1037.9592 438,-1038.5 438,-1038.5 438,-1038.5 442.9707,-1037.9592 438.4867,-1042.9736 447.9414,-1037.4185 447.9414,-1037.4185"/>
<text text-anchor="start" x="444.9255" y="-1048.5" font-family="Arial" font-size="10.00" fill="#000000">FOREIGN KEY (posted_by_id) REFERENCES tenant_users (id)</text>
</g>
<!-- tenants -->
<g id="node5" class="node">
<title>tenants</title>
<polygon fill="#efefef" stroke="transparent" points="253,-469.5 253,-504.5 423,-504.5 423,-469.5 253,-469.5"/>
<polygon fill="none" stroke="#000000" points="253,-469.5 253,-504.5 423,-504.5 423,-469.5 253,-469.5"/>
<text text-anchor="start" x="259.8585" y="-482.3" font-family="Arial Bold" font-size="18.00" fill="#000000">tenants</text>
<text text-anchor="start" x="318.8877" y="-482.3" font-family="Arial" font-size="14.00" fill="#000000"> </text>
<text text-anchor="start" x="322.7783" y="-482.3" font-family="Arial" font-size="14.00" fill="#666666">[BASE TABLE]</text>
<polygon fill="none" stroke="#000000" points="253,-439.5 253,-469.5 423,-469.5 423,-439.5 253,-439.5"/>
<text text-anchor="start" x="260" y="-450.9" font-family="Arial" font-size="14.00" fill="#000000">id </text>
<text text-anchor="start" x="274.7798" y="-450.9" font-family="Arial" font-size="14.00" fill="#666666">[varchar(36)]</text>
<polygon fill="none" stroke="#000000" points="253,-409.5 253,-439.5 423,-439.5 423,-409.5 253,-409.5"/>
<text text-anchor="start" x="260" y="-420.9" font-family="Arial" font-size="14.00" fill="#000000">name </text>
<text text-anchor="start" x="298.899" y="-420.9" font-family="Arial" font-size="14.00" fill="#666666">[varchar(255)]</text>
<polygon fill="none" stroke="#000000" points="253,-379.5 253,-409.5 423,-409.5 423,-379.5 253,-379.5"/>
<text text-anchor="start" x="260" y="-390.9" font-family="Arial" font-size="14.00" fill="#000000">service_plan_id </text>
<text text-anchor="start" x="361.1318" y="-390.9" font-family="Arial" font-size="14.00" fill="#666666">[int]</text>
<polygon fill="none" stroke="#000000" points="253,-349.5 253,-379.5 423,-379.5 423,-349.5 253,-349.5"/>
<text text-anchor="start" x="260" y="-360.9" font-family="Arial" font-size="14.00" fill="#000000">created_at </text>
<text text-anchor="start" x="330.028" y="-360.9" font-family="Arial" font-size="14.00" fill="#666666">[datetime]</text>
<polygon fill="none" stroke="#000000" points="253,-319.5 253,-349.5 423,-349.5 423,-319.5 253,-319.5"/>
<text text-anchor="start" x="260" y="-330.9" font-family="Arial" font-size="14.00" fill="#000000">updated_at </text>
<text text-anchor="start" x="333.9326" y="-330.9" font-family="Arial" font-size="14.00" fill="#666666">[datetime]</text>
</g>
<!-- posts&#45;&gt;tenants -->
<g id="edge5" class="edge">
<title>posts:tenant_id&#45;&gt;tenants:id</title>
<path fill="none" stroke="#000000" d="M247.736,-1068.2056C-14.9801,-1053.0091 -16.4334,-454.5 253,-454.5"/>
<polygon fill="#000000" stroke="#000000" points="248.0041,-1068.2132 257.871,-1072.9982 253.0021,-1068.3566 258,-1068.5 258,-1068.5 258,-1068.5 253.0021,-1068.3566 258.129,-1064.0018 248.0041,-1068.2132 248.0041,-1068.2132"/>
<text text-anchor="start" x="8.598" y="-1078.5" font-family="Arial" font-size="10.00" fill="#000000">FOREIGN KEY (tenant_id) REFERENCES tenants (id)</text>
</g>
<!-- post_comments -->
<g id="node3" class="node">
<title>post_comments</title>
<polygon fill="#efefef" stroke="transparent" points="68,-1510.5 68,-1545.5 306,-1545.5 306,-1510.5 68,-1510.5"/>
<polygon fill="none" stroke="#000000" points="68,-1510.5 68,-1545.5 306,-1545.5 306,-1510.5 68,-1510.5"/>
<text text-anchor="start" x="74.8601" y="-1523.3" font-family="Arial Bold" font-size="18.00" fill="#000000">post_comments</text>
<text text-anchor="start" x="201.8861" y="-1523.3" font-family="Arial" font-size="14.00" fill="#000000"> </text>
<text text-anchor="start" x="205.7767" y="-1523.3" font-family="Arial" font-size="14.00" fill="#666666">[BASE TABLE]</text>
<polygon fill="none" stroke="#000000" points="68,-1480.5 68,-1510.5 306,-1510.5 306,-1480.5 68,-1480.5"/>
<text text-anchor="start" x="75" y="-1491.9" font-family="Arial" font-size="14.00" fill="#000000">id </text>
<text text-anchor="start" x="89.7798" y="-1491.9" font-family="Arial" font-size="14.00" fill="#666666">[bigint]</text>
<polygon fill="none" stroke="#000000" points="68,-1450.5 68,-1480.5 306,-1480.5 306,-1450.5 68,-1450.5"/>
<text text-anchor="start" x="75" y="-1461.9" font-family="Arial" font-size="14.00" fill="#000000">post_id </text>
<text text-anchor="start" x="124.0182" y="-1461.9" font-family="Arial" font-size="14.00" fill="#666666">[bigint]</text>
<polygon fill="none" stroke="#000000" points="68,-1420.5 68,-1450.5 306,-1450.5 306,-1420.5 68,-1420.5"/>
<text text-anchor="start" x="75" y="-1431.9" font-family="Arial" font-size="14.00" fill="#000000">tenant_user_id </text>
<text text-anchor="start" x="171.4824" y="-1431.9" font-family="Arial" font-size="14.00" fill="#666666">[varchar(36)]</text>
<polygon fill="none" stroke="#000000" points="68,-1390.5 68,-1420.5 306,-1420.5 306,-1390.5 68,-1390.5"/>
<text text-anchor="start" x="75" y="-1401.9" font-family="Arial" font-size="14.00" fill="#000000">comment </text>
<text text-anchor="start" x="136.4502" y="-1401.9" font-family="Arial" font-size="14.00" fill="#666666">[varchar(255)]</text>
<polygon fill="none" stroke="#000000" points="68,-1360.5 68,-1390.5 306,-1390.5 306,-1360.5 68,-1360.5"/>
<text text-anchor="start" x="75" y="-1371.9" font-family="Arial" font-size="14.00" fill="#000000">created_at </text>
<text text-anchor="start" x="145.028" y="-1371.9" font-family="Arial" font-size="14.00" fill="#666666">[datetime]</text>
<polygon fill="none" stroke="#000000" points="68,-1330.5 68,-1360.5 306,-1360.5 306,-1330.5 68,-1330.5"/>
<text text-anchor="start" x="75" y="-1341.9" font-family="Arial" font-size="14.00" fill="#000000">updated_at </text>
<text text-anchor="start" x="148.9326" y="-1341.9" font-family="Arial" font-size="14.00" fill="#666666">[datetime]</text>
</g>
<!-- post_comments&#45;&gt;posts -->
<g id="edge2" class="edge">
<title>post_comments:post_id&#45;&gt;posts:id</title>
<path fill="none" stroke="#000000" d="M316.2997,-1464.8098C380.8189,-1455.5543 339.6264,-1355.2529 306,-1288 294.0743,-1264.1486 269.9257,-1275.8514 258,-1252 239.4158,-1214.8316 216.4444,-1158.5 258,-1158.5"/>
<polygon fill="#000000" stroke="#000000" points="315.9776,-1464.8313 305.6991,-1461.0101 310.9888,-1465.1657 306,-1465.5 306,-1465.5 306,-1465.5 310.9888,-1465.1657 306.3009,-1469.9899 315.9776,-1464.8313 315.9776,-1464.8313"/>
<text text-anchor="start" x="313.495" y="-1475.5" font-family="Arial" font-size="10.00" fill="#000000">FOREIGN KEY (post_id) REFERENCES posts (id)</text>
</g>
<!-- post_comments&#45;&gt;tenant_users -->
<g id="edge3" class="edge">
<title>post_comments:tenant_user_id&#45;&gt;tenant_users:id</title>
<path fill="none" stroke="#000000" d="M316.2554,-1434.621C368.368,-1424.9958 341.5602,-1338.596 306,-1288 278.8383,-1249.3535 233.1617,-1290.6465 206,-1252 84.7614,-1079.4985 109.1551,-791.5 320,-791.5"/>
<polygon fill="#000000" stroke="#000000" points="315.9635,-1434.6459 305.6157,-1431.0164 310.9817,-1435.0729 306,-1435.5 306,-1435.5 306,-1435.5 310.9817,-1435.0729 306.3843,-1439.9836 315.9635,-1434.6459 315.9635,-1434.6459"/>
<text text-anchor="start" x="6.592" y="-1445.5" font-family="Arial" font-size="10.00" fill="#000000">FOREIGN KEY (tenant_user_id) REFERENCES tenant_users (id)</text>
</g>
<!-- tenant_users&#45;&gt;tenants -->
<g id="edge6" class="edge">
<title>tenant_users:tenant_id&#45;&gt;tenants:id</title>
<path fill="none" stroke="#000000" d="M309.7423,-730.6194C257.6054,-720.977 284.2046,-634.4299 320,-584 348.0688,-544.4557 394.9312,-587.5443 423,-548 447.0531,-514.1132 464.5556,-454.5 423,-454.5"/>
<polygon fill="#000000" stroke="#000000" points="310.0367,-730.6445 319.615,-735.9835 315.0183,-731.0723 320,-731.5 320,-731.5 320,-731.5 315.0183,-731.0723 320.385,-727.0165 310.0367,-730.6445 310.0367,-730.6445"/>
<text text-anchor="start" x="70.598" y="-741.5" font-family="Arial" font-size="10.00" fill="#000000">FOREIGN KEY (tenant_id) REFERENCES tenants (id)</text>
</g>
<!-- roles -->
<g id="node7" class="node">
<title>roles</title>
<polygon fill="#efefef" stroke="transparent" points="527,-469.5 527,-504.5 677,-504.5 677,-469.5 527,-469.5"/>
<polygon fill="none" stroke="#000000" points="527,-469.5 527,-504.5 677,-504.5 677,-469.5 527,-469.5"/>
<text text-anchor="start" x="533.8737" y="-482.3" font-family="Arial Bold" font-size="18.00" fill="#000000">roles</text>
<text text-anchor="start" x="572.8725" y="-482.3" font-family="Arial" font-size="14.00" fill="#000000"> </text>
<text text-anchor="start" x="576.7631" y="-482.3" font-family="Arial" font-size="14.00" fill="#666666">[BASE TABLE]</text>
<polygon fill="none" stroke="#000000" points="527,-439.5 527,-469.5 677,-469.5 677,-439.5 527,-439.5"/>
<text text-anchor="start" x="534" y="-450.9" font-family="Arial" font-size="14.00" fill="#000000">id </text>
<text text-anchor="start" x="548.7798" y="-450.9" font-family="Arial" font-size="14.00" fill="#666666">[int]</text>
<polygon fill="none" stroke="#000000" points="527,-409.5 527,-439.5 677,-439.5 677,-409.5 527,-409.5"/>
<text text-anchor="start" x="534" y="-420.9" font-family="Arial" font-size="14.00" fill="#000000">name </text>
<text text-anchor="start" x="572.899" y="-420.9" font-family="Arial" font-size="14.00" fill="#666666">[varchar(255)]</text>
<polygon fill="none" stroke="#000000" points="527,-379.5 527,-409.5 677,-409.5 677,-379.5 527,-379.5"/>
<text text-anchor="start" x="534" y="-390.9" font-family="Arial" font-size="14.00" fill="#000000">service_plan_id </text>
<text text-anchor="start" x="635.1318" y="-390.9" font-family="Arial" font-size="14.00" fill="#666666">[int]</text>
<polygon fill="none" stroke="#000000" points="527,-349.5 527,-379.5 677,-379.5 677,-349.5 527,-349.5"/>
<text text-anchor="start" x="534" y="-360.9" font-family="Arial" font-size="14.00" fill="#000000">created_at </text>
<text text-anchor="start" x="604.028" y="-360.9" font-family="Arial" font-size="14.00" fill="#666666">[datetime]</text>
<polygon fill="none" stroke="#000000" points="527,-319.5 527,-349.5 677,-349.5 677,-319.5 527,-319.5"/>
<text text-anchor="start" x="534" y="-330.9" font-family="Arial" font-size="14.00" fill="#000000">updated_at </text>
<text text-anchor="start" x="607.9326" y="-330.9" font-family="Arial" font-size="14.00" fill="#666666">[datetime]</text>
</g>
<!-- tenant_users&#45;&gt;roles -->
<g id="edge9" class="edge">
<title>tenant_users:role_id&#45;&gt;roles:id</title>
<path fill="none" stroke="#000000" d="M545.0096,-700.7489C595.9668,-692.1911 534.0466,-612.1932 527,-548 522.4656,-506.6926 485.4444,-454.5 527,-454.5"/>
<polygon fill="#000000" stroke="#000000" points="544.972,-700.7517 534.6633,-697.0126 539.986,-701.1258 535,-701.5 535,-701.5 535,-701.5 539.986,-701.1258 535.3367,-705.9874 544.972,-700.7517 544.972,-700.7517"/>
<text text-anchor="start" x="541.726" y="-711.5" font-family="Arial" font-size="10.00" fill="#000000">FOREIGN KEY (role_id) REFERENCES roles (id)</text>
</g>
<!-- service_plans -->
<g id="node6" class="node">
<title>service_plans</title>
<polygon fill="#efefef" stroke="transparent" points="359,-162.5 359,-197.5 580,-197.5 580,-162.5 359,-162.5"/>
<polygon fill="none" stroke="#000000" points="359,-162.5 359,-197.5 580,-197.5 580,-162.5 359,-162.5"/>
<text text-anchor="start" x="365.8642" y="-175.3" font-family="Arial Bold" font-size="18.00" fill="#000000">service_plans</text>
<text text-anchor="start" x="475.882" y="-175.3" font-family="Arial" font-size="14.00" fill="#000000"> </text>
<text text-anchor="start" x="479.7726" y="-175.3" font-family="Arial" font-size="14.00" fill="#666666">[BASE TABLE]</text>
<polygon fill="none" stroke="#000000" points="359,-132.5 359,-162.5 580,-162.5 580,-132.5 359,-132.5"/>
<text text-anchor="start" x="366" y="-143.9" font-family="Arial" font-size="14.00" fill="#000000">id </text>
<text text-anchor="start" x="380.7798" y="-143.9" font-family="Arial" font-size="14.00" fill="#666666">[int]</text>
<polygon fill="none" stroke="#000000" points="359,-102.5 359,-132.5 580,-132.5 580,-102.5 359,-102.5"/>
<text text-anchor="start" x="366" y="-113.9" font-family="Arial" font-size="14.00" fill="#000000">name </text>
<text text-anchor="start" x="404.899" y="-113.9" font-family="Arial" font-size="14.00" fill="#666666">[varchar(255)]</text>
<polygon fill="none" stroke="#000000" points="359,-72.5 359,-102.5 580,-102.5 580,-72.5 359,-72.5"/>
<text text-anchor="start" x="366" y="-83.9" font-family="Arial" font-size="14.00" fill="#000000">created_at </text>
<text text-anchor="start" x="436.028" y="-83.9" font-family="Arial" font-size="14.00" fill="#666666">[datetime]</text>
<polygon fill="none" stroke="#000000" points="359,-42.5 359,-72.5 580,-72.5 580,-42.5 359,-42.5"/>
<text text-anchor="start" x="366" y="-53.9" font-family="Arial" font-size="14.00" fill="#000000">updated_at </text>
<text text-anchor="start" x="439.9326" y="-53.9" font-family="Arial" font-size="14.00" fill="#666666">[datetime]</text>
</g>
<!-- tenants&#45;&gt;service_plans -->
<g id="edge7" class="edge">
<title>tenants:service_plan_id&#45;&gt;service_plans:id</title>
<path fill="none" stroke="#000000" d="M433.369,-393.344C471.3811,-383.9006 447.4075,-318.733 423,-277 406.524,-248.8286 375.476,-269.1714 359,-241 338.0208,-205.1289 317.4444,-147.5 359,-147.5"/>
<polygon fill="#000000" stroke="#000000" points="432.9384,-393.3919 422.5014,-390.0277 427.9692,-393.946 423,-394.5 423,-394.5 423,-394.5 427.9692,-393.946 423.4986,-398.9723 432.9384,-393.3919 432.9384,-393.3919"/>
<text text-anchor="start" x="117.271" y="-404.5" font-family="Arial" font-size="10.00" fill="#000000">FOREIGN KEY (service_plan_id) REFERENCES service_plans (id)</text>
</g>
<!-- roles&#45;&gt;service_plans -->
<g id="edge11" class="edge">
<title>roles:service_plan_id&#45;&gt;service_plans:id</title>
<path fill="none" stroke="#000000" d="M516.6604,-393.3604C478.883,-384.0477 504.3721,-319.7241 527,-277 540.3277,-251.8358 566.6723,-266.1642 580,-241 599.4495,-204.277 621.5556,-147.5 580,-147.5"/>
<polygon fill="#000000" stroke="#000000" points="517.0602,-393.4044 526.507,-398.9729 522.0301,-393.9522 527,-394.5 527,-394.5 527,-394.5 522.0301,-393.9522 527.493,-390.0271 517.0602,-393.4044 517.0602,-393.4044"/>
<text text-anchor="start" x="534.271" y="-404.5" font-family="Arial" font-size="10.00" fill="#000000">FOREIGN KEY (service_plan_id) REFERENCES service_plans (id)</text>
</g>
<!-- right_role_mappings -->
<g id="node8" class="node">
<title>right_role_mappings</title>
<polygon fill="#efefef" stroke="transparent" points="639,-791.5 639,-826.5 913,-826.5 913,-791.5 639,-791.5"/>
<polygon fill="none" stroke="#000000" points="639,-791.5 639,-826.5 913,-826.5 913,-791.5 639,-791.5"/>
<text text-anchor="start" x="645.8583" y="-804.3" font-family="Arial Bold" font-size="18.00" fill="#000000">right_role_mappings</text>
<text text-anchor="start" x="808.8879" y="-804.3" font-family="Arial" font-size="14.00" fill="#000000"> </text>
<text text-anchor="start" x="812.7785" y="-804.3" font-family="Arial" font-size="14.00" fill="#666666">[BASE TABLE]</text>
<polygon fill="none" stroke="#000000" points="639,-761.5 639,-791.5 913,-791.5 913,-761.5 639,-761.5"/>
<text text-anchor="start" x="646" y="-772.9" font-family="Arial" font-size="14.00" fill="#000000">id </text>
<text text-anchor="start" x="660.7798" y="-772.9" font-family="Arial" font-size="14.00" fill="#666666">[int]</text>
<polygon fill="none" stroke="#000000" points="639,-731.5 639,-761.5 913,-761.5 913,-731.5 639,-731.5"/>
<text text-anchor="start" x="646" y="-742.9" font-family="Arial" font-size="14.00" fill="#000000">right_id </text>
<text text-anchor="start" x="695.7854" y="-742.9" font-family="Arial" font-size="14.00" fill="#666666">[int]</text>
<polygon fill="none" stroke="#000000" points="639,-701.5 639,-731.5 913,-731.5 913,-701.5 639,-701.5"/>
<text text-anchor="start" x="646" y="-712.9" font-family="Arial" font-size="14.00" fill="#000000">role_id </text>
<text text-anchor="start" x="691.8948" y="-712.9" font-family="Arial" font-size="14.00" fill="#666666">[int]</text>
<polygon fill="none" stroke="#000000" points="639,-671.5 639,-701.5 913,-701.5 913,-671.5 639,-671.5"/>
<text text-anchor="start" x="646" y="-682.9" font-family="Arial" font-size="14.00" fill="#000000">created_at </text>
<text text-anchor="start" x="716.028" y="-682.9" font-family="Arial" font-size="14.00" fill="#666666">[datetime]</text>
<polygon fill="none" stroke="#000000" points="639,-641.5 639,-671.5 913,-671.5 913,-641.5 639,-641.5"/>
<text text-anchor="start" x="646" y="-652.9" font-family="Arial" font-size="14.00" fill="#000000">updated_at </text>
<text text-anchor="start" x="719.9326" y="-652.9" font-family="Arial" font-size="14.00" fill="#666666">[datetime]</text>
</g>
<!-- right_role_mappings&#45;&gt;roles -->
<g id="edge10" class="edge">
<title>right_role_mappings:role_id&#45;&gt;roles:id</title>
<path fill="none" stroke="#000000" d="M628.7829,-715.4127C591.9832,-706.5175 623.7837,-644.8894 639,-599 647.8966,-572.1697 668.1034,-574.8303 677,-548 690.079,-508.5563 718.5556,-454.5 677,-454.5"/>
<polygon fill="#000000" stroke="#000000" points="629.0561,-715.4417 638.5238,-720.9747 634.0281,-715.9708 639,-716.5 639,-716.5 639,-716.5 634.0281,-715.9708 639.4762,-712.0253 629.0561,-715.4417 629.0561,-715.4417"/>
<text text-anchor="start" x="645.726" y="-726.5" font-family="Arial" font-size="10.00" fill="#000000">FOREIGN KEY (role_id) REFERENCES roles (id)</text>
</g>
</g>
</svg>
