<?xml version="1.0" encoding="UTF-8" standalone="no"?>
<!DOCTYPE svg PUBLIC "-//W3C//DTD SVG 1.1//EN"
 "http://www.w3.org/Graphics/SVG/1.1/DTD/svg11.dtd">
<!-- Generated by graphviz version 2.40.1 (20161225.0304)
 -->
<!-- Title: posts Pages: 1 -->
<svg width="1179pt" height="1603pt"
 viewBox="0.00 0.00 1179.00 1603.00" xmlns="http://www.w3.org/2000/svg" xmlns:xlink="http://www.w3.org/1999/xlink">
<g id="graph0" class="graph" transform="scale(1 1) rotate(0) translate(4 1599)">
<title>posts</title>
<polygon fill="#ffffff" stroke="transparent" points="-4,4 -4,-1599 1175,-1599 1175,4 -4,4"/>
<!-- posts -->
<g id="node1" class="node">
<title>posts</title>
<polygon fill="#efefef" stroke="transparent" points="471,-1176.5 471,-1211.5 651,-1211.5 651,-1176.5 471,-1176.5"/>
<polygon fill="none" stroke="#000000" points="471,-1176.5 471,-1211.5 651,-1211.5 651,-1176.5 471,-1176.5"/>
<text text-anchor="start" x="490.8658" y="-1189.3" font-family="Arial Bold" font-size="18.00" fill="#000000">posts</text>
<text text-anchor="start" x="533.8804" y="-1189.3" font-family="Arial" font-size="14.00" fill="#000000"> </text>
<text text-anchor="start" x="537.771" y="-1189.3" font-family="Arial" font-size="14.00" fill="#666666">[BASE TABLE]</text>
<polygon fill="none" stroke="#000000" points="471,-1146.5 471,-1176.5 651,-1176.5 651,-1146.5 471,-1146.5"/>
<text text-anchor="start" x="478" y="-1157.9" font-family="Arial" font-size="14.00" fill="#000000">id </text>
<text text-anchor="start" x="492.7798" y="-1157.9" font-family="Arial" font-size="14.00" fill="#666666">[bigint]</text>
<polygon fill="none" stroke="#000000" points="471,-1116.5 471,-1146.5 651,-1146.5 651,-1116.5 471,-1116.5"/>
<text text-anchor="start" x="478" y="-1127.9" font-family="Arial" font-size="14.00" fill="#000000">title </text>
<text text-anchor="start" x="503.6676" y="-1127.9" font-family="Arial" font-size="14.00" fill="#666666">[varchar(255)]</text>
<polygon fill="none" stroke="#000000" points="471,-1086.5 471,-1116.5 651,-1116.5 651,-1086.5 471,-1086.5"/>
<text text-anchor="start" x="478" y="-1097.9" font-family="Arial" font-size="14.00" fill="#000000">detail </text>
<text text-anchor="start" x="515.3422" y="-1097.9" font-family="Arial" font-size="14.00" fill="#666666">[varchar(255)]</text>
<polygon fill="none" stroke="#000000" points="471,-1056.5 471,-1086.5 651,-1086.5 651,-1056.5 471,-1056.5"/>
<text text-anchor="start" x="478" y="-1067.9" font-family="Arial" font-size="14.00" fill="#000000">tenant_id </text>
<text text-anchor="start" x="539.474" y="-1067.9" font-family="Arial" font-size="14.00" fill="#666666">[varchar(36)]</text>
<polygon fill="none" stroke="#000000" points="471,-1026.5 471,-1056.5 651,-1056.5 651,-1026.5 471,-1026.5"/>
<text text-anchor="start" x="477.7574" y="-1037.9" font-family="Arial" font-size="14.00" fill="#000000">posted_by_id </text>
<text text-anchor="start" x="564.906" y="-1037.9" font-family="Arial" font-size="14.00" fill="#666666">[varchar(36)]</text>
<polygon fill="none" stroke="#000000" points="471,-996.5 471,-1026.5 651,-1026.5 651,-996.5 471,-996.5"/>
<text text-anchor="start" x="478" y="-1007.9" font-family="Arial" font-size="14.00" fill="#000000">created_at </text>
<text text-anchor="start" x="548.028" y="-1007.9" font-family="Arial" font-size="14.00" fill="#666666">[datetime]</text>
<polygon fill="none" stroke="#000000" points="471,-966.5 471,-996.5 651,-996.5 651,-966.5 471,-966.5"/>
<text text-anchor="start" x="478" y="-977.9" font-family="Arial" font-size="14.00" fill="#000000">updated_at </text>
<text text-anchor="start" x="551.9326" y="-977.9" font-family="Arial" font-size="14.00" fill="#666666">[datetime]</text>
<polygon fill="none" stroke="#000000" stroke-width="3" points="469.5,-965.5 469.5,-1213.5 652.5,-1213.5 652.5,-965.5 469.5,-965.5"/>
</g>
<!-- tenants -->
<g id="node4" class="node">
<title>tenants</title>
<polygon fill="#efefef" stroke="transparent" points="468,-469.5 468,-504.5 638,-504.5 638,-469.5 468,-469.5"/>
<polygon fill="none" stroke="#000000" points="468,-469.5 468,-504.5 638,-504.5 638,-469.5 468,-469.5"/>
<text text-anchor="start" x="474.8585" y="-482.3" font-family="Arial Bold" font-size="18.00" fill="#000000">tenants</text>
<text text-anchor="start" x="533.8877" y="-482.3" font-family="Arial" font-size="14.00" fill="#000000"> </text>
<text text-anchor="start" x="537.7783" y="-482.3" font-family="Arial" font-size="14.00" fill="#666666">[BASE TABLE]</text>
<polygon fill="none" stroke="#000000" points="468,-439.5 468,-469.5 638,-469.5 638,-439.5 468,-439.5"/>
<text text-anchor="start" x="475" y="-450.9" font-family="Arial" font-size="14.00" fill="#000000">id </text>
<text text-anchor="start" x="489.7798" y="-450.9" font-family="Arial" font-size="14.00" fill="#666666">[varchar(36)]</text>
<polygon fill="none" stroke="#000000" points="468,-409.5 468,-439.5 638,-439.5 638,-409.5 468,-409.5"/>
<text text-anchor="start" x="475" y="-420.9" font-family="Arial" font-size="14.00" fill="#000000">name </text>
<text text-anchor="start" x="513.899" y="-420.9" font-family="Arial" font-size="14.00" fill="#666666">[varchar(255)]</text>
<polygon fill="none" stroke="#000000" points="468,-379.5 468,-409.5 638,-409.5 638,-379.5 468,-379.5"/>
<text text-anchor="start" x="475" y="-390.9" font-family="Arial" font-size="14.00" fill="#000000">service_plan_id </text>
<text text-anchor="start" x="576.1318" y="-390.9" font-family="Arial" font-size="14.00" fill="#666666">[int]</text>
<polygon fill="none" stroke="#000000" points="468,-349.5 468,-379.5 638,-379.5 638,-349.5 468,-349.5"/>
<text text-anchor="start" x="475" y="-360.9" font-family="Arial" font-size="14.00" fill="#000000">created_at </text>
<text text-anchor="start" x="545.028" y="-360.9" font-family="Arial" font-size="14.00" fill="#666666">[datetime]</text>
<polygon fill="none" stroke="#000000" points="468,-319.5 468,-349.5 638,-349.5 638,-319.5 468,-319.5"/>
<text text-anchor="start" x="475" y="-330.9" font-family="Arial" font-size="14.00" fill="#000000">updated_at </text>
<text text-anchor="start" x="548.9326" y="-330.9" font-family="Arial" font-size="14.00" fill="#666666">[datetime]</text>
</g>
<!-- posts&#45;&gt;tenants -->
<g id="edge3" class="edge">
<title>posts:tenant_id&#45;&gt;tenants:id</title>
<path fill="none" stroke="#000000" d="M460.687,-1071.2042C196.743,-1055.9334 197.2559,-454.5 468,-454.5"/>
<polygon fill="#000000" stroke="#000000" points="461.0041,-1071.2132 470.8709,-1075.9982 466.0021,-1071.3566 471,-1071.5 471,-1071.5 471,-1071.5 466.0021,-1071.3566 471.1291,-1067.0018 461.0041,-1071.2132 461.0041,-1071.2132"/>
<text text-anchor="start" x="221.598" y="-1081.5" font-family="Arial" font-size="10.00" fill="#000000">FOREIGN KEY (tenant_id) REFERENCES tenants (id)</text>
</g>
<!-- tenant_users -->
<g id="node5" class="node">
<title>tenant_users</title>
<polygon fill="#efefef" stroke="transparent" points="535,-806.5 535,-841.5 750,-841.5 750,-806.5 535,-806.5"/>
<polygon fill="none" stroke="#000000" points="535,-806.5 535,-841.5 750,-841.5 750,-806.5 535,-806.5"/>
<text text-anchor="start" x="541.8531" y="-819.3" font-family="Arial Bold" font-size="18.00" fill="#000000">tenant_users</text>
<text text-anchor="start" x="645.8931" y="-819.3" font-family="Arial" font-size="14.00" fill="#000000"> </text>
<text text-anchor="start" x="649.7837" y="-819.3" font-family="Arial" font-size="14.00" fill="#666666">[BASE TABLE]</text>
<polygon fill="none" stroke="#000000" points="535,-776.5 535,-806.5 750,-806.5 750,-776.5 535,-776.5"/>
<text text-anchor="start" x="542" y="-787.9" font-family="Arial" font-size="14.00" fill="#000000">id </text>
<text text-anchor="start" x="556.7798" y="-787.9" font-family="Arial" font-size="14.00" fill="#666666">[varchar(36)]</text>
<polygon fill="none" stroke="#000000" points="535,-746.5 535,-776.5 750,-776.5 750,-746.5 535,-746.5"/>
<text text-anchor="start" x="542" y="-757.9" font-family="Arial" font-size="14.00" fill="#000000">name </text>
<text text-anchor="start" x="580.899" y="-757.9" font-family="Arial" font-size="14.00" fill="#666666">[varchar(255)]</text>
<polygon fill="none" stroke="#000000" points="535,-716.5 535,-746.5 750,-746.5 750,-716.5 535,-716.5"/>
<text text-anchor="start" x="542" y="-727.9" font-family="Arial" font-size="14.00" fill="#000000">tenant_id </text>
<text text-anchor="start" x="603.474" y="-727.9" font-family="Arial" font-size="14.00" fill="#666666">[varchar(36)]</text>
<polygon fill="none" stroke="#000000" points="535,-686.5 535,-716.5 750,-716.5 750,-686.5 535,-686.5"/>
<text text-anchor="start" x="542" y="-697.9" font-family="Arial" font-size="14.00" fill="#000000">role_id </text>
<text text-anchor="start" x="587.8948" y="-697.9" font-family="Arial" font-size="14.00" fill="#666666">[int]</text>
<polygon fill="none" stroke="#000000" points="535,-656.5 535,-686.5 750,-686.5 750,-656.5 535,-656.5"/>
<text text-anchor="start" x="542" y="-667.9" font-family="Arial" font-size="14.00" fill="#000000">created_at </text>
<text text-anchor="start" x="612.028" y="-667.9" font-family="Arial" font-size="14.00" fill="#666666">[datetime]</text>
<polygon fill="none" stroke="#000000" points="535,-626.5 535,-656.5 750,-656.5 750,-626.5 535,-626.5"/>
<text text-anchor="start" x="542" y="-637.9" font-family="Arial" font-size="14.00" fill="#000000">updated_at </text>
<text text-anchor="start" x="615.9326" y="-637.9" font-family="Arial" font-size="14.00" fill="#666666">[datetime]</text>
</g>
<!-- posts&#45;&gt;tenant_users -->
<g id="edge4" class="edge">
<title>posts:posted_by_id&#45;&gt;tenant_users:id</title>
<path fill="none" stroke="#000000" d="M660.9477,-1040.4508C701.5298,-1031.0805 680.5938,-961.1705 651,-921 618.9822,-877.5392 567.0178,-928.4608 535,-885 510.3523,-851.5433 493.4444,-791.5 535,-791.5"/>
<polygon fill="#000000" stroke="#000000" points="660.9448,-1040.4511 650.528,-1037.0248 655.9724,-1040.9755 651,-1041.5 651,-1041.5 651,-1041.5 655.9724,-1040.9755 651.472,-1045.9752 660.9448,-1040.4511 660.9448,-1040.4511"/>
<text text-anchor="start" x="657.9255" y="-1051.5" font-family="Arial" font-size="10.00" fill="#000000">FOREIGN KEY (posted_by_id) REFERENCES tenant_users (id)</text>
</g>
<!-- post_comments -->
<g id="node2" class="node">
<title>post_comments</title>
<polygon fill="#efefef" stroke="transparent" points="603,-1516.5 603,-1551.5 841,-1551.5 841,-1516.5 603,-1516.5"/>
<polygon fill="none" stroke="#000000" points="603,-1516.5 603,-1551.5 841,-1551.5 841,-1516.5 603,-1516.5"/>
<text text-anchor="start" x="609.8601" y="-1529.3" font-family="Arial Bold" font-size="18.00" fill="#000000">post_comments</text>
<text text-anchor="start" x="736.8861" y="-1529.3" font-family="Arial" font-size="14.00" fill="#000000"> </text>
<text text-anchor="start" x="740.7767" y="-1529.3" font-family="Arial" font-size="14.00" fill="#666666">[BASE TABLE]</text>
<polygon fill="none" stroke="#000000" points="603,-1486.5 603,-1516.5 841,-1516.5 841,-1486.5 603,-1486.5"/>
<text text-anchor="start" x="610" y="-1497.9" font-family="Arial" font-size="14.00" fill="#000000">id </text>
<text text-anchor="start" x="624.7798" y="-1497.9" font-family="Arial" font-size="14.00" fill="#666666">[bigint]</text>
<polygon fill="none" stroke="#000000" points="603,-1456.5 603,-1486.5 841,-1486.5 841,-1456.5 603,-1456.5"/>
<text text-anchor="start" x="610" y="-1467.9" font-family="Arial" font-size="14.00" fill="#000000">post_id </text>
<text text-anchor="start" x="659.0182" y="-1467.9" font-family="Arial" font-size="14.00" fill="#666666">[bigint]</text>
<polygon fill="none" stroke="#000000" points="603,-1426.5 603,-1456.5 841,-1456.5 841,-1426.5 603,-1426.5"/>
<text text-anchor="start" x="610" y="-1437.9" font-family="Arial" font-size="14.00" fill="#000000">tenant_user_id </text>
<text text-anchor="start" x="706.4824" y="-1437.9" font-family="Arial" font-size="14.00" fill="#666666">[varchar(36)]</text>
<polygon fill="none" stroke="#000000" points="603,-1396.5 603,-1426.5 841,-1426.5 841,-1396.5 603,-1396.5"/>
<text text-anchor="start" x="610" y="-1407.9" font-family="Arial" font-size="14.00" fill="#000000">comment </text>
<text text-anchor="start" x="671.4502" y="-1407.9" font-family="Arial" font-size="14.00" fill="#666666">[varchar(255)]</text>
<polygon fill="none" stroke="#000000" points="603,-1366.5 603,-1396.5 841,-1396.5 841,-1366.5 603,-1366.5"/>
<text text-anchor="start" x="610" y="-1377.9" font-family="Arial" font-size="14.00" fill="#000000">created_at </text>
<text text-anchor="start" x="680.028" y="-1377.9" font-family="Arial" font-size="14.00" fill="#666666">[datetime]</text>
<polygon fill="none" stroke="#000000" points="603,-1336.5 603,-1366.5 841,-1366.5 841,-1336.5 603,-1336.5"/>
<text text-anchor="start" x="610" y="-1347.9" font-family="Arial" font-size="14.00" fill="#000000">updated_at </text>
<text text-anchor="start" x="683.9326" y="-1347.9" font-family="Arial" font-size="14.00" fill="#666666">[datetime]</text>
</g>
<!-- post_comments&#45;&gt;posts -->
<g id="edge1" class="edge">
<title>post_comments:post_id&#45;&gt;posts:id</title>
<path fill="none" stroke="#000000" d="M592.7003,-1470.8098C528.1811,-1461.5543 569.3736,-1361.2529 603,-1294 614.9257,-1270.1486 639.0743,-1281.8514 651,-1258 670.1805,-1219.639 693.8889,-1161.5 651,-1161.5"/>
<polygon fill="#000000" stroke="#000000" points="593.0224,-1470.8313 602.6991,-1475.9899 598.0112,-1471.1657 603,-1471.5 603,-1471.5 603,-1471.5 598.0112,-1471.1657 603.3009,-1467.0101 593.0224,-1470.8313 593.0224,-1470.8313"/>
<text text-anchor="start" x="550.745" y="-1455.5" font-family="Arial" font-size="10.00" fill="#000000">FOREIGN KEY (post_id) REFERENCES posts (id)</text>
</g>
<!-- post_comments&#45;&gt;tenant_users -->
<g id="edge5" class="edge">
<title>post_comments:tenant_user_id&#45;&gt;tenant_users:id</title>
<path fill="none" stroke="#000000" d="M846.7491,-1432.8029C865.2767,-1355.6703 783.9707,-791.5 750,-791.5"/>
<polygon fill="#000000" stroke="#000000" points="846.5145,-1433.1579 837.246,-1439.0185 843.7572,-1437.3289 841,-1441.5 841,-1441.5 841,-1441.5 843.7572,-1437.3289 844.754,-1443.9815 846.5145,-1433.1579 846.5145,-1433.1579"/>
<text text-anchor="start" x="847.592" y="-1451.5" font-family="Arial" font-size="10.00" fill="#000000">FOREIGN KEY (tenant_user_id) REFERENCES tenant_users (id)</text>
</g>
<!-- post_likes -->
<g id="node3" class="node">
<title>post_likes</title>
<polygon fill="#efefef" stroke="transparent" points="306,-1501.5 306,-1536.5 497,-1536.5 497,-1501.5 306,-1501.5"/>
<polygon fill="none" stroke="#000000" points="306,-1501.5 306,-1536.5 497,-1536.5 497,-1501.5 306,-1501.5"/>
<text text-anchor="start" x="312.8654" y="-1514.3" font-family="Arial Bold" font-size="18.00" fill="#000000">post_likes</text>
<text text-anchor="start" x="392.8808" y="-1514.3" font-family="Arial" font-size="14.00" fill="#000000"> </text>
<text text-anchor="start" x="396.7714" y="-1514.3" font-family="Arial" font-size="14.00" fill="#666666">[BASE TABLE]</text>
<polygon fill="none" stroke="#000000" points="306,-1471.5 306,-1501.5 497,-1501.5 497,-1471.5 306,-1471.5"/>
<text text-anchor="start" x="313" y="-1482.9" font-family="Arial" font-size="14.00" fill="#000000">id </text>
<text text-anchor="start" x="327.7798" y="-1482.9" font-family="Arial" font-size="14.00" fill="#666666">[bigint]</text>
<polygon fill="none" stroke="#000000" points="306,-1441.5 306,-1471.5 497,-1471.5 497,-1441.5 306,-1441.5"/>
<text text-anchor="start" x="313" y="-1452.9" font-family="Arial" font-size="14.00" fill="#000000">post_id </text>
<text text-anchor="start" x="362.0182" y="-1452.9" font-family="Arial" font-size="14.00" fill="#666666">[bigint]</text>
<polygon fill="none" stroke="#000000" points="306,-1411.5 306,-1441.5 497,-1441.5 497,-1411.5 306,-1411.5"/>
<text text-anchor="start" x="313" y="-1422.9" font-family="Arial" font-size="14.00" fill="#000000">tenant_user_id </text>
<text text-anchor="start" x="409.4824" y="-1422.9" font-family="Arial" font-size="14.00" fill="#666666">[varchar(36)]</text>
<polygon fill="none" stroke="#000000" points="306,-1381.5 306,-1411.5 497,-1411.5 497,-1381.5 306,-1381.5"/>
<text text-anchor="start" x="313" y="-1392.9" font-family="Arial" font-size="14.00" fill="#000000">created_at </text>
<text text-anchor="start" x="383.028" y="-1392.9" font-family="Arial" font-size="14.00" fill="#666666">[datetime]</text>
<polygon fill="none" stroke="#000000" points="306,-1351.5 306,-1381.5 497,-1381.5 497,-1351.5 306,-1351.5"/>
<text text-anchor="start" x="313" y="-1362.9" font-family="Arial" font-size="14.00" fill="#000000">updated_at </text>
<text text-anchor="start" x="386.9326" y="-1362.9" font-family="Arial" font-size="14.00" fill="#666666">[datetime]</text>
</g>
<!-- post_likes&#45;&gt;posts -->
<g id="edge2" class="edge">
<title>post_likes:post_id&#45;&gt;posts:id</title>
<path fill="none" stroke="#000000" d="M507.0522,-1455.7127C556.9758,-1447.0761 511.4435,-1369.1321 497,-1309 491.0579,-1284.2614 476.9421,-1282.7386 471,-1258 460.9832,-1216.2972 428.1111,-1161.5 471,-1161.5"/>
<polygon fill="#000000" stroke="#000000" points="506.9695,-1455.7191 496.6486,-1452.0137 501.9847,-1456.1096 497,-1456.5 497,-1456.5 497,-1456.5 501.9847,-1456.1096 497.3514,-1460.9863 506.9695,-1455.7191 506.9695,-1455.7191"/>
<text text-anchor="start" x="265.495" y="-1466.5" font-family="Arial" font-size="10.00" fill="#000000">FOREIGN KEY (post_id) REFERENCES posts (id)</text>
</g>
<!-- post_likes&#45;&gt;tenant_users -->
<g id="edge6" class="edge">
<title>post_likes:tenant_user_id&#45;&gt;tenant_users:id</title>
<path fill="none" stroke="#000000" d="M295.6842,-1425.383C167.1278,-1395.8726 388.6555,-791.5 535,-791.5"/>
<polygon fill="#000000" stroke="#000000" points="296.0581,-1425.4234 305.5155,-1430.9738 301.0291,-1425.9617 306,-1426.5 306,-1426.5 306,-1426.5 301.0291,-1425.9617 306.4845,-1422.0262 296.0581,-1425.4234 296.0581,-1425.4234"/>
<text text-anchor="start" x="6.592" y="-1436.5" font-family="Arial" font-size="10.00" fill="#000000">FOREIGN KEY (tenant_user_id) REFERENCES tenant_users (id)</text>
</g>
<!-- service_plans -->
<g id="node7" class="node">
<title>service_plans</title>
<polygon fill="#efefef" stroke="transparent" points="574,-162.5 574,-197.5 795,-197.5 795,-162.5 574,-162.5"/>
<polygon fill="none" stroke="#000000" points="574,-162.5 574,-197.5 795,-197.5 795,-162.5 574,-162.5"/>
<text text-anchor="start" x="580.8642" y="-175.3" font-family="Arial Bold" font-size="18.00" fill="#000000">service_plans</text>
<text text-anchor="start" x="690.882" y="-175.3" font-family="Arial" font-size="14.00" fill="#000000"> </text>
<text text-anchor="start" x="694.7726" y="-175.3" font-family="Arial" font-size="14.00" fill="#666666">[BASE TABLE]</text>
<polygon fill="none" stroke="#000000" points="574,-132.5 574,-162.5 795,-162.5 795,-132.5 574,-132.5"/>
<text text-anchor="start" x="581" y="-143.9" font-family="Arial" font-size="14.00" fill="#000000">id </text>
<text text-anchor="start" x="595.7798" y="-143.9" font-family="Arial" font-size="14.00" fill="#666666">[int]</text>
<polygon fill="none" stroke="#000000" points="574,-102.5 574,-132.5 795,-132.5 795,-102.5 574,-102.5"/>
<text text-anchor="start" x="581" y="-113.9" font-family="Arial" font-size="14.00" fill="#000000">name </text>
<text text-anchor="start" x="619.899" y="-113.9" font-family="Arial" font-size="14.00" fill="#666666">[varchar(255)]</text>
<polygon fill="none" stroke="#000000" points="574,-72.5 574,-102.5 795,-102.5 795,-72.5 574,-72.5"/>
<text text-anchor="start" x="581" y="-83.9" font-family="Arial" font-size="14.00" fill="#000000">created_at </text>
<text text-anchor="start" x="651.028" y="-83.9" font-family="Arial" font-size="14.00" fill="#666666">[datetime]</text>
<polygon fill="none" stroke="#000000" points="574,-42.5 574,-72.5 795,-72.5 795,-42.5 574,-42.5"/>
<text text-anchor="start" x="581" y="-53.9" font-family="Arial" font-size="14.00" fill="#000000">updated_at </text>
<text text-anchor="start" x="654.9326" y="-53.9" font-family="Arial" font-size="14.00" fill="#666666">[datetime]</text>
</g>
<!-- tenants&#45;&gt;service_plans -->
<g id="edge9" class="edge">
<title>tenants:service_plan_id&#45;&gt;service_plans:id</title>
<path fill="none" stroke="#000000" d="M648.369,-393.344C686.3811,-383.9006 662.4075,-318.733 638,-277 621.524,-248.8286 590.476,-269.1714 574,-241 553.0208,-205.1289 532.4444,-147.5 574,-147.5"/>
<polygon fill="#000000" stroke="#000000" points="647.9384,-393.3919 637.5014,-390.0277 642.9692,-393.946 638,-394.5 638,-394.5 638,-394.5 642.9692,-393.946 638.4986,-398.9723 647.9384,-393.3919 647.9384,-393.3919"/>
<text text-anchor="start" x="332.271" y="-404.5" font-family="Arial" font-size="10.00" fill="#000000">FOREIGN KEY (service_plan_id) REFERENCES service_plans (id)</text>
</g>
<!-- tenant_users&#45;&gt;tenants -->
<g id="edge7" class="edge">
<title>tenant_users:tenant_id&#45;&gt;tenants:id</title>
<path fill="none" stroke="#000000" d="M524.7423,-730.6194C472.6054,-720.977 499.2046,-634.4299 535,-584 563.0688,-544.4557 609.9312,-587.5443 638,-548 662.0531,-514.1132 679.5556,-454.5 638,-454.5"/>
<polygon fill="#000000" stroke="#000000" points="525.0367,-730.6445 534.615,-735.9835 530.0183,-731.0723 535,-731.5 535,-731.5 535,-731.5 530.0183,-731.0723 535.385,-727.0165 525.0367,-730.6445 525.0367,-730.6445"/>
<text text-anchor="start" x="285.598" y="-741.5" font-family="Arial" font-size="10.00" fill="#000000">FOREIGN KEY (tenant_id) REFERENCES tenants (id)</text>
</g>
<!-- roles -->
<g id="node6" class="node">
<title>roles</title>
<polygon fill="#efefef" stroke="transparent" points="742,-469.5 742,-504.5 892,-504.5 892,-469.5 742,-469.5"/>
<polygon fill="none" stroke="#000000" points="742,-469.5 742,-504.5 892,-504.5 892,-469.5 742,-469.5"/>
<text text-anchor="start" x="748.8737" y="-482.3" font-family="Arial Bold" font-size="18.00" fill="#000000">roles</text>
<text text-anchor="start" x="787.8725" y="-482.3" font-family="Arial" font-size="14.00" fill="#000000"> </text>
<text text-anchor="start" x="791.7631" y="-482.3" font-family="Arial" font-size="14.00" fill="#666666">[BASE TABLE]</text>
<polygon fill="none" stroke="#000000" points="742,-439.5 742,-469.5 892,-469.5 892,-439.5 742,-439.5"/>
<text text-anchor="start" x="749" y="-450.9" font-family="Arial" font-size="14.00" fill="#000000">id </text>
<text text-anchor="start" x="763.7798" y="-450.9" font-family="Arial" font-size="14.00" fill="#666666">[int]</text>
<polygon fill="none" stroke="#000000" points="742,-409.5 742,-439.5 892,-439.5 892,-409.5 742,-409.5"/>
<text text-anchor="start" x="749" y="-420.9" font-family="Arial" font-size="14.00" fill="#000000">name </text>
<text text-anchor="start" x="787.899" y="-420.9" font-family="Arial" font-size="14.00" fill="#666666">[varchar(255)]</text>
<polygon fill="none" stroke="#000000" points="742,-379.5 742,-409.5 892,-409.5 892,-379.5 742,-379.5"/>
<text text-anchor="start" x="749" y="-390.9" font-family="Arial" font-size="14.00" fill="#000000">service_plan_id </text>
<text text-anchor="start" x="850.1318" y="-390.9" font-family="Arial" font-size="14.00" fill="#666666">[int]</text>
<polygon fill="none" stroke="#000000" points="742,-349.5 742,-379.5 892,-379.5 892,-349.5 742,-349.5"/>
<text text-anchor="start" x="749" y="-360.9" font-family="Arial" font-size="14.00" fill="#000000">created_at </text>
<text text-anchor="start" x="819.028" y="-360.9" font-family="Arial" font-size="14.00" fill="#666666">[datetime]</text>
<polygon fill="none" stroke="#000000" points="742,-319.5 742,-349.5 892,-349.5 892,-319.5 742,-319.5"/>
<text text-anchor="start" x="749" y="-330.9" font-family="Arial" font-size="14.00" fill="#000000">updated_at </text>
<text text-anchor="start" x="822.9326" y="-330.9" font-family="Arial" font-size="14.00" fill="#666666">[datetime]</text>
</g>
<!-- tenant_users&#45;&gt;roles -->
<g id="edge8" class="edge">
<title>tenant_users:role_id&#45;&gt;roles:id</title>
<path fill="none" stroke="#000000" d="M760.0096,-700.7489C810.9668,-692.1911 749.0466,-612.1932 742,-548 737.4656,-506.6926 700.4444,-454.5 742,-454.5"/>
<polygon fill="#000000" stroke="#000000" points="759.972,-700.7517 749.6633,-697.0126 754.986,-701.1258 750,-701.5 750,-701.5 750,-701.5 754.986,-701.1258 750.3367,-705.9874 759.972,-700.7517 759.972,-700.7517"/>
<text text-anchor="start" x="756.726" y="-711.5" font-family="Arial" font-size="10.00" fill="#000000">FOREIGN KEY (role_id) REFERENCES roles (id)</text>
</g>
<!-- roles&#45;&gt;service_plans -->
<g id="edge10" class="edge">
<title>roles:service_plan_id&#45;&gt;service_plans:id</title>
<path fill="none" stroke="#000000" d="M731.6604,-393.3604C693.883,-384.0477 719.3721,-319.7241 742,-277 755.3277,-251.8358 781.6723,-266.1642 795,-241 814.4495,-204.277 836.5556,-147.5 795,-147.5"/>
<polygon fill="#000000" stroke="#000000" points="732.0602,-393.4044 741.507,-398.9729 737.0301,-393.9522 742,-394.5 742,-394.5 742,-394.5 737.0301,-393.9522 742.493,-390.0271 732.0602,-393.4044 732.0602,-393.4044"/>
<text text-anchor="start" x="749.271" y="-404.5" font-family="Arial" font-size="10.00" fill="#000000">FOREIGN KEY (service_plan_id) REFERENCES service_plans (id)</text>
</g>
<!-- right_role_mappings -->
<g id="node8" class="node">
<title>right_role_mappings</title>
<polygon fill="#efefef" stroke="transparent" points="854,-791.5 854,-826.5 1128,-826.5 1128,-791.5 854,-791.5"/>
<polygon fill="none" stroke="#000000" points="854,-791.5 854,-826.5 1128,-826.5 1128,-791.5 854,-791.5"/>
<text text-anchor="start" x="860.8583" y="-804.3" font-family="Arial Bold" font-size="18.00" fill="#000000">right_role_mappings</text>
<text text-anchor="start" x="1023.8879" y="-804.3" font-family="Arial" font-size="14.00" fill="#000000"> </text>
<text text-anchor="start" x="1027.7785" y="-804.3" font-family="Arial" font-size="14.00" fill="#666666">[BASE TABLE]</text>
<polygon fill="none" stroke="#000000" points="854,-761.5 854,-791.5 1128,-791.5 1128,-761.5 854,-761.5"/>
<text text-anchor="start" x="861" y="-772.9" font-family="Arial" font-size="14.00" fill="#000000">id </text>
<text text-anchor="start" x="875.7798" y="-772.9" font-family="Arial" font-size="14.00" fill="#666666">[int]</text>
<polygon fill="none" stroke="#000000" points="854,-731.5 854,-761.5 1128,-761.5 1128,-731.5 854,-731.5"/>
<text text-anchor="start" x="861" y="-742.9" font-family="Arial" font-size="14.00" fill="#000000">right_id </text>
<text text-anchor="start" x="910.7854" y="-742.9" font-family="Arial" font-size="14.00" fill="#666666">[int]</text>
<polygon fill="none" stroke="#000000" points="854,-701.5 854,-731.5 1128,-731.5 1128,-701.5 854,-701.5"/>
<text text-anchor="start" x="861" y="-712.9" font-family="Arial" font-size="14.00" fill="#000000">role_id </text>
<text text-anchor="start" x="906.8948" y="-712.9" font-family="Arial" font-size="14.00" fill="#666666">[int]</text>
<polygon fill="none" stroke="#000000" points="854,-671.5 854,-701.5 1128,-701.5 1128,-671.5 854,-671.5"/>
<text text-anchor="start" x="861" y="-682.9" font-family="Arial" font-size="14.00" fill="#000000">created_at </text>
<text text-anchor="start" x="931.028" y="-682.9" font-family="Arial" font-size="14.00" fill="#666666">[datetime]</text>
<polygon fill="none" stroke="#000000" points="854,-641.5 854,-671.5 1128,-671.5 1128,-641.5 854,-641.5"/>
<text text-anchor="start" x="861" y="-652.9" font-family="Arial" font-size="14.00" fill="#000000">updated_at </text>
<text text-anchor="start" x="934.9326" y="-652.9" font-family="Arial" font-size="14.00" fill="#666666">[datetime]</text>
</g>
<!-- right_role_mappings&#45;&gt;roles -->
<g id="edge11" class="edge">
<title>right_role_mappings:role_id&#45;&gt;roles:id</title>
<path fill="none" stroke="#000000" d="M843.7829,-715.4127C806.9832,-706.5175 838.7837,-644.8894 854,-599 862.8966,-572.1697 883.1034,-574.8303 892,-548 905.079,-508.5563 933.5556,-454.5 892,-454.5"/>
<polygon fill="#000000" stroke="#000000" points="844.0561,-715.4417 853.5238,-720.9747 849.0281,-715.9708 854,-716.5 854,-716.5 854,-716.5 849.0281,-715.9708 854.4762,-712.0253 844.0561,-715.4417 844.0561,-715.4417"/>
<text text-anchor="start" x="860.726" y="-726.5" font-family="Arial" font-size="10.00" fill="#000000">FOREIGN KEY (role_id) REFERENCES roles (id)</text>
</g>
</g>
</svg>
