<?xml version="1.0" encoding="UTF-8" standalone="no"?>
<!DOCTYPE svg PUBLIC "-//W3C//DTD SVG 1.1//EN"
 "http://www.w3.org/Graphics/SVG/1.1/DTD/svg11.dtd">
<!-- Generated by graphviz version 2.40.1 (20161225.0304)
 -->
<!-- Title: rights Pages: 1 -->
<svg width="927pt" height="893pt"
 viewBox="0.00 0.00 927.00 893.00" xmlns="http://www.w3.org/2000/svg" xmlns:xlink="http://www.w3.org/1999/xlink">
<g id="graph0" class="graph" transform="scale(1 1) rotate(0) translate(4 889)">
<title>rights</title>
<polygon fill="#ffffff" stroke="transparent" points="-4,4 -4,-889 923,-889 923,4 -4,4"/>
<!-- rights -->
<g id="node1" class="node">
<title>rights</title>
<polygon fill="#efefef" stroke="transparent" points="299,-454.5 299,-489.5 454,-489.5 454,-454.5 299,-454.5"/>
<polygon fill="none" stroke="#000000" points="299,-454.5 299,-489.5 454,-489.5 454,-454.5 299,-454.5"/>
<text text-anchor="start" x="305.8726" y="-467.3" font-family="Arial Bold" font-size="18.00" fill="#000000">rights</text>
<text text-anchor="start" x="349.8736" y="-467.3" font-family="Arial" font-size="14.00" fill="#000000"> </text>
<text text-anchor="start" x="353.7642" y="-467.3" font-family="Arial" font-size="14.00" fill="#666666">[BASE TABLE]</text>
<polygon fill="none" stroke="#000000" points="299,-424.5 299,-454.5 454,-454.5 454,-424.5 299,-424.5"/>
<text text-anchor="start" x="306" y="-435.9" font-family="Arial" font-size="14.00" fill="#000000">id </text>
<text text-anchor="start" x="320.7798" y="-435.9" font-family="Arial" font-size="14.00" fill="#666666">[int]</text>
<polygon fill="none" stroke="#000000" points="299,-394.5 299,-424.5 454,-424.5 454,-394.5 299,-394.5"/>
<text text-anchor="start" x="306" y="-405.9" font-family="Arial" font-size="14.00" fill="#000000">name </text>
<text text-anchor="start" x="344.899" y="-405.9" font-family="Arial" font-size="14.00" fill="#666666">[varchar(255)]</text>
<polygon fill="none" stroke="#000000" points="299,-364.5 299,-394.5 454,-394.5 454,-364.5 299,-364.5"/>
<text text-anchor="start" x="306" y="-375.9" font-family="Arial" font-size="14.00" fill="#000000">created_at </text>
<text text-anchor="start" x="376.028" y="-375.9" font-family="Arial" font-size="14.00" fill="#666666">[datetime]</text>
<polygon fill="none" stroke="#000000" points="299,-334.5 299,-364.5 454,-364.5 454,-334.5 299,-334.5"/>
<text text-anchor="start" x="306" y="-345.9" font-family="Arial" font-size="14.00" fill="#000000">updated_at </text>
<text text-anchor="start" x="379.9326" y="-345.9" font-family="Arial" font-size="14.00" fill="#666666">[datetime]</text>
<polygon fill="none" stroke="#000000" stroke-width="3" points="297,-333.5 297,-491.5 455,-491.5 455,-333.5 297,-333.5"/>
</g>
<!-- right_role_mappings -->
<g id="node2" class="node">
<title>right_role_mappings</title>
<polygon fill="#efefef" stroke="transparent" points="240,-791.5 240,-826.5 514,-826.5 514,-791.5 240,-791.5"/>
<polygon fill="none" stroke="#000000" points="240,-791.5 240,-826.5 514,-826.5 514,-791.5 240,-791.5"/>
<text text-anchor="start" x="246.8583" y="-804.3" font-family="Arial Bold" font-size="18.00" fill="#000000">right_role_mappings</text>
<text text-anchor="start" x="409.8879" y="-804.3" font-family="Arial" font-size="14.00" fill="#000000"> </text>
<text text-anchor="start" x="413.7785" y="-804.3" font-family="Arial" font-size="14.00" fill="#666666">[BASE TABLE]</text>
<polygon fill="none" stroke="#000000" points="240,-761.5 240,-791.5 514,-791.5 514,-761.5 240,-761.5"/>
<text text-anchor="start" x="247" y="-772.9" font-family="Arial" font-size="14.00" fill="#000000">id </text>
<text text-anchor="start" x="261.7798" y="-772.9" font-family="Arial" font-size="14.00" fill="#666666">[int]</text>
<polygon fill="none" stroke="#000000" points="240,-731.5 240,-761.5 514,-761.5 514,-731.5 240,-731.5"/>
<text text-anchor="start" x="247" y="-742.9" font-family="Arial" font-size="14.00" fill="#000000">right_id </text>
<text text-anchor="start" x="296.7854" y="-742.9" font-family="Arial" font-size="14.00" fill="#666666">[int]</text>
<polygon fill="none" stroke="#000000" points="240,-701.5 240,-731.5 514,-731.5 514,-701.5 240,-701.5"/>
<text text-anchor="start" x="247" y="-712.9" font-family="Arial" font-size="14.00" fill="#000000">role_id </text>
<text text-anchor="start" x="292.8948" y="-712.9" font-family="Arial" font-size="14.00" fill="#666666">[int]</text>
<polygon fill="none" stroke="#000000" points="240,-671.5 240,-701.5 514,-701.5 514,-671.5 240,-671.5"/>
<text text-anchor="start" x="247" y="-682.9" font-family="Arial" font-size="14.00" fill="#000000">created_at </text>
<text text-anchor="start" x="317.028" y="-682.9" font-family="Arial" font-size="14.00" fill="#666666">[datetime]</text>
<polygon fill="none" stroke="#000000" points="240,-641.5 240,-671.5 514,-671.5 514,-641.5 240,-641.5"/>
<text text-anchor="start" x="247" y="-652.9" font-family="Arial" font-size="14.00" fill="#000000">updated_at </text>
<text text-anchor="start" x="320.9326" y="-652.9" font-family="Arial" font-size="14.00" fill="#666666">[datetime]</text>
</g>
<!-- right_role_mappings&#45;&gt;rights -->
<g id="edge1" class="edge">
<title>right_role_mappings:right_id&#45;&gt;rights:id</title>
<path fill="none" stroke="#000000" d="M229.7303,-745.6106C177.464,-735.874 202.9567,-648.5205 240,-599 299.3886,-519.6078 394.6114,-615.3922 454,-536 479.6902,-501.6566 496.8889,-439.5 454,-439.5"/>
<polygon fill="#000000" stroke="#000000" points="230.0373,-745.6371 239.6117,-750.9832 235.0186,-746.0686 240,-746.5 240,-746.5 240,-746.5 235.0186,-746.0686 240.3883,-742.0168 230.0373,-745.6371 230.0373,-745.6371"/>
<text text-anchor="start" x="6.947" y="-756.5" font-family="Arial" font-size="10.00" fill="#000000">FOREIGN KEY (right_id) REFERENCES rights (id)</text>
</g>
<!-- roles -->
<g id="node3" class="node">
<title>roles</title>
<polygon fill="#efefef" stroke="transparent" points="606,-469.5 606,-504.5 756,-504.5 756,-469.5 606,-469.5"/>
<polygon fill="none" stroke="#000000" points="606,-469.5 606,-504.5 756,-504.5 756,-469.5 606,-469.5"/>
<text text-anchor="start" x="612.8737" y="-482.3" font-family="Arial Bold" font-size="18.00" fill="#000000">roles</text>
<text text-anchor="start" x="651.8725" y="-482.3" font-family="Arial" font-size="14.00" fill="#000000"> </text>
<text text-anchor="start" x="655.7631" y="-482.3" font-family="Arial" font-size="14.00" fill="#666666">[BASE TABLE]</text>
<polygon fill="none" stroke="#000000" points="606,-439.5 606,-469.5 756,-469.5 756,-439.5 606,-439.5"/>
<text text-anchor="start" x="613" y="-450.9" font-family="Arial" font-size="14.00" fill="#000000">id </text>
<text text-anchor="start" x="627.7798" y="-450.9" font-family="Arial" font-size="14.00" fill="#666666">[int]</text>
<polygon fill="none" stroke="#000000" points="606,-409.5 606,-439.5 756,-439.5 756,-409.5 606,-409.5"/>
<text text-anchor="start" x="613" y="-420.9" font-family="Arial" font-size="14.00" fill="#000000">name </text>
<text text-anchor="start" x="651.899" y="-420.9" font-family="Arial" font-size="14.00" fill="#666666">[varchar(255)]</text>
<polygon fill="none" stroke="#000000" points="606,-379.5 606,-409.5 756,-409.5 756,-379.5 606,-379.5"/>
<text text-anchor="start" x="613" y="-390.9" font-family="Arial" font-size="14.00" fill="#000000">service_plan_id </text>
<text text-anchor="start" x="714.1318" y="-390.9" font-family="Arial" font-size="14.00" fill="#666666">[int]</text>
<polygon fill="none" stroke="#000000" points="606,-349.5 606,-379.5 756,-379.5 756,-349.5 606,-349.5"/>
<text text-anchor="start" x="613" y="-360.9" font-family="Arial" font-size="14.00" fill="#000000">created_at </text>
<text text-anchor="start" x="683.028" y="-360.9" font-family="Arial" font-size="14.00" fill="#666666">[datetime]</text>
<polygon fill="none" stroke="#000000" points="606,-319.5 606,-349.5 756,-349.5 756,-319.5 606,-319.5"/>
<text text-anchor="start" x="613" y="-330.9" font-family="Arial" font-size="14.00" fill="#000000">updated_at </text>
<text text-anchor="start" x="686.9326" y="-330.9" font-family="Arial" font-size="14.00" fill="#666666">[datetime]</text>
</g>
<!-- right_role_mappings&#45;&gt;roles -->
<g id="edge2" class="edge">
<title>right_role_mappings:role_id&#45;&gt;roles:id</title>
<path fill="none" stroke="#000000" d="M524.1445,-715.8385C628.5816,-701.3733 486.2009,-454.5 606,-454.5"/>
<polygon fill="#000000" stroke="#000000" points="523.9788,-715.8493 513.7072,-712.0095 518.9894,-716.1746 514,-716.5 514,-716.5 514,-716.5 518.9894,-716.1746 514.2928,-720.9905 523.9788,-715.8493 523.9788,-715.8493"/>
<text text-anchor="start" x="520.726" y="-726.5" font-family="Arial" font-size="10.00" fill="#000000">FOREIGN KEY (role_id) REFERENCES roles (id)</text>
</g>
<!-- service_plans -->
<g id="node5" class="node">
<title>service_plans</title>
<polygon fill="#efefef" stroke="transparent" points="570,-162.5 570,-197.5 791,-197.5 791,-162.5 570,-162.5"/>
<polygon fill="none" stroke="#000000" points="570,-162.5 570,-197.5 791,-197.5 791,-162.5 570,-162.5"/>
<text text-anchor="start" x="576.8642" y="-175.3" font-family="Arial Bold" font-size="18.00" fill="#000000">service_plans</text>
<text text-anchor="start" x="686.882" y="-175.3" font-family="Arial" font-size="14.00" fill="#000000"> </text>
<text text-anchor="start" x="690.7726" y="-175.3" font-family="Arial" font-size="14.00" fill="#666666">[BASE TABLE]</text>
<polygon fill="none" stroke="#000000" points="570,-132.5 570,-162.5 791,-162.5 791,-132.5 570,-132.5"/>
<text text-anchor="start" x="577" y="-143.9" font-family="Arial" font-size="14.00" fill="#000000">id </text>
<text text-anchor="start" x="591.7798" y="-143.9" font-family="Arial" font-size="14.00" fill="#666666">[int]</text>
<polygon fill="none" stroke="#000000" points="570,-102.5 570,-132.5 791,-132.5 791,-102.5 570,-102.5"/>
<text text-anchor="start" x="577" y="-113.9" font-family="Arial" font-size="14.00" fill="#000000">name </text>
<text text-anchor="start" x="615.899" y="-113.9" font-family="Arial" font-size="14.00" fill="#666666">[varchar(255)]</text>
<polygon fill="none" stroke="#000000" points="570,-72.5 570,-102.5 791,-102.5 791,-72.5 570,-72.5"/>
<text text-anchor="start" x="577" y="-83.9" font-family="Arial" font-size="14.00" fill="#000000">created_at </text>
<text text-anchor="start" x="647.028" y="-83.9" font-family="Arial" font-size="14.00" fill="#666666">[datetime]</text>
<polygon fill="none" stroke="#000000" points="570,-42.5 570,-72.5 791,-72.5 791,-42.5 570,-42.5"/>
<text text-anchor="start" x="577" y="-53.9" font-family="Arial" font-size="14.00" fill="#000000">updated_at </text>
<text text-anchor="start" x="650.9326" y="-53.9" font-family="Arial" font-size="14.00" fill="#666666">[datetime]</text>
</g>
<!-- roles&#45;&gt;service_plans -->
<g id="edge4" class="edge">
<title>roles:service_plan_id&#45;&gt;service_plans:id</title>
<path fill="none" stroke="#000000" d="M596.021,-393.3947C556.5211,-383.8261 575.122,-314.4658 606,-277 659.2741,-212.3597 737.7259,-305.6403 791,-241 817.4293,-208.932 832.5556,-147.5 791,-147.5"/>
<polygon fill="#000000" stroke="#000000" points="596.0608,-393.399 605.5045,-398.9726 601.0304,-393.9495 606,-394.5 606,-394.5 606,-394.5 601.0304,-393.9495 606.4955,-390.0274 596.0608,-393.399 596.0608,-393.399"/>
<text text-anchor="start" x="613.271" y="-404.5" font-family="Arial" font-size="10.00" fill="#000000">FOREIGN KEY (service_plan_id) REFERENCES service_plans (id)</text>
</g>
<!-- tenant_users -->
<g id="node4" class="node">
<title>tenant_users</title>
<polygon fill="#efefef" stroke="transparent" points="619,-806.5 619,-841.5 834,-841.5 834,-806.5 619,-806.5"/>
<polygon fill="none" stroke="#000000" points="619,-806.5 619,-841.5 834,-841.5 834,-806.5 619,-806.5"/>
<text text-anchor="start" x="625.8531" y="-819.3" font-family="Arial Bold" font-size="18.00" fill="#000000">tenant_users</text>
<text text-anchor="start" x="729.8931" y="-819.3" font-family="Arial" font-size="14.00" fill="#000000"> </text>
<text text-anchor="start" x="733.7837" y="-819.3" font-family="Arial" font-size="14.00" fill="#666666">[BASE TABLE]</text>
<polygon fill="none" stroke="#000000" points="619,-776.5 619,-806.5 834,-806.5 834,-776.5 619,-776.5"/>
<text text-anchor="start" x="626" y="-787.9" font-family="Arial" font-size="14.00" fill="#000000">id </text>
<text text-anchor="start" x="640.7798" y="-787.9" font-family="Arial" font-size="14.00" fill="#666666">[varchar(36)]</text>
<polygon fill="none" stroke="#000000" points="619,-746.5 619,-776.5 834,-776.5 834,-746.5 619,-746.5"/>
<text text-anchor="start" x="626" y="-757.9" font-family="Arial" font-size="14.00" fill="#000000">name </text>
<text text-anchor="start" x="664.899" y="-757.9" font-family="Arial" font-size="14.00" fill="#666666">[varchar(255)]</text>
<polygon fill="none" stroke="#000000" points="619,-716.5 619,-746.5 834,-746.5 834,-716.5 619,-716.5"/>
<text text-anchor="start" x="626" y="-727.9" font-family="Arial" font-size="14.00" fill="#000000">tenant_id </text>
<text text-anchor="start" x="687.474" y="-727.9" font-family="Arial" font-size="14.00" fill="#666666">[varchar(36)]</text>
<polygon fill="none" stroke="#000000" points="619,-686.5 619,-716.5 834,-716.5 834,-686.5 619,-686.5"/>
<text text-anchor="start" x="626" y="-697.9" font-family="Arial" font-size="14.00" fill="#000000">role_id </text>
<text text-anchor="start" x="671.8948" y="-697.9" font-family="Arial" font-size="14.00" fill="#666666">[int]</text>
<polygon fill="none" stroke="#000000" points="619,-656.5 619,-686.5 834,-686.5 834,-656.5 619,-656.5"/>
<text text-anchor="start" x="626" y="-667.9" font-family="Arial" font-size="14.00" fill="#000000">created_at </text>
<text text-anchor="start" x="696.028" y="-667.9" font-family="Arial" font-size="14.00" fill="#666666">[datetime]</text>
<polygon fill="none" stroke="#000000" points="619,-626.5 619,-656.5 834,-656.5 834,-626.5 619,-626.5"/>
<text text-anchor="start" x="626" y="-637.9" font-family="Arial" font-size="14.00" fill="#000000">updated_at </text>
<text text-anchor="start" x="699.9326" y="-637.9" font-family="Arial" font-size="14.00" fill="#666666">[datetime]</text>
</g>
<!-- tenant_users&#45;&gt;roles -->
<g id="edge3" class="edge">
<title>tenant_users:role_id&#45;&gt;roles:id</title>
<path fill="none" stroke="#000000" d="M609.0393,-700.4092C569.694,-690.9639 589.3514,-622.446 619,-584 657.4458,-534.1465 717.5542,-597.8535 756,-548 781.377,-515.093 797.5556,-454.5 756,-454.5"/>
<polygon fill="#000000" stroke="#000000" points="609.0594,-700.4113 618.5101,-705.9733 614.0297,-700.9557 619,-701.5 619,-701.5 619,-701.5 614.0297,-700.9557 619.4899,-697.0267 609.0594,-700.4113 609.0594,-700.4113"/>
<text text-anchor="start" x="567.226" y="-685.5" font-family="Arial" font-size="10.00" fill="#000000">FOREIGN KEY (role_id) REFERENCES roles (id)</text>
</g>
</g>
</svg>
