<?xml version="1.0" encoding="UTF-8" standalone="no"?>
<!DOCTYPE svg PUBLIC "-//W3C//DTD SVG 1.1//EN"
 "http://www.w3.org/Graphics/SVG/1.1/DTD/svg11.dtd">
<!-- Generated by graphviz version 2.40.1 (20161225.0304)
 -->
<!-- Title: right_role_mappings Pages: 1 -->
<svg width="1279pt" height="1260pt"
 viewBox="0.00 0.00 1279.00 1260.00" xmlns="http://www.w3.org/2000/svg" xmlns:xlink="http://www.w3.org/1999/xlink">
<g id="graph0" class="graph" transform="scale(1 1) rotate(0) translate(4 1256)">
<title>right_role_mappings</title>
<polygon fill="#ffffff" stroke="transparent" points="-4,4 -4,-1256 1275,-1256 1275,4 -4,4"/>
<!-- right_role_mappings -->
<g id="node1" class="node">
<title>right_role_mappings</title>
<polygon fill="#efefef" stroke="transparent" points="240,-791.5 240,-826.5 514,-826.5 514,-791.5 240,-791.5"/>
<polygon fill="none" stroke="#000000" points="240,-791.5 240,-826.5 514,-826.5 514,-791.5 240,-791.5"/>
<text text-anchor="start" x="246.8583" y="-804.3" font-family="Arial Bold" font-size="18.00" fill="#000000">right_role_mappings</text>
<text text-anchor="start" x="409.8879" y="-804.3" font-family="Arial" font-size="14.00" fill="#000000"> </text>
<text text-anchor="start" x="413.7785" y="-804.3" font-family="Arial" font-size="14.00" fill="#666666">[BASE TABLE]</text>
<polygon fill="none" stroke="#000000" points="240,-761.5 240,-791.5 514,-791.5 514,-761.5 240,-761.5"/>
<text text-anchor="start" x="247" y="-772.9" font-family="Arial" font-size="14.00" fill="#000000">id </text>
<text text-anchor="start" x="261.7798" y="-772.9" font-family="Arial" font-size="14.00" fill="#666666">[int]</text>
<polygon fill="none" stroke="#000000" points="240,-731.5 240,-761.5 514,-761.5 514,-731.5 240,-731.5"/>
<text text-anchor="start" x="247" y="-742.9" font-family="Arial" font-size="14.00" fill="#000000">right_id </text>
<text text-anchor="start" x="296.7854" y="-742.9" font-family="Arial" font-size="14.00" fill="#666666">[int]</text>
<polygon fill="none" stroke="#000000" points="240,-701.5 240,-731.5 514,-731.5 514,-701.5 240,-701.5"/>
<text text-anchor="start" x="247" y="-712.9" font-family="Arial" font-size="14.00" fill="#000000">role_id </text>
<text text-anchor="start" x="292.8948" y="-712.9" font-family="Arial" font-size="14.00" fill="#666666">[int]</text>
<polygon fill="none" stroke="#000000" points="240,-671.5 240,-701.5 514,-701.5 514,-671.5 240,-671.5"/>
<text text-anchor="start" x="247" y="-682.9" font-family="Arial" font-size="14.00" fill="#000000">created_at </text>
<text text-anchor="start" x="317.028" y="-682.9" font-family="Arial" font-size="14.00" fill="#666666">[datetime]</text>
<polygon fill="none" stroke="#000000" points="240,-641.5 240,-671.5 514,-671.5 514,-641.5 240,-641.5"/>
<text text-anchor="start" x="247" y="-652.9" font-family="Arial" font-size="14.00" fill="#000000">updated_at </text>
<text text-anchor="start" x="320.9326" y="-652.9" font-family="Arial" font-size="14.00" fill="#666666">[datetime]</text>
<polygon fill="none" stroke="#000000" stroke-width="3" points="238.5,-640.5 238.5,-828.5 515.5,-828.5 515.5,-640.5 238.5,-640.5"/>
</g>
<!-- rights -->
<g id="node2" class="node">
<title>rights</title>
<polygon fill="#efefef" stroke="transparent" points="216,-454.5 216,-489.5 371,-489.5 371,-454.5 216,-454.5"/>
<polygon fill="none" stroke="#000000" points="216,-454.5 216,-489.5 371,-489.5 371,-454.5 216,-454.5"/>
<text text-anchor="start" x="222.8726" y="-467.3" font-family="Arial Bold" font-size="18.00" fill="#000000">rights</text>
<text text-anchor="start" x="266.8736" y="-467.3" font-family="Arial" font-size="14.00" fill="#000000"> </text>
<text text-anchor="start" x="270.7642" y="-467.3" font-family="Arial" font-size="14.00" fill="#666666">[BASE TABLE]</text>
<polygon fill="none" stroke="#000000" points="216,-424.5 216,-454.5 371,-454.5 371,-424.5 216,-424.5"/>
<text text-anchor="start" x="223" y="-435.9" font-family="Arial" font-size="14.00" fill="#000000">id </text>
<text text-anchor="start" x="237.7798" y="-435.9" font-family="Arial" font-size="14.00" fill="#666666">[int]</text>
<polygon fill="none" stroke="#000000" points="216,-394.5 216,-424.5 371,-424.5 371,-394.5 216,-394.5"/>
<text text-anchor="start" x="223" y="-405.9" font-family="Arial" font-size="14.00" fill="#000000">name </text>
<text text-anchor="start" x="261.899" y="-405.9" font-family="Arial" font-size="14.00" fill="#666666">[varchar(255)]</text>
<polygon fill="none" stroke="#000000" points="216,-364.5 216,-394.5 371,-394.5 371,-364.5 216,-364.5"/>
<text text-anchor="start" x="223" y="-375.9" font-family="Arial" font-size="14.00" fill="#000000">created_at </text>
<text text-anchor="start" x="293.028" y="-375.9" font-family="Arial" font-size="14.00" fill="#666666">[datetime]</text>
<polygon fill="none" stroke="#000000" points="216,-334.5 216,-364.5 371,-364.5 371,-334.5 216,-334.5"/>
<text text-anchor="start" x="223" y="-345.9" font-family="Arial" font-size="14.00" fill="#000000">updated_at </text>
<text text-anchor="start" x="296.9326" y="-345.9" font-family="Arial" font-size="14.00" fill="#666666">[datetime]</text>
</g>
<!-- right_role_mappings&#45;&gt;rights -->
<g id="edge1" class="edge">
<title>right_role_mappings:right_id&#45;&gt;rights:id</title>
<path fill="none" stroke="#000000" d="M229.8915,-745.6792C176.546,-736.344 206.3448,-649.5301 240,-596 274.3866,-541.3064 336.6134,-587.6936 371,-533 393.1183,-497.8198 412.5556,-439.5 371,-439.5"/>
<polygon fill="#000000" stroke="#000000" points="230.0328,-745.6906 239.6358,-750.9852 235.0164,-746.0953 240,-746.5 240,-746.5 240,-746.5 235.0164,-746.0953 240.3642,-742.0148 230.0328,-745.6906 230.0328,-745.6906"/>
<text text-anchor="start" x="6.947" y="-756.5" font-family="Arial" font-size="10.00" fill="#000000">FOREIGN KEY (right_id) REFERENCES rights (id)</text>
</g>
<!-- roles -->
<g id="node3" class="node">
<title>roles</title>
<polygon fill="#efefef" stroke="transparent" points="475,-469.5 475,-504.5 625,-504.5 625,-469.5 475,-469.5"/>
<polygon fill="none" stroke="#000000" points="475,-469.5 475,-504.5 625,-504.5 625,-469.5 475,-469.5"/>
<text text-anchor="start" x="481.8737" y="-482.3" font-family="Arial Bold" font-size="18.00" fill="#000000">roles</text>
<text text-anchor="start" x="520.8725" y="-482.3" font-family="Arial" font-size="14.00" fill="#000000"> </text>
<text text-anchor="start" x="524.7631" y="-482.3" font-family="Arial" font-size="14.00" fill="#666666">[BASE TABLE]</text>
<polygon fill="none" stroke="#000000" points="475,-439.5 475,-469.5 625,-469.5 625,-439.5 475,-439.5"/>
<text text-anchor="start" x="482" y="-450.9" font-family="Arial" font-size="14.00" fill="#000000">id </text>
<text text-anchor="start" x="496.7798" y="-450.9" font-family="Arial" font-size="14.00" fill="#666666">[int]</text>
<polygon fill="none" stroke="#000000" points="475,-409.5 475,-439.5 625,-439.5 625,-409.5 475,-409.5"/>
<text text-anchor="start" x="482" y="-420.9" font-family="Arial" font-size="14.00" fill="#000000">name </text>
<text text-anchor="start" x="520.899" y="-420.9" font-family="Arial" font-size="14.00" fill="#666666">[varchar(255)]</text>
<polygon fill="none" stroke="#000000" points="475,-379.5 475,-409.5 625,-409.5 625,-379.5 475,-379.5"/>
<text text-anchor="start" x="482" y="-390.9" font-family="Arial" font-size="14.00" fill="#000000">service_plan_id </text>
<text text-anchor="start" x="583.1318" y="-390.9" font-family="Arial" font-size="14.00" fill="#666666">[int]</text>
<polygon fill="none" stroke="#000000" points="475,-349.5 475,-379.5 625,-379.5 625,-349.5 475,-349.5"/>
<text text-anchor="start" x="482" y="-360.9" font-family="Arial" font-size="14.00" fill="#000000">created_at </text>
<text text-anchor="start" x="552.028" y="-360.9" font-family="Arial" font-size="14.00" fill="#666666">[datetime]</text>
<polygon fill="none" stroke="#000000" points="475,-319.5 475,-349.5 625,-349.5 625,-319.5 475,-319.5"/>
<text text-anchor="start" x="482" y="-330.9" font-family="Arial" font-size="14.00" fill="#000000">updated_at </text>
<text text-anchor="start" x="555.9326" y="-330.9" font-family="Arial" font-size="14.00" fill="#666666">[datetime]</text>
</g>
<!-- right_role_mappings&#45;&gt;roles -->
<g id="edge2" class="edge">
<title>right_role_mappings:role_id&#45;&gt;roles:id</title>
<path fill="none" stroke="#000000" d="M524.0112,-715.4925C562.6317,-706.7486 530.6587,-642.9204 514,-596 504.8033,-570.0968 484.1967,-573.9032 475,-548 461.0964,-508.8394 433.4444,-454.5 475,-454.5"/>
<polygon fill="#000000" stroke="#000000" points="523.9497,-715.4986 513.5494,-712.0226 518.9749,-715.9993 514,-716.5 514,-716.5 514,-716.5 518.9749,-715.9993 514.4506,-720.9774 523.9497,-715.4986 523.9497,-715.4986"/>
<text text-anchor="start" x="520.726" y="-726.5" font-family="Arial" font-size="10.00" fill="#000000">FOREIGN KEY (role_id) REFERENCES roles (id)</text>
</g>
<!-- service_plans -->
<g id="node9" class="node">
<title>service_plans</title>
<polygon fill="#efefef" stroke="transparent" points="571,-162.5 571,-197.5 792,-197.5 792,-162.5 571,-162.5"/>
<polygon fill="none" stroke="#000000" points="571,-162.5 571,-197.5 792,-197.5 792,-162.5 571,-162.5"/>
<text text-anchor="start" x="577.8642" y="-175.3" font-family="Arial Bold" font-size="18.00" fill="#000000">service_plans</text>
<text text-anchor="start" x="687.882" y="-175.3" font-family="Arial" font-size="14.00" fill="#000000"> </text>
<text text-anchor="start" x="691.7726" y="-175.3" font-family="Arial" font-size="14.00" fill="#666666">[BASE TABLE]</text>
<polygon fill="none" stroke="#000000" points="571,-132.5 571,-162.5 792,-162.5 792,-132.5 571,-132.5"/>
<text text-anchor="start" x="578" y="-143.9" font-family="Arial" font-size="14.00" fill="#000000">id </text>
<text text-anchor="start" x="592.7798" y="-143.9" font-family="Arial" font-size="14.00" fill="#666666">[int]</text>
<polygon fill="none" stroke="#000000" points="571,-102.5 571,-132.5 792,-132.5 792,-102.5 571,-102.5"/>
<text text-anchor="start" x="578" y="-113.9" font-family="Arial" font-size="14.00" fill="#000000">name </text>
<text text-anchor="start" x="616.899" y="-113.9" font-family="Arial" font-size="14.00" fill="#666666">[varchar(255)]</text>
<polygon fill="none" stroke="#000000" points="571,-72.5 571,-102.5 792,-102.5 792,-72.5 571,-72.5"/>
<text text-anchor="start" x="578" y="-83.9" font-family="Arial" font-size="14.00" fill="#000000">created_at </text>
<text text-anchor="start" x="648.028" y="-83.9" font-family="Arial" font-size="14.00" fill="#666666">[datetime]</text>
<polygon fill="none" stroke="#000000" points="571,-42.5 571,-72.5 792,-72.5 792,-42.5 571,-42.5"/>
<text text-anchor="start" x="578" y="-53.9" font-family="Arial" font-size="14.00" fill="#000000">updated_at </text>
<text text-anchor="start" x="651.9326" y="-53.9" font-family="Arial" font-size="14.00" fill="#666666">[datetime]</text>
</g>
<!-- roles&#45;&gt;service_plans -->
<g id="edge8" class="edge">
<title>roles:service_plan_id&#45;&gt;service_plans:id</title>
<path fill="none" stroke="#000000" d="M635.3427,-393.3588C673.1444,-384.0331 647.8126,-319.6258 625,-277 611.3895,-251.5686 584.6105,-266.4314 571,-241 551.3917,-204.3615 529.4444,-147.5 571,-147.5"/>
<polygon fill="#000000" stroke="#000000" points="634.9397,-393.4031 624.5064,-390.0271 629.9698,-393.9516 625,-394.5 625,-394.5 625,-394.5 629.9698,-393.9516 625.4936,-398.9729 634.9397,-393.4031 634.9397,-393.4031"/>
<text text-anchor="start" x="475.771" y="-378.5" font-family="Arial" font-size="10.00" fill="#000000">FOREIGN KEY (service_plan_id) REFERENCES service_plans (id)</text>
</g>
<!-- tenant_users -->
<g id="node4" class="node">
<title>tenant_users</title>
<polygon fill="#efefef" stroke="transparent" points="664,-806.5 664,-841.5 879,-841.5 879,-806.5 664,-806.5"/>
<polygon fill="none" stroke="#000000" points="664,-806.5 664,-841.5 879,-841.5 879,-806.5 664,-806.5"/>
<text text-anchor="start" x="670.8531" y="-819.3" font-family="Arial Bold" font-size="18.00" fill="#000000">tenant_users</text>
<text text-anchor="start" x="774.8931" y="-819.3" font-family="Arial" font-size="14.00" fill="#000000"> </text>
<text text-anchor="start" x="778.7837" y="-819.3" font-family="Arial" font-size="14.00" fill="#666666">[BASE TABLE]</text>
<polygon fill="none" stroke="#000000" points="664,-776.5 664,-806.5 879,-806.5 879,-776.5 664,-776.5"/>
<text text-anchor="start" x="671" y="-787.9" font-family="Arial" font-size="14.00" fill="#000000">id </text>
<text text-anchor="start" x="685.7798" y="-787.9" font-family="Arial" font-size="14.00" fill="#666666">[varchar(36)]</text>
<polygon fill="none" stroke="#000000" points="664,-746.5 664,-776.5 879,-776.5 879,-746.5 664,-746.5"/>
<text text-anchor="start" x="671" y="-757.9" font-family="Arial" font-size="14.00" fill="#000000">name </text>
<text text-anchor="start" x="709.899" y="-757.9" font-family="Arial" font-size="14.00" fill="#666666">[varchar(255)]</text>
<polygon fill="none" stroke="#000000" points="664,-716.5 664,-746.5 879,-746.5 879,-716.5 664,-716.5"/>
<text text-anchor="start" x="671" y="-727.9" font-family="Arial" font-size="14.00" fill="#000000">tenant_id </text>
<text text-anchor="start" x="732.474" y="-727.9" font-family="Arial" font-size="14.00" fill="#666666">[varchar(36)]</text>
<polygon fill="none" stroke="#000000" points="664,-686.5 664,-716.5 879,-716.5 879,-686.5 664,-686.5"/>
<text text-anchor="start" x="671" y="-697.9" font-family="Arial" font-size="14.00" fill="#000000">role_id </text>
<text text-anchor="start" x="716.8948" y="-697.9" font-family="Arial" font-size="14.00" fill="#666666">[int]</text>
<polygon fill="none" stroke="#000000" points="664,-656.5 664,-686.5 879,-686.5 879,-656.5 664,-656.5"/>
<text text-anchor="start" x="671" y="-667.9" font-family="Arial" font-size="14.00" fill="#000000">created_at </text>
<text text-anchor="start" x="741.028" y="-667.9" font-family="Arial" font-size="14.00" fill="#666666">[datetime]</text>
<polygon fill="none" stroke="#000000" points="664,-626.5 664,-656.5 879,-656.5 879,-626.5 664,-626.5"/>
<text text-anchor="start" x="671" y="-637.9" font-family="Arial" font-size="14.00" fill="#000000">updated_at </text>
<text text-anchor="start" x="744.9326" y="-637.9" font-family="Arial" font-size="14.00" fill="#666666">[datetime]</text>
</g>
<!-- tenant_users&#45;&gt;roles -->
<g id="edge3" class="edge">
<title>tenant_users:role_id&#45;&gt;roles:id</title>
<path fill="none" stroke="#000000" d="M653.8818,-700.7012C564.7083,-685.37 732.4477,-454.5 625,-454.5"/>
<polygon fill="#000000" stroke="#000000" points="654.031,-700.7129 663.6458,-705.986 659.0155,-701.1064 664,-701.5 664,-701.5 664,-701.5 659.0155,-701.1064 664.3542,-697.014 654.031,-700.7129 654.031,-700.7129"/>
<text text-anchor="start" x="495.226" y="-685.5" font-family="Arial" font-size="10.00" fill="#000000">FOREIGN KEY (role_id) REFERENCES roles (id)</text>
</g>
<!-- tenants -->
<g id="node8" class="node">
<title>tenants</title>
<polygon fill="#efefef" stroke="transparent" points="729,-469.5 729,-504.5 899,-504.5 899,-469.5 729,-469.5"/>
<polygon fill="none" stroke="#000000" points="729,-469.5 729,-504.5 899,-504.5 899,-469.5 729,-469.5"/>
<text text-anchor="start" x="735.8585" y="-482.3" font-family="Arial Bold" font-size="18.00" fill="#000000">tenants</text>
<text text-anchor="start" x="794.8877" y="-482.3" font-family="Arial" font-size="14.00" fill="#000000"> </text>
<text text-anchor="start" x="798.7783" y="-482.3" font-family="Arial" font-size="14.00" fill="#666666">[BASE TABLE]</text>
<polygon fill="none" stroke="#000000" points="729,-439.5 729,-469.5 899,-469.5 899,-439.5 729,-439.5"/>
<text text-anchor="start" x="736" y="-450.9" font-family="Arial" font-size="14.00" fill="#000000">id </text>
<text text-anchor="start" x="750.7798" y="-450.9" font-family="Arial" font-size="14.00" fill="#666666">[varchar(36)]</text>
<polygon fill="none" stroke="#000000" points="729,-409.5 729,-439.5 899,-439.5 899,-409.5 729,-409.5"/>
<text text-anchor="start" x="736" y="-420.9" font-family="Arial" font-size="14.00" fill="#000000">name </text>
<text text-anchor="start" x="774.899" y="-420.9" font-family="Arial" font-size="14.00" fill="#666666">[varchar(255)]</text>
<polygon fill="none" stroke="#000000" points="729,-379.5 729,-409.5 899,-409.5 899,-379.5 729,-379.5"/>
<text text-anchor="start" x="736" y="-390.9" font-family="Arial" font-size="14.00" fill="#000000">service_plan_id </text>
<text text-anchor="start" x="837.1318" y="-390.9" font-family="Arial" font-size="14.00" fill="#666666">[int]</text>
<polygon fill="none" stroke="#000000" points="729,-349.5 729,-379.5 899,-379.5 899,-349.5 729,-349.5"/>
<text text-anchor="start" x="736" y="-360.9" font-family="Arial" font-size="14.00" fill="#000000">created_at </text>
<text text-anchor="start" x="806.028" y="-360.9" font-family="Arial" font-size="14.00" fill="#666666">[datetime]</text>
<polygon fill="none" stroke="#000000" points="729,-319.5 729,-349.5 899,-349.5 899,-319.5 729,-319.5"/>
<text text-anchor="start" x="736" y="-330.9" font-family="Arial" font-size="14.00" fill="#000000">updated_at </text>
<text text-anchor="start" x="809.9326" y="-330.9" font-family="Arial" font-size="14.00" fill="#666666">[datetime]</text>
</g>
<!-- tenant_users&#45;&gt;tenants -->
<g id="edge7" class="edge">
<title>tenant_users:tenant_id&#45;&gt;tenants:id</title>
<path fill="none" stroke="#000000" d="M889.2817,-730.6014C941.677,-720.7657 917.2881,-632.5645 879,-584 836.553,-530.1604 771.447,-601.8396 729,-548 703.272,-515.3667 687.4444,-454.5 729,-454.5"/>
<polygon fill="#000000" stroke="#000000" points="888.962,-730.6293 878.6082,-727.0171 883.981,-731.0646 879,-731.5 879,-731.5 879,-731.5 883.981,-731.0646 879.3918,-735.9829 888.962,-730.6293 888.962,-730.6293"/>
<text text-anchor="start" x="885.598" y="-741.5" font-family="Arial" font-size="10.00" fill="#000000">FOREIGN KEY (tenant_id) REFERENCES tenants (id)</text>
</g>
<!-- post_comments -->
<g id="node5" class="node">
<title>post_comments</title>
<polygon fill="#efefef" stroke="transparent" points="333,-1158.5 333,-1193.5 571,-1193.5 571,-1158.5 333,-1158.5"/>
<polygon fill="none" stroke="#000000" points="333,-1158.5 333,-1193.5 571,-1193.5 571,-1158.5 333,-1158.5"/>
<text text-anchor="start" x="339.8601" y="-1171.3" font-family="Arial Bold" font-size="18.00" fill="#000000">post_comments</text>
<text text-anchor="start" x="466.8861" y="-1171.3" font-family="Arial" font-size="14.00" fill="#000000"> </text>
<text text-anchor="start" x="470.7767" y="-1171.3" font-family="Arial" font-size="14.00" fill="#666666">[BASE TABLE]</text>
<polygon fill="none" stroke="#000000" points="333,-1128.5 333,-1158.5 571,-1158.5 571,-1128.5 333,-1128.5"/>
<text text-anchor="start" x="340" y="-1139.9" font-family="Arial" font-size="14.00" fill="#000000">id </text>
<text text-anchor="start" x="354.7798" y="-1139.9" font-family="Arial" font-size="14.00" fill="#666666">[bigint]</text>
<polygon fill="none" stroke="#000000" points="333,-1098.5 333,-1128.5 571,-1128.5 571,-1098.5 333,-1098.5"/>
<text text-anchor="start" x="340" y="-1109.9" font-family="Arial" font-size="14.00" fill="#000000">post_id </text>
<text text-anchor="start" x="389.0182" y="-1109.9" font-family="Arial" font-size="14.00" fill="#666666">[bigint]</text>
<polygon fill="none" stroke="#000000" points="333,-1068.5 333,-1098.5 571,-1098.5 571,-1068.5 333,-1068.5"/>
<text text-anchor="start" x="340" y="-1079.9" font-family="Arial" font-size="14.00" fill="#000000">tenant_user_id </text>
<text text-anchor="start" x="436.4824" y="-1079.9" font-family="Arial" font-size="14.00" fill="#666666">[varchar(36)]</text>
<polygon fill="none" stroke="#000000" points="333,-1038.5 333,-1068.5 571,-1068.5 571,-1038.5 333,-1038.5"/>
<text text-anchor="start" x="340" y="-1049.9" font-family="Arial" font-size="14.00" fill="#000000">comment </text>
<text text-anchor="start" x="401.4502" y="-1049.9" font-family="Arial" font-size="14.00" fill="#666666">[varchar(255)]</text>
<polygon fill="none" stroke="#000000" points="333,-1008.5 333,-1038.5 571,-1038.5 571,-1008.5 333,-1008.5"/>
<text text-anchor="start" x="340" y="-1019.9" font-family="Arial" font-size="14.00" fill="#000000">created_at </text>
<text text-anchor="start" x="410.028" y="-1019.9" font-family="Arial" font-size="14.00" fill="#666666">[datetime]</text>
<polygon fill="none" stroke="#000000" points="333,-978.5 333,-1008.5 571,-1008.5 571,-978.5 333,-978.5"/>
<text text-anchor="start" x="340" y="-989.9" font-family="Arial" font-size="14.00" fill="#000000">updated_at </text>
<text text-anchor="start" x="413.9326" y="-989.9" font-family="Arial" font-size="14.00" fill="#666666">[datetime]</text>
</g>
<!-- post_comments&#45;&gt;tenant_users -->
<g id="edge4" class="edge">
<title>post_comments:tenant_user_id&#45;&gt;tenant_users:id</title>
<path fill="none" stroke="#000000" d="M580.8778,-1081.1496C634.8537,-1053.5152 599.4907,-791.5 664,-791.5"/>
<polygon fill="#000000" stroke="#000000" points="580.7284,-1081.185 569.9583,-1079.1222 575.8642,-1082.3425 571,-1083.5 571,-1083.5 571,-1083.5 575.8642,-1082.3425 572.0417,-1087.8778 580.7284,-1081.185 580.7284,-1081.185"/>
<text text-anchor="start" x="271.592" y="-1093.5" font-family="Arial" font-size="10.00" fill="#000000">FOREIGN KEY (tenant_user_id) REFERENCES tenant_users (id)</text>
</g>
<!-- post_likes -->
<g id="node6" class="node">
<title>post_likes</title>
<polygon fill="#efefef" stroke="transparent" points="676,-1143.5 676,-1178.5 867,-1178.5 867,-1143.5 676,-1143.5"/>
<polygon fill="none" stroke="#000000" points="676,-1143.5 676,-1178.5 867,-1178.5 867,-1143.5 676,-1143.5"/>
<text text-anchor="start" x="682.8654" y="-1156.3" font-family="Arial Bold" font-size="18.00" fill="#000000">post_likes</text>
<text text-anchor="start" x="762.8808" y="-1156.3" font-family="Arial" font-size="14.00" fill="#000000"> </text>
<text text-anchor="start" x="766.7714" y="-1156.3" font-family="Arial" font-size="14.00" fill="#666666">[BASE TABLE]</text>
<polygon fill="none" stroke="#000000" points="676,-1113.5 676,-1143.5 867,-1143.5 867,-1113.5 676,-1113.5"/>
<text text-anchor="start" x="683" y="-1124.9" font-family="Arial" font-size="14.00" fill="#000000">id </text>
<text text-anchor="start" x="697.7798" y="-1124.9" font-family="Arial" font-size="14.00" fill="#666666">[bigint]</text>
<polygon fill="none" stroke="#000000" points="676,-1083.5 676,-1113.5 867,-1113.5 867,-1083.5 676,-1083.5"/>
<text text-anchor="start" x="683" y="-1094.9" font-family="Arial" font-size="14.00" fill="#000000">post_id </text>
<text text-anchor="start" x="732.0182" y="-1094.9" font-family="Arial" font-size="14.00" fill="#666666">[bigint]</text>
<polygon fill="none" stroke="#000000" points="676,-1053.5 676,-1083.5 867,-1083.5 867,-1053.5 676,-1053.5"/>
<text text-anchor="start" x="683" y="-1064.9" font-family="Arial" font-size="14.00" fill="#000000">tenant_user_id </text>
<text text-anchor="start" x="779.4824" y="-1064.9" font-family="Arial" font-size="14.00" fill="#666666">[varchar(36)]</text>
<polygon fill="none" stroke="#000000" points="676,-1023.5 676,-1053.5 867,-1053.5 867,-1023.5 676,-1023.5"/>
<text text-anchor="start" x="683" y="-1034.9" font-family="Arial" font-size="14.00" fill="#000000">created_at </text>
<text text-anchor="start" x="753.028" y="-1034.9" font-family="Arial" font-size="14.00" fill="#666666">[datetime]</text>
<polygon fill="none" stroke="#000000" points="676,-993.5 676,-1023.5 867,-1023.5 867,-993.5 676,-993.5"/>
<text text-anchor="start" x="683" y="-1004.9" font-family="Arial" font-size="14.00" fill="#000000">updated_at </text>
<text text-anchor="start" x="756.9326" y="-1004.9" font-family="Arial" font-size="14.00" fill="#666666">[datetime]</text>
</g>
<!-- post_likes&#45;&gt;tenant_users -->
<g id="edge5" class="edge">
<title>post_likes:tenant_user_id&#45;&gt;tenant_users:id</title>
<path fill="none" stroke="#000000" d="M666.0124,-1065.9347C613.2635,-1038.0098 605.8765,-791.5 664,-791.5"/>
<polygon fill="#000000" stroke="#000000" points="666.3144,-1066.0122 674.8805,-1072.8585 671.1572,-1067.2561 676,-1068.5 676,-1068.5 676,-1068.5 671.1572,-1067.2561 677.1195,-1064.1415 666.3144,-1066.0122 666.3144,-1066.0122"/>
<text text-anchor="start" x="682.592" y="-1078.5" font-family="Arial" font-size="10.00" fill="#000000">FOREIGN KEY (tenant_user_id) REFERENCES tenant_users (id)</text>
</g>
<!-- posts -->
<g id="node7" class="node">
<title>posts</title>
<polygon fill="#efefef" stroke="transparent" points="971,-1173.5 971,-1208.5 1151,-1208.5 1151,-1173.5 971,-1173.5"/>
<polygon fill="none" stroke="#000000" points="971,-1173.5 971,-1208.5 1151,-1208.5 1151,-1173.5 971,-1173.5"/>
<text text-anchor="start" x="990.8658" y="-1186.3" font-family="Arial Bold" font-size="18.00" fill="#000000">posts</text>
<text text-anchor="start" x="1033.8804" y="-1186.3" font-family="Arial" font-size="14.00" fill="#000000"> </text>
<text text-anchor="start" x="1037.771" y="-1186.3" font-family="Arial" font-size="14.00" fill="#666666">[BASE TABLE]</text>
<polygon fill="none" stroke="#000000" points="971,-1143.5 971,-1173.5 1151,-1173.5 1151,-1143.5 971,-1143.5"/>
<text text-anchor="start" x="978" y="-1154.9" font-family="Arial" font-size="14.00" fill="#000000">id </text>
<text text-anchor="start" x="992.7798" y="-1154.9" font-family="Arial" font-size="14.00" fill="#666666">[bigint]</text>
<polygon fill="none" stroke="#000000" points="971,-1113.5 971,-1143.5 1151,-1143.5 1151,-1113.5 971,-1113.5"/>
<text text-anchor="start" x="978" y="-1124.9" font-family="Arial" font-size="14.00" fill="#000000">title </text>
<text text-anchor="start" x="1003.6676" y="-1124.9" font-family="Arial" font-size="14.00" fill="#666666">[varchar(255)]</text>
<polygon fill="none" stroke="#000000" points="971,-1083.5 971,-1113.5 1151,-1113.5 1151,-1083.5 971,-1083.5"/>
<text text-anchor="start" x="978" y="-1094.9" font-family="Arial" font-size="14.00" fill="#000000">detail </text>
<text text-anchor="start" x="1015.3422" y="-1094.9" font-family="Arial" font-size="14.00" fill="#666666">[varchar(255)]</text>
<polygon fill="none" stroke="#000000" points="971,-1053.5 971,-1083.5 1151,-1083.5 1151,-1053.5 971,-1053.5"/>
<text text-anchor="start" x="978" y="-1064.9" font-family="Arial" font-size="14.00" fill="#000000">tenant_id </text>
<text text-anchor="start" x="1039.474" y="-1064.9" font-family="Arial" font-size="14.00" fill="#666666">[varchar(36)]</text>
<polygon fill="none" stroke="#000000" points="971,-1023.5 971,-1053.5 1151,-1053.5 1151,-1023.5 971,-1023.5"/>
<text text-anchor="start" x="977.7574" y="-1034.9" font-family="Arial" font-size="14.00" fill="#000000">posted_by_id </text>
<text text-anchor="start" x="1064.906" y="-1034.9" font-family="Arial" font-size="14.00" fill="#666666">[varchar(36)]</text>
<polygon fill="none" stroke="#000000" points="971,-993.5 971,-1023.5 1151,-1023.5 1151,-993.5 971,-993.5"/>
<text text-anchor="start" x="978" y="-1004.9" font-family="Arial" font-size="14.00" fill="#000000">created_at </text>
<text text-anchor="start" x="1048.028" y="-1004.9" font-family="Arial" font-size="14.00" fill="#666666">[datetime]</text>
<polygon fill="none" stroke="#000000" points="971,-963.5 971,-993.5 1151,-993.5 1151,-963.5 971,-963.5"/>
<text text-anchor="start" x="978" y="-974.9" font-family="Arial" font-size="14.00" fill="#000000">updated_at </text>
<text text-anchor="start" x="1051.9326" y="-974.9" font-family="Arial" font-size="14.00" fill="#666666">[datetime]</text>
</g>
<!-- posts&#45;&gt;tenant_users -->
<g id="edge6" class="edge">
<title>posts:posted_by_id&#45;&gt;tenant_users:id</title>
<path fill="none" stroke="#000000" d="M960.7618,-1037.7914C862.4944,-1023.3037 992.4847,-791.5 879,-791.5"/>
<polygon fill="#000000" stroke="#000000" points="961.0239,-1037.8095 970.6893,-1042.9893 966.0119,-1038.1547 971,-1038.5 971,-1038.5 971,-1038.5 966.0119,-1038.1547 971.3107,-1034.0107 961.0239,-1037.8095 961.0239,-1037.8095"/>
<text text-anchor="start" x="977.9255" y="-1048.5" font-family="Arial" font-size="10.00" fill="#000000">FOREIGN KEY (posted_by_id) REFERENCES tenant_users (id)</text>
</g>
<!-- tenants&#45;&gt;service_plans -->
<g id="edge9" class="edge">
<title>tenants:service_plan_id&#45;&gt;service_plans:id</title>
<path fill="none" stroke="#000000" d="M718.6333,-393.3454C680.6398,-383.9128 704.7337,-318.8152 729,-277 745.1867,-249.1075 775.8133,-268.8925 792,-241 812.8578,-205.0582 833.5556,-147.5 792,-147.5"/>
<polygon fill="#000000" stroke="#000000" points="719.0615,-393.393 728.5018,-398.9723 724.0307,-393.9465 729,-394.5 729,-394.5 729,-394.5 724.0307,-393.9465 729.4982,-390.0277 719.0615,-393.393 719.0615,-393.393"/>
<text text-anchor="start" x="736.271" y="-404.5" font-family="Arial" font-size="10.00" fill="#000000">FOREIGN KEY (service_plan_id) REFERENCES service_plans (id)</text>
</g>
</g>
</svg>
