<?xml version="1.0" encoding="UTF-8" standalone="no"?>
<!DOCTYPE svg PUBLIC "-//W3C//DTD SVG 1.1//EN"
 "http://www.w3.org/Graphics/SVG/1.1/DTD/svg11.dtd">
<!-- Generated by graphviz version 2.40.1 (20161225.0304)
 -->
<!-- Title: roles Pages: 1 -->
<svg width="1376pt" height="1603pt"
 viewBox="0.00 0.00 1376.00 1603.00" xmlns="http://www.w3.org/2000/svg" xmlns:xlink="http://www.w3.org/1999/xlink">
<g id="graph0" class="graph" transform="scale(1 1) rotate(0) translate(4 1599)">
<title>roles</title>
<polygon fill="#ffffff" stroke="transparent" points="-4,4 -4,-1599 1372,-1599 1372,4 -4,4"/>
<!-- roles -->
<g id="node1" class="node">
<title>roles</title>
<polygon fill="#efefef" stroke="transparent" points="562,-472.5 562,-507.5 712,-507.5 712,-472.5 562,-472.5"/>
<polygon fill="none" stroke="#000000" points="562,-472.5 562,-507.5 712,-507.5 712,-472.5 562,-472.5"/>
<text text-anchor="start" x="568.8737" y="-485.3" font-family="Arial Bold" font-size="18.00" fill="#000000">roles</text>
<text text-anchor="start" x="607.8725" y="-485.3" font-family="Arial" font-size="14.00" fill="#000000"> </text>
<text text-anchor="start" x="611.7631" y="-485.3" font-family="Arial" font-size="14.00" fill="#666666">[BASE TABLE]</text>
<polygon fill="none" stroke="#000000" points="562,-442.5 562,-472.5 712,-472.5 712,-442.5 562,-442.5"/>
<text text-anchor="start" x="569" y="-453.9" font-family="Arial" font-size="14.00" fill="#000000">id </text>
<text text-anchor="start" x="583.7798" y="-453.9" font-family="Arial" font-size="14.00" fill="#666666">[int]</text>
<polygon fill="none" stroke="#000000" points="562,-412.5 562,-442.5 712,-442.5 712,-412.5 562,-412.5"/>
<text text-anchor="start" x="569" y="-423.9" font-family="Arial" font-size="14.00" fill="#000000">name </text>
<text text-anchor="start" x="607.899" y="-423.9" font-family="Arial" font-size="14.00" fill="#666666">[varchar(255)]</text>
<polygon fill="none" stroke="#000000" points="562,-382.5 562,-412.5 712,-412.5 712,-382.5 562,-382.5"/>
<text text-anchor="start" x="569" y="-393.9" font-family="Arial" font-size="14.00" fill="#000000">service_plan_id </text>
<text text-anchor="start" x="670.1318" y="-393.9" font-family="Arial" font-size="14.00" fill="#666666">[int]</text>
<polygon fill="none" stroke="#000000" points="562,-352.5 562,-382.5 712,-382.5 712,-352.5 562,-352.5"/>
<text text-anchor="start" x="569" y="-363.9" font-family="Arial" font-size="14.00" fill="#000000">created_at </text>
<text text-anchor="start" x="639.028" y="-363.9" font-family="Arial" font-size="14.00" fill="#666666">[datetime]</text>
<polygon fill="none" stroke="#000000" points="562,-322.5 562,-352.5 712,-352.5 712,-322.5 562,-322.5"/>
<text text-anchor="start" x="569" y="-333.9" font-family="Arial" font-size="14.00" fill="#000000">updated_at </text>
<text text-anchor="start" x="642.9326" y="-333.9" font-family="Arial" font-size="14.00" fill="#666666">[datetime]</text>
<polygon fill="none" stroke="#000000" stroke-width="3" points="560.5,-321.5 560.5,-509.5 713.5,-509.5 713.5,-321.5 560.5,-321.5"/>
</g>
<!-- service_plans -->
<g id="node5" class="node">
<title>service_plans</title>
<polygon fill="#efefef" stroke="transparent" points="659,-162.5 659,-197.5 880,-197.5 880,-162.5 659,-162.5"/>
<polygon fill="none" stroke="#000000" points="659,-162.5 659,-197.5 880,-197.5 880,-162.5 659,-162.5"/>
<text text-anchor="start" x="665.8642" y="-175.3" font-family="Arial Bold" font-size="18.00" fill="#000000">service_plans</text>
<text text-anchor="start" x="775.882" y="-175.3" font-family="Arial" font-size="14.00" fill="#000000"> </text>
<text text-anchor="start" x="779.7726" y="-175.3" font-family="Arial" font-size="14.00" fill="#666666">[BASE TABLE]</text>
<polygon fill="none" stroke="#000000" points="659,-132.5 659,-162.5 880,-162.5 880,-132.5 659,-132.5"/>
<text text-anchor="start" x="666" y="-143.9" font-family="Arial" font-size="14.00" fill="#000000">id </text>
<text text-anchor="start" x="680.7798" y="-143.9" font-family="Arial" font-size="14.00" fill="#666666">[int]</text>
<polygon fill="none" stroke="#000000" points="659,-102.5 659,-132.5 880,-132.5 880,-102.5 659,-102.5"/>
<text text-anchor="start" x="666" y="-113.9" font-family="Arial" font-size="14.00" fill="#000000">name </text>
<text text-anchor="start" x="704.899" y="-113.9" font-family="Arial" font-size="14.00" fill="#666666">[varchar(255)]</text>
<polygon fill="none" stroke="#000000" points="659,-72.5 659,-102.5 880,-102.5 880,-72.5 659,-72.5"/>
<text text-anchor="start" x="666" y="-83.9" font-family="Arial" font-size="14.00" fill="#000000">created_at </text>
<text text-anchor="start" x="736.028" y="-83.9" font-family="Arial" font-size="14.00" fill="#666666">[datetime]</text>
<polygon fill="none" stroke="#000000" points="659,-42.5 659,-72.5 880,-72.5 880,-42.5 659,-42.5"/>
<text text-anchor="start" x="666" y="-53.9" font-family="Arial" font-size="14.00" fill="#000000">updated_at </text>
<text text-anchor="start" x="739.9326" y="-53.9" font-family="Arial" font-size="14.00" fill="#666666">[datetime]</text>
</g>
<!-- roles&#45;&gt;service_plans -->
<g id="edge4" class="edge">
<title>roles:service_plan_id&#45;&gt;service_plans:id</title>
<path fill="none" stroke="#000000" d="M722.1097,-396.4492C761.5661,-387.3379 735.3035,-320.9998 712,-277 698.6723,-251.8358 672.3277,-266.1642 659,-241 639.5505,-204.277 617.4444,-147.5 659,-147.5"/>
<polygon fill="#000000" stroke="#000000" points="721.9464,-396.466 711.5347,-393.0241 716.9732,-396.983 712,-397.5 712,-397.5 712,-397.5 716.9732,-396.983 712.4653,-401.9759 721.9464,-396.466 721.9464,-396.466"/>
<text text-anchor="start" x="562.771" y="-381.5" font-family="Arial" font-size="10.00" fill="#000000">FOREIGN KEY (service_plan_id) REFERENCES service_plans (id)</text>
</g>
<!-- right_role_mappings -->
<g id="node2" class="node">
<title>right_role_mappings</title>
<polygon fill="#efefef" stroke="transparent" points="240,-797.5 240,-832.5 514,-832.5 514,-797.5 240,-797.5"/>
<polygon fill="none" stroke="#000000" points="240,-797.5 240,-832.5 514,-832.5 514,-797.5 240,-797.5"/>
<text text-anchor="start" x="246.8583" y="-810.3" font-family="Arial Bold" font-size="18.00" fill="#000000">right_role_mappings</text>
<text text-anchor="start" x="409.8879" y="-810.3" font-family="Arial" font-size="14.00" fill="#000000"> </text>
<text text-anchor="start" x="413.7785" y="-810.3" font-family="Arial" font-size="14.00" fill="#666666">[BASE TABLE]</text>
<polygon fill="none" stroke="#000000" points="240,-767.5 240,-797.5 514,-797.5 514,-767.5 240,-767.5"/>
<text text-anchor="start" x="247" y="-778.9" font-family="Arial" font-size="14.00" fill="#000000">id </text>
<text text-anchor="start" x="261.7798" y="-778.9" font-family="Arial" font-size="14.00" fill="#666666">[int]</text>
<polygon fill="none" stroke="#000000" points="240,-737.5 240,-767.5 514,-767.5 514,-737.5 240,-737.5"/>
<text text-anchor="start" x="247" y="-748.9" font-family="Arial" font-size="14.00" fill="#000000">right_id </text>
<text text-anchor="start" x="296.7854" y="-748.9" font-family="Arial" font-size="14.00" fill="#666666">[int]</text>
<polygon fill="none" stroke="#000000" points="240,-707.5 240,-737.5 514,-737.5 514,-707.5 240,-707.5"/>
<text text-anchor="start" x="247" y="-718.9" font-family="Arial" font-size="14.00" fill="#000000">role_id </text>
<text text-anchor="start" x="292.8948" y="-718.9" font-family="Arial" font-size="14.00" fill="#666666">[int]</text>
<polygon fill="none" stroke="#000000" points="240,-677.5 240,-707.5 514,-707.5 514,-677.5 240,-677.5"/>
<text text-anchor="start" x="247" y="-688.9" font-family="Arial" font-size="14.00" fill="#000000">created_at </text>
<text text-anchor="start" x="317.028" y="-688.9" font-family="Arial" font-size="14.00" fill="#666666">[datetime]</text>
<polygon fill="none" stroke="#000000" points="240,-647.5 240,-677.5 514,-677.5 514,-647.5 240,-647.5"/>
<text text-anchor="start" x="247" y="-658.9" font-family="Arial" font-size="14.00" fill="#000000">updated_at </text>
<text text-anchor="start" x="320.9326" y="-658.9" font-family="Arial" font-size="14.00" fill="#666666">[datetime]</text>
</g>
<!-- right_role_mappings&#45;&gt;roles -->
<g id="edge1" class="edge">
<title>right_role_mappings:role_id&#45;&gt;roles:id</title>
<path fill="none" stroke="#000000" d="M524.0326,-721.7861C622.3914,-706.6979 445.9293,-457.5 562,-457.5"/>
<polygon fill="#000000" stroke="#000000" points="523.9748,-721.7901 513.6806,-718.0113 518.9874,-722.1451 514,-722.5 514,-722.5 514,-722.5 518.9874,-722.1451 514.3194,-726.9887 523.9748,-721.7901 523.9748,-721.7901"/>
<text text-anchor="start" x="520.726" y="-732.5" font-family="Arial" font-size="10.00" fill="#000000">FOREIGN KEY (role_id) REFERENCES roles (id)</text>
</g>
<!-- rights -->
<g id="node3" class="node">
<title>rights</title>
<polygon fill="#efefef" stroke="transparent" points="299,-457.5 299,-492.5 454,-492.5 454,-457.5 299,-457.5"/>
<polygon fill="none" stroke="#000000" points="299,-457.5 299,-492.5 454,-492.5 454,-457.5 299,-457.5"/>
<text text-anchor="start" x="305.8726" y="-470.3" font-family="Arial Bold" font-size="18.00" fill="#000000">rights</text>
<text text-anchor="start" x="349.8736" y="-470.3" font-family="Arial" font-size="14.00" fill="#000000"> </text>
<text text-anchor="start" x="353.7642" y="-470.3" font-family="Arial" font-size="14.00" fill="#666666">[BASE TABLE]</text>
<polygon fill="none" stroke="#000000" points="299,-427.5 299,-457.5 454,-457.5 454,-427.5 299,-427.5"/>
<text text-anchor="start" x="306" y="-438.9" font-family="Arial" font-size="14.00" fill="#000000">id </text>
<text text-anchor="start" x="320.7798" y="-438.9" font-family="Arial" font-size="14.00" fill="#666666">[int]</text>
<polygon fill="none" stroke="#000000" points="299,-397.5 299,-427.5 454,-427.5 454,-397.5 299,-397.5"/>
<text text-anchor="start" x="306" y="-408.9" font-family="Arial" font-size="14.00" fill="#000000">name </text>
<text text-anchor="start" x="344.899" y="-408.9" font-family="Arial" font-size="14.00" fill="#666666">[varchar(255)]</text>
<polygon fill="none" stroke="#000000" points="299,-367.5 299,-397.5 454,-397.5 454,-367.5 299,-367.5"/>
<text text-anchor="start" x="306" y="-378.9" font-family="Arial" font-size="14.00" fill="#000000">created_at </text>
<text text-anchor="start" x="376.028" y="-378.9" font-family="Arial" font-size="14.00" fill="#666666">[datetime]</text>
<polygon fill="none" stroke="#000000" points="299,-337.5 299,-367.5 454,-367.5 454,-337.5 299,-337.5"/>
<text text-anchor="start" x="306" y="-348.9" font-family="Arial" font-size="14.00" fill="#000000">updated_at </text>
<text text-anchor="start" x="379.9326" y="-348.9" font-family="Arial" font-size="14.00" fill="#666666">[datetime]</text>
</g>
<!-- right_role_mappings&#45;&gt;rights -->
<g id="edge2" class="edge">
<title>right_role_mappings:right_id&#45;&gt;rights:id</title>
<path fill="none" stroke="#000000" d="M229.7364,-751.6151C177.5362,-741.9272 203.5936,-654.9906 240,-605 298.8301,-524.2189 395.1699,-616.7811 454,-536 478.4636,-502.4084 495.5556,-442.5 454,-442.5"/>
<polygon fill="#000000" stroke="#000000" points="230.037,-751.6409 239.6134,-756.9834 235.0185,-752.0705 240,-752.5 240,-752.5 240,-752.5 235.0185,-752.0705 240.3866,-748.0166 230.037,-751.6409 230.037,-751.6409"/>
<text text-anchor="start" x="6.947" y="-762.5" font-family="Arial" font-size="10.00" fill="#000000">FOREIGN KEY (right_id) REFERENCES rights (id)</text>
</g>
<!-- tenant_users -->
<g id="node4" class="node">
<title>tenant_users</title>
<polygon fill="#efefef" stroke="transparent" points="619,-812.5 619,-847.5 834,-847.5 834,-812.5 619,-812.5"/>
<polygon fill="none" stroke="#000000" points="619,-812.5 619,-847.5 834,-847.5 834,-812.5 619,-812.5"/>
<text text-anchor="start" x="625.8531" y="-825.3" font-family="Arial Bold" font-size="18.00" fill="#000000">tenant_users</text>
<text text-anchor="start" x="729.8931" y="-825.3" font-family="Arial" font-size="14.00" fill="#000000"> </text>
<text text-anchor="start" x="733.7837" y="-825.3" font-family="Arial" font-size="14.00" fill="#666666">[BASE TABLE]</text>
<polygon fill="none" stroke="#000000" points="619,-782.5 619,-812.5 834,-812.5 834,-782.5 619,-782.5"/>
<text text-anchor="start" x="626" y="-793.9" font-family="Arial" font-size="14.00" fill="#000000">id </text>
<text text-anchor="start" x="640.7798" y="-793.9" font-family="Arial" font-size="14.00" fill="#666666">[varchar(36)]</text>
<polygon fill="none" stroke="#000000" points="619,-752.5 619,-782.5 834,-782.5 834,-752.5 619,-752.5"/>
<text text-anchor="start" x="626" y="-763.9" font-family="Arial" font-size="14.00" fill="#000000">name </text>
<text text-anchor="start" x="664.899" y="-763.9" font-family="Arial" font-size="14.00" fill="#666666">[varchar(255)]</text>
<polygon fill="none" stroke="#000000" points="619,-722.5 619,-752.5 834,-752.5 834,-722.5 619,-722.5"/>
<text text-anchor="start" x="626" y="-733.9" font-family="Arial" font-size="14.00" fill="#000000">tenant_id </text>
<text text-anchor="start" x="687.474" y="-733.9" font-family="Arial" font-size="14.00" fill="#666666">[varchar(36)]</text>
<polygon fill="none" stroke="#000000" points="619,-692.5 619,-722.5 834,-722.5 834,-692.5 619,-692.5"/>
<text text-anchor="start" x="626" y="-703.9" font-family="Arial" font-size="14.00" fill="#000000">role_id </text>
<text text-anchor="start" x="671.8948" y="-703.9" font-family="Arial" font-size="14.00" fill="#666666">[int]</text>
<polygon fill="none" stroke="#000000" points="619,-662.5 619,-692.5 834,-692.5 834,-662.5 619,-662.5"/>
<text text-anchor="start" x="626" y="-673.9" font-family="Arial" font-size="14.00" fill="#000000">created_at </text>
<text text-anchor="start" x="696.028" y="-673.9" font-family="Arial" font-size="14.00" fill="#666666">[datetime]</text>
<polygon fill="none" stroke="#000000" points="619,-632.5 619,-662.5 834,-662.5 834,-632.5 619,-632.5"/>
<text text-anchor="start" x="626" y="-643.9" font-family="Arial" font-size="14.00" fill="#000000">updated_at </text>
<text text-anchor="start" x="699.9326" y="-643.9" font-family="Arial" font-size="14.00" fill="#666666">[datetime]</text>
</g>
<!-- tenant_users&#45;&gt;roles -->
<g id="edge3" class="edge">
<title>tenant_users:role_id&#45;&gt;roles:id</title>
<path fill="none" stroke="#000000" d="M608.5827,-706.3134C570.1854,-696.6258 591.6724,-629.882 619,-590 644.0529,-553.4377 686.9471,-590.5623 712,-554 736.2428,-518.62 754.8889,-457.5 712,-457.5"/>
<polygon fill="#000000" stroke="#000000" points="609.0642,-706.3682 618.4907,-711.9711 614.0321,-706.9341 619,-707.5 619,-707.5 619,-707.5 614.0321,-706.9341 619.5093,-703.0289 609.0642,-706.3682 609.0642,-706.3682"/>
<text text-anchor="start" x="567.226" y="-691.5" font-family="Arial" font-size="10.00" fill="#000000">FOREIGN KEY (role_id) REFERENCES roles (id)</text>
</g>
<!-- tenants -->
<g id="node9" class="node">
<title>tenants</title>
<polygon fill="#efefef" stroke="transparent" points="819,-472.5 819,-507.5 989,-507.5 989,-472.5 819,-472.5"/>
<polygon fill="none" stroke="#000000" points="819,-472.5 819,-507.5 989,-507.5 989,-472.5 819,-472.5"/>
<text text-anchor="start" x="825.8585" y="-485.3" font-family="Arial Bold" font-size="18.00" fill="#000000">tenants</text>
<text text-anchor="start" x="884.8877" y="-485.3" font-family="Arial" font-size="14.00" fill="#000000"> </text>
<text text-anchor="start" x="888.7783" y="-485.3" font-family="Arial" font-size="14.00" fill="#666666">[BASE TABLE]</text>
<polygon fill="none" stroke="#000000" points="819,-442.5 819,-472.5 989,-472.5 989,-442.5 819,-442.5"/>
<text text-anchor="start" x="826" y="-453.9" font-family="Arial" font-size="14.00" fill="#000000">id </text>
<text text-anchor="start" x="840.7798" y="-453.9" font-family="Arial" font-size="14.00" fill="#666666">[varchar(36)]</text>
<polygon fill="none" stroke="#000000" points="819,-412.5 819,-442.5 989,-442.5 989,-412.5 819,-412.5"/>
<text text-anchor="start" x="826" y="-423.9" font-family="Arial" font-size="14.00" fill="#000000">name </text>
<text text-anchor="start" x="864.899" y="-423.9" font-family="Arial" font-size="14.00" fill="#666666">[varchar(255)]</text>
<polygon fill="none" stroke="#000000" points="819,-382.5 819,-412.5 989,-412.5 989,-382.5 819,-382.5"/>
<text text-anchor="start" x="826" y="-393.9" font-family="Arial" font-size="14.00" fill="#000000">service_plan_id </text>
<text text-anchor="start" x="927.1318" y="-393.9" font-family="Arial" font-size="14.00" fill="#666666">[int]</text>
<polygon fill="none" stroke="#000000" points="819,-352.5 819,-382.5 989,-382.5 989,-352.5 819,-352.5"/>
<text text-anchor="start" x="826" y="-363.9" font-family="Arial" font-size="14.00" fill="#000000">created_at </text>
<text text-anchor="start" x="896.028" y="-363.9" font-family="Arial" font-size="14.00" fill="#666666">[datetime]</text>
<polygon fill="none" stroke="#000000" points="819,-322.5 819,-352.5 989,-352.5 989,-322.5 819,-322.5"/>
<text text-anchor="start" x="826" y="-333.9" font-family="Arial" font-size="14.00" fill="#000000">updated_at </text>
<text text-anchor="start" x="899.9326" y="-333.9" font-family="Arial" font-size="14.00" fill="#666666">[datetime]</text>
</g>
<!-- tenant_users&#45;&gt;tenants -->
<g id="edge11" class="edge">
<title>tenant_users:tenant_id&#45;&gt;tenants:id</title>
<path fill="none" stroke="#000000" d="M844.0218,-736.7192C893.6186,-728.1521 845.2898,-650.8032 834,-590 830.6097,-571.7409 822.3903,-569.2591 819,-551 811.4137,-510.1428 777.4444,-457.5 819,-457.5"/>
<polygon fill="#000000" stroke="#000000" points="843.9698,-736.7232 833.6504,-733.0136 838.9849,-737.1116 834,-737.5 834,-737.5 834,-737.5 838.9849,-737.1116 834.3496,-741.9864 843.9698,-736.7232 843.9698,-736.7232"/>
<text text-anchor="start" x="840.598" y="-747.5" font-family="Arial" font-size="10.00" fill="#000000">FOREIGN KEY (tenant_id) REFERENCES tenants (id)</text>
</g>
<!-- post_comments -->
<g id="node6" class="node">
<title>post_comments</title>
<polygon fill="#efefef" stroke="transparent" points="528,-1516.5 528,-1551.5 766,-1551.5 766,-1516.5 528,-1516.5"/>
<polygon fill="none" stroke="#000000" points="528,-1516.5 528,-1551.5 766,-1551.5 766,-1516.5 528,-1516.5"/>
<text text-anchor="start" x="534.8601" y="-1529.3" font-family="Arial Bold" font-size="18.00" fill="#000000">post_comments</text>
<text text-anchor="start" x="661.8861" y="-1529.3" font-family="Arial" font-size="14.00" fill="#000000"> </text>
<text text-anchor="start" x="665.7767" y="-1529.3" font-family="Arial" font-size="14.00" fill="#666666">[BASE TABLE]</text>
<polygon fill="none" stroke="#000000" points="528,-1486.5 528,-1516.5 766,-1516.5 766,-1486.5 528,-1486.5"/>
<text text-anchor="start" x="535" y="-1497.9" font-family="Arial" font-size="14.00" fill="#000000">id </text>
<text text-anchor="start" x="549.7798" y="-1497.9" font-family="Arial" font-size="14.00" fill="#666666">[bigint]</text>
<polygon fill="none" stroke="#000000" points="528,-1456.5 528,-1486.5 766,-1486.5 766,-1456.5 528,-1456.5"/>
<text text-anchor="start" x="535" y="-1467.9" font-family="Arial" font-size="14.00" fill="#000000">post_id </text>
<text text-anchor="start" x="584.0182" y="-1467.9" font-family="Arial" font-size="14.00" fill="#666666">[bigint]</text>
<polygon fill="none" stroke="#000000" points="528,-1426.5 528,-1456.5 766,-1456.5 766,-1426.5 528,-1426.5"/>
<text text-anchor="start" x="535" y="-1437.9" font-family="Arial" font-size="14.00" fill="#000000">tenant_user_id </text>
<text text-anchor="start" x="631.4824" y="-1437.9" font-family="Arial" font-size="14.00" fill="#666666">[varchar(36)]</text>
<polygon fill="none" stroke="#000000" points="528,-1396.5 528,-1426.5 766,-1426.5 766,-1396.5 528,-1396.5"/>
<text text-anchor="start" x="535" y="-1407.9" font-family="Arial" font-size="14.00" fill="#000000">comment </text>
<text text-anchor="start" x="596.4502" y="-1407.9" font-family="Arial" font-size="14.00" fill="#666666">[varchar(255)]</text>
<polygon fill="none" stroke="#000000" points="528,-1366.5 528,-1396.5 766,-1396.5 766,-1366.5 528,-1366.5"/>
<text text-anchor="start" x="535" y="-1377.9" font-family="Arial" font-size="14.00" fill="#000000">created_at </text>
<text text-anchor="start" x="605.028" y="-1377.9" font-family="Arial" font-size="14.00" fill="#666666">[datetime]</text>
<polygon fill="none" stroke="#000000" points="528,-1336.5 528,-1366.5 766,-1366.5 766,-1336.5 528,-1336.5"/>
<text text-anchor="start" x="535" y="-1347.9" font-family="Arial" font-size="14.00" fill="#000000">updated_at </text>
<text text-anchor="start" x="608.9326" y="-1347.9" font-family="Arial" font-size="14.00" fill="#666666">[datetime]</text>
</g>
<!-- post_comments&#45;&gt;tenant_users -->
<g id="edge5" class="edge">
<title>post_comments:tenant_user_id&#45;&gt;tenant_users:id</title>
<path fill="none" stroke="#000000" d="M518.5607,-1437.0437C464.5757,-1380.1448 550.2622,-797.5 619,-797.5"/>
<polygon fill="#000000" stroke="#000000" points="518.9571,-1437.2308 526.0789,-1445.5693 523.4785,-1439.3654 528,-1441.5 528,-1441.5 528,-1441.5 523.4785,-1439.3654 529.9211,-1437.4307 518.9571,-1437.2308 518.9571,-1437.2308"/>
<text text-anchor="start" x="228.592" y="-1451.5" font-family="Arial" font-size="10.00" fill="#000000">FOREIGN KEY (tenant_user_id) REFERENCES tenant_users (id)</text>
</g>
<!-- posts -->
<g id="node7" class="node">
<title>posts</title>
<polygon fill="#efefef" stroke="transparent" points="717,-1179.5 717,-1214.5 897,-1214.5 897,-1179.5 717,-1179.5"/>
<polygon fill="none" stroke="#000000" points="717,-1179.5 717,-1214.5 897,-1214.5 897,-1179.5 717,-1179.5"/>
<text text-anchor="start" x="736.8658" y="-1192.3" font-family="Arial Bold" font-size="18.00" fill="#000000">posts</text>
<text text-anchor="start" x="779.8804" y="-1192.3" font-family="Arial" font-size="14.00" fill="#000000"> </text>
<text text-anchor="start" x="783.771" y="-1192.3" font-family="Arial" font-size="14.00" fill="#666666">[BASE TABLE]</text>
<polygon fill="none" stroke="#000000" points="717,-1149.5 717,-1179.5 897,-1179.5 897,-1149.5 717,-1149.5"/>
<text text-anchor="start" x="724" y="-1160.9" font-family="Arial" font-size="14.00" fill="#000000">id </text>
<text text-anchor="start" x="738.7798" y="-1160.9" font-family="Arial" font-size="14.00" fill="#666666">[bigint]</text>
<polygon fill="none" stroke="#000000" points="717,-1119.5 717,-1149.5 897,-1149.5 897,-1119.5 717,-1119.5"/>
<text text-anchor="start" x="724" y="-1130.9" font-family="Arial" font-size="14.00" fill="#000000">title </text>
<text text-anchor="start" x="749.6676" y="-1130.9" font-family="Arial" font-size="14.00" fill="#666666">[varchar(255)]</text>
<polygon fill="none" stroke="#000000" points="717,-1089.5 717,-1119.5 897,-1119.5 897,-1089.5 717,-1089.5"/>
<text text-anchor="start" x="724" y="-1100.9" font-family="Arial" font-size="14.00" fill="#000000">detail </text>
<text text-anchor="start" x="761.3422" y="-1100.9" font-family="Arial" font-size="14.00" fill="#666666">[varchar(255)]</text>
<polygon fill="none" stroke="#000000" points="717,-1059.5 717,-1089.5 897,-1089.5 897,-1059.5 717,-1059.5"/>
<text text-anchor="start" x="724" y="-1070.9" font-family="Arial" font-size="14.00" fill="#000000">tenant_id </text>
<text text-anchor="start" x="785.474" y="-1070.9" font-family="Arial" font-size="14.00" fill="#666666">[varchar(36)]</text>
<polygon fill="none" stroke="#000000" points="717,-1029.5 717,-1059.5 897,-1059.5 897,-1029.5 717,-1029.5"/>
<text text-anchor="start" x="723.7574" y="-1040.9" font-family="Arial" font-size="14.00" fill="#000000">posted_by_id </text>
<text text-anchor="start" x="810.906" y="-1040.9" font-family="Arial" font-size="14.00" fill="#666666">[varchar(36)]</text>
<polygon fill="none" stroke="#000000" points="717,-999.5 717,-1029.5 897,-1029.5 897,-999.5 717,-999.5"/>
<text text-anchor="start" x="724" y="-1010.9" font-family="Arial" font-size="14.00" fill="#000000">created_at </text>
<text text-anchor="start" x="794.028" y="-1010.9" font-family="Arial" font-size="14.00" fill="#666666">[datetime]</text>
<polygon fill="none" stroke="#000000" points="717,-969.5 717,-999.5 897,-999.5 897,-969.5 717,-969.5"/>
<text text-anchor="start" x="724" y="-980.9" font-family="Arial" font-size="14.00" fill="#000000">updated_at </text>
<text text-anchor="start" x="797.9326" y="-980.9" font-family="Arial" font-size="14.00" fill="#666666">[datetime]</text>
</g>
<!-- post_comments&#45;&gt;posts -->
<g id="edge6" class="edge">
<title>post_comments:post_id&#45;&gt;posts:id</title>
<path fill="none" stroke="#000000" d="M776.3019,-1470.8087C840.8499,-1461.5387 799.9578,-1361.0861 766,-1294 753.7956,-1269.8893 729.2044,-1282.1107 717,-1258 698.2326,-1220.9237 675.4444,-1164.5 717,-1164.5"/>
<polygon fill="#000000" stroke="#000000" points="775.9776,-1470.8304 765.6987,-1467.0101 770.9888,-1471.1652 766,-1471.5 766,-1471.5 766,-1471.5 770.9888,-1471.1652 766.3013,-1475.9899 775.9776,-1470.8304 775.9776,-1470.8304"/>
<text text-anchor="start" x="653.995" y="-1455.5" font-family="Arial" font-size="10.00" fill="#000000">FOREIGN KEY (post_id) REFERENCES posts (id)</text>
</g>
<!-- posts&#45;&gt;tenant_users -->
<g id="edge9" class="edge">
<title>posts:posted_by_id&#45;&gt;tenant_users:id</title>
<path fill="none" stroke="#000000" d="M707.0512,-1043.4182C667.8072,-1034.0493 688.1561,-966.0534 717,-927 749.3226,-883.2365 801.6774,-934.7635 834,-891 858.6882,-857.5731 875.5556,-797.5 834,-797.5"/>
<polygon fill="#000000" stroke="#000000" points="707.0586,-1043.4189 716.5135,-1048.9736 712.0293,-1043.9595 717,-1044.5 717,-1044.5 717,-1044.5 712.0293,-1043.9595 717.4865,-1040.0264 707.0586,-1043.4189 707.0586,-1043.4189"/>
<text text-anchor="start" x="423.9255" y="-1054.5" font-family="Arial" font-size="10.00" fill="#000000">FOREIGN KEY (posted_by_id) REFERENCES tenant_users (id)</text>
</g>
<!-- posts&#45;&gt;tenants -->
<g id="edge10" class="edge">
<title>posts:tenant_id&#45;&gt;tenants:id</title>
<path fill="none" stroke="#000000" d="M907.0702,-1074.2264C1176.445,-1059.5285 1262.8695,-457.5 989,-457.5"/>
<polygon fill="#000000" stroke="#000000" points="906.9963,-1074.2283 896.8778,-1070.0017 901.9982,-1074.3642 897,-1074.5 897,-1074.5 897,-1074.5 901.9982,-1074.3642 897.1222,-1078.9983 906.9963,-1074.2283 906.9963,-1074.2283"/>
<text text-anchor="start" x="903.598" y="-1084.5" font-family="Arial" font-size="10.00" fill="#000000">FOREIGN KEY (tenant_id) REFERENCES tenants (id)</text>
</g>
<!-- post_likes -->
<g id="node8" class="node">
<title>post_likes</title>
<polygon fill="#efefef" stroke="transparent" points="871,-1501.5 871,-1536.5 1062,-1536.5 1062,-1501.5 871,-1501.5"/>
<polygon fill="none" stroke="#000000" points="871,-1501.5 871,-1536.5 1062,-1536.5 1062,-1501.5 871,-1501.5"/>
<text text-anchor="start" x="877.8654" y="-1514.3" font-family="Arial Bold" font-size="18.00" fill="#000000">post_likes</text>
<text text-anchor="start" x="957.8808" y="-1514.3" font-family="Arial" font-size="14.00" fill="#000000"> </text>
<text text-anchor="start" x="961.7714" y="-1514.3" font-family="Arial" font-size="14.00" fill="#666666">[BASE TABLE]</text>
<polygon fill="none" stroke="#000000" points="871,-1471.5 871,-1501.5 1062,-1501.5 1062,-1471.5 871,-1471.5"/>
<text text-anchor="start" x="878" y="-1482.9" font-family="Arial" font-size="14.00" fill="#000000">id </text>
<text text-anchor="start" x="892.7798" y="-1482.9" font-family="Arial" font-size="14.00" fill="#666666">[bigint]</text>
<polygon fill="none" stroke="#000000" points="871,-1441.5 871,-1471.5 1062,-1471.5 1062,-1441.5 871,-1441.5"/>
<text text-anchor="start" x="878" y="-1452.9" font-family="Arial" font-size="14.00" fill="#000000">post_id </text>
<text text-anchor="start" x="927.0182" y="-1452.9" font-family="Arial" font-size="14.00" fill="#666666">[bigint]</text>
<polygon fill="none" stroke="#000000" points="871,-1411.5 871,-1441.5 1062,-1441.5 1062,-1411.5 871,-1411.5"/>
<text text-anchor="start" x="878" y="-1422.9" font-family="Arial" font-size="14.00" fill="#000000">tenant_user_id </text>
<text text-anchor="start" x="974.4824" y="-1422.9" font-family="Arial" font-size="14.00" fill="#666666">[varchar(36)]</text>
<polygon fill="none" stroke="#000000" points="871,-1381.5 871,-1411.5 1062,-1411.5 1062,-1381.5 871,-1381.5"/>
<text text-anchor="start" x="878" y="-1392.9" font-family="Arial" font-size="14.00" fill="#000000">created_at </text>
<text text-anchor="start" x="948.028" y="-1392.9" font-family="Arial" font-size="14.00" fill="#666666">[datetime]</text>
<polygon fill="none" stroke="#000000" points="871,-1351.5 871,-1381.5 1062,-1381.5 1062,-1351.5 871,-1351.5"/>
<text text-anchor="start" x="878" y="-1362.9" font-family="Arial" font-size="14.00" fill="#000000">updated_at </text>
<text text-anchor="start" x="951.9326" y="-1362.9" font-family="Arial" font-size="14.00" fill="#666666">[datetime]</text>
</g>
<!-- post_likes&#45;&gt;tenant_users -->
<g id="edge7" class="edge">
<title>post_likes:tenant_user_id&#45;&gt;tenant_users:id</title>
<path fill="none" stroke="#000000" d="M1072.2225,-1425.3936C1199.5918,-1396.162 979.0475,-797.5 834,-797.5"/>
<polygon fill="#000000" stroke="#000000" points="1071.9419,-1425.4239 1061.5157,-1422.0261 1066.971,-1425.9619 1062,-1426.5 1062,-1426.5 1062,-1426.5 1066.971,-1425.9619 1062.4843,-1430.9739 1071.9419,-1425.4239 1071.9419,-1425.4239"/>
<text text-anchor="start" x="1068.592" y="-1436.5" font-family="Arial" font-size="10.00" fill="#000000">FOREIGN KEY (tenant_user_id) REFERENCES tenant_users (id)</text>
</g>
<!-- post_likes&#45;&gt;posts -->
<g id="edge8" class="edge">
<title>post_likes:post_id&#45;&gt;posts:id</title>
<path fill="none" stroke="#000000" d="M860.9478,-1455.7127C811.0242,-1447.0761 856.5565,-1369.1321 871,-1309 876.9421,-1284.2614 891.0579,-1282.7386 897,-1258 906.7054,-1217.5937 938.5556,-1164.5 897,-1164.5"/>
<polygon fill="#000000" stroke="#000000" points="861.0305,-1455.7191 870.6486,-1460.9863 866.0153,-1456.1096 871,-1456.5 871,-1456.5 871,-1456.5 866.0153,-1456.1096 871.3514,-1452.0137 861.0305,-1455.7191 861.0305,-1455.7191"/>
<text text-anchor="start" x="699.245" y="-1440.5" font-family="Arial" font-size="10.00" fill="#000000">FOREIGN KEY (post_id) REFERENCES posts (id)</text>
</g>
<!-- tenants&#45;&gt;service_plans -->
<g id="edge12" class="edge">
<title>tenants:service_plan_id&#45;&gt;service_plans:id</title>
<path fill="none" stroke="#000000" d="M808.6506,-396.3551C770.7952,-387.0004 795.7802,-322.4053 819,-280 834.4547,-251.7757 864.5453,-269.2243 880,-241 899.9583,-204.551 921.5556,-147.5 880,-147.5"/>
<polygon fill="#000000" stroke="#000000" points="809.0606,-396.4004 818.5052,-401.9727 814.0303,-396.9502 819,-397.5 819,-397.5 819,-397.5 814.0303,-396.9502 819.4948,-393.0273 809.0606,-396.4004 809.0606,-396.4004"/>
<text text-anchor="start" x="826.271" y="-407.5" font-family="Arial" font-size="10.00" fill="#000000">FOREIGN KEY (service_plan_id) REFERENCES service_plans (id)</text>
</g>
</g>
</svg>
