<?xml version="1.0" encoding="UTF-8" standalone="no"?>
<!DOCTYPE svg PUBLIC "-//W3C//DTD SVG 1.1//EN"
 "http://www.w3.org/Graphics/SVG/1.1/DTD/svg11.dtd">
<!-- Generated by graphviz version 2.40.1 (20161225.0304)
 -->
<!-- Title: mydb Pages: 1 -->
<svg width="1377pt" height="1597pt"
 viewBox="0.00 0.00 1377.00 1597.00" xmlns="http://www.w3.org/2000/svg" xmlns:xlink="http://www.w3.org/1999/xlink">
<g id="graph0" class="graph" transform="scale(1 1) rotate(0) translate(4 1593)">
<title>mydb</title>
<polygon fill="#ffffff" stroke="transparent" points="-4,4 -4,-1593 1373,-1593 1373,4 -4,4"/>
<!-- alembic_version -->
<g id="node1" class="node">
<title>alembic_version</title>
<polygon fill="#efefef" stroke="transparent" points="183,-1435.5 183,-1470.5 424,-1470.5 424,-1435.5 183,-1435.5"/>
<polygon fill="none" stroke="#000000" points="183,-1435.5 183,-1470.5 424,-1470.5 424,-1435.5 183,-1435.5"/>
<text text-anchor="start" x="189.8679" y="-1448.3" font-family="Arial Bold" font-size="18.00" fill="#000000">alembic_version</text>
<text text-anchor="start" x="319.8783" y="-1448.3" font-family="Arial" font-size="14.00" fill="#000000"> </text>

<polygon fill="none" stroke="#000000" points="183,-1405.5 183,-1435.5 424,-1435.5 424,-1405.5 183,-1405.5"/>
<text text-anchor="start" x="190" y="-1416.9" font-family="Arial" font-size="14.00" fill="#000000">version_num </text>
<text text-anchor="start" x="274.014" y="-1416.9" font-family="Arial" font-size="14.00" fill="#666666">[varchar(32)]</text>
</g>
<!-- post_comments -->
<g id="node2" class="node">
<title>post_comments</title>
<polygon fill="#efefef" stroke="transparent" points="528,-1510.5 528,-1545.5 766,-1545.5 766,-1510.5 528,-1510.5"/>
<polygon fill="none" stroke="#000000" points="528,-1510.5 528,-1545.5 766,-1545.5 766,-1510.5 528,-1510.5"/>
<text text-anchor="start" x="534.8601" y="-1523.3" font-family="Arial Bold" font-size="18.00" fill="#000000">post_comments</text>
<text text-anchor="start" x="661.8861" y="-1523.3" font-family="Arial" font-size="14.00" fill="#000000"> </text>

<polygon fill="none" stroke="#000000" points="528,-1480.5 528,-1510.5 766,-1510.5 766,-1480.5 528,-1480.5"/>
<text text-anchor="start" x="535" y="-1491.9" font-family="Arial" font-size="14.00" fill="#000000">id </text>
<text text-anchor="start" x="549.7798" y="-1491.9" font-family="Arial" font-size="14.00" fill="#666666">[bigint]</text>
<polygon fill="none" stroke="#000000" points="528,-1450.5 528,-1480.5 766,-1480.5 766,-1450.5 528,-1450.5"/>
<text text-anchor="start" x="535" y="-1461.9" font-family="Arial" font-size="14.00" fill="#000000">post_id </text>
<text text-anchor="start" x="584.0182" y="-1461.9" font-family="Arial" font-size="14.00" fill="#666666">[bigint]</text>
<polygon fill="none" stroke="#000000" points="528,-1420.5 528,-1450.5 766,-1450.5 766,-1420.5 528,-1420.5"/>
<text text-anchor="start" x="535" y="-1431.9" font-family="Arial" font-size="14.00" fill="#000000">tenant_user_id </text>
<text text-anchor="start" x="631.4824" y="-1431.9" font-family="Arial" font-size="14.00" fill="#666666">[varchar(36)]</text>
<polygon fill="none" stroke="#000000" points="528,-1390.5 528,-1420.5 766,-1420.5 766,-1390.5 528,-1390.5"/>
<text text-anchor="start" x="535" y="-1401.9" font-family="Arial" font-size="14.00" fill="#000000">comment </text>
<text text-anchor="start" x="596.4502" y="-1401.9" font-family="Arial" font-size="14.00" fill="#666666">[varchar(255)]</text>
<polygon fill="none" stroke="#000000" points="528,-1360.5 528,-1390.5 766,-1390.5 766,-1360.5 528,-1360.5"/>
<text text-anchor="start" x="535" y="-1371.9" font-family="Arial" font-size="14.00" fill="#000000">created_at </text>
<text text-anchor="start" x="605.028" y="-1371.9" font-family="Arial" font-size="14.00" fill="#666666">[datetime]</text>
<polygon fill="none" stroke="#000000" points="528,-1330.5 528,-1360.5 766,-1360.5 766,-1330.5 528,-1330.5"/>
<text text-anchor="start" x="535" y="-1341.9" font-family="Arial" font-size="14.00" fill="#000000">updated_at </text>
<text text-anchor="start" x="608.9326" y="-1341.9" font-family="Arial" font-size="14.00" fill="#666666">[datetime]</text>
</g>
<!-- posts -->
<g id="node4" class="node">
<title>posts</title>
<polygon fill="#efefef" stroke="transparent" points="717,-1173.5 717,-1208.5 897,-1208.5 897,-1173.5 717,-1173.5"/>
<polygon fill="none" stroke="#000000" points="717,-1173.5 717,-1208.5 897,-1208.5 897,-1173.5 717,-1173.5"/>
<text text-anchor="start" x="736.8658" y="-1186.3" font-family="Arial Bold" font-size="18.00" fill="#000000">posts</text>
<text text-anchor="start" x="779.8804" y="-1186.3" font-family="Arial" font-size="14.00" fill="#000000"> </text>

<polygon fill="none" stroke="#000000" points="717,-1143.5 717,-1173.5 897,-1173.5 897,-1143.5 717,-1143.5"/>
<text text-anchor="start" x="724" y="-1154.9" font-family="Arial" font-size="14.00" fill="#000000">id </text>
<text text-anchor="start" x="738.7798" y="-1154.9" font-family="Arial" font-size="14.00" fill="#666666">[bigint]</text>
<polygon fill="none" stroke="#000000" points="717,-1113.5 717,-1143.5 897,-1143.5 897,-1113.5 717,-1113.5"/>
<text text-anchor="start" x="724" y="-1124.9" font-family="Arial" font-size="14.00" fill="#000000">title </text>
<text text-anchor="start" x="749.6676" y="-1124.9" font-family="Arial" font-size="14.00" fill="#666666">[varchar(255)]</text>
<polygon fill="none" stroke="#000000" points="717,-1083.5 717,-1113.5 897,-1113.5 897,-1083.5 717,-1083.5"/>
<text text-anchor="start" x="724" y="-1094.9" font-family="Arial" font-size="14.00" fill="#000000">detail </text>
<text text-anchor="start" x="761.3422" y="-1094.9" font-family="Arial" font-size="14.00" fill="#666666">[varchar(255)]</text>
<polygon fill="none" stroke="#000000" points="717,-1053.5 717,-1083.5 897,-1083.5 897,-1053.5 717,-1053.5"/>
<text text-anchor="start" x="724" y="-1064.9" font-family="Arial" font-size="14.00" fill="#000000">tenant_id </text>
<text text-anchor="start" x="785.474" y="-1064.9" font-family="Arial" font-size="14.00" fill="#666666">[varchar(36)]</text>
<polygon fill="none" stroke="#000000" points="717,-1023.5 717,-1053.5 897,-1053.5 897,-1023.5 717,-1023.5"/>
<text text-anchor="start" x="723.7574" y="-1034.9" font-family="Arial" font-size="14.00" fill="#000000">posted_by_id </text>
<text text-anchor="start" x="810.906" y="-1034.9" font-family="Arial" font-size="14.00" fill="#666666">[varchar(36)]</text>
<polygon fill="none" stroke="#000000" points="717,-993.5 717,-1023.5 897,-1023.5 897,-993.5 717,-993.5"/>
<text text-anchor="start" x="724" y="-1004.9" font-family="Arial" font-size="14.00" fill="#000000">created_at </text>
<text text-anchor="start" x="794.028" y="-1004.9" font-family="Arial" font-size="14.00" fill="#666666">[datetime]</text>
<polygon fill="none" stroke="#000000" points="717,-963.5 717,-993.5 897,-993.5 897,-963.5 717,-963.5"/>
<text text-anchor="start" x="724" y="-974.9" font-family="Arial" font-size="14.00" fill="#000000">updated_at </text>
<text text-anchor="start" x="797.9326" y="-974.9" font-family="Arial" font-size="14.00" fill="#666666">[datetime]</text>
</g>
<!-- post_comments&#45;&gt;posts -->
<g id="edge1" class="edge">
<title>post_comments:post_id&#45;&gt;posts:id</title>
<path fill="none" stroke="#000000" d="M776.3019,-1464.8087C840.8499,-1455.5387 799.9578,-1355.0861 766,-1288 753.7956,-1263.8893 729.2044,-1276.1107 717,-1252 698.2326,-1214.9237 675.4444,-1158.5 717,-1158.5"/>
<polygon fill="#000000" stroke="#000000" points="775.9776,-1464.8304 765.6987,-1461.0101 770.9888,-1465.1652 766,-1465.5 766,-1465.5 766,-1465.5 770.9888,-1465.1652 766.3013,-1469.9899 775.9776,-1464.8304 775.9776,-1464.8304"/>

</g>
<!-- tenant_users -->
<g id="node9" class="node">
<title>tenant_users</title>
<polygon fill="#efefef" stroke="transparent" points="619,-806.5 619,-841.5 834,-841.5 834,-806.5 619,-806.5"/>
<polygon fill="none" stroke="#000000" points="619,-806.5 619,-841.5 834,-841.5 834,-806.5 619,-806.5"/>
<text text-anchor="start" x="625.8531" y="-819.3" font-family="Arial Bold" font-size="18.00" fill="#000000">tenant_users</text>
<text text-anchor="start" x="729.8931" y="-819.3" font-family="Arial" font-size="14.00" fill="#000000"> </text>

<polygon fill="none" stroke="#000000" points="619,-776.5 619,-806.5 834,-806.5 834,-776.5 619,-776.5"/>
<text text-anchor="start" x="626" y="-787.9" font-family="Arial" font-size="14.00" fill="#000000">id </text>
<text text-anchor="start" x="640.7798" y="-787.9" font-family="Arial" font-size="14.00" fill="#666666">[varchar(36)]</text>
<polygon fill="none" stroke="#000000" points="619,-746.5 619,-776.5 834,-776.5 834,-746.5 619,-746.5"/>
<text text-anchor="start" x="626" y="-757.9" font-family="Arial" font-size="14.00" fill="#000000">name </text>
<text text-anchor="start" x="664.899" y="-757.9" font-family="Arial" font-size="14.00" fill="#666666">[varchar(255)]</text>
<polygon fill="none" stroke="#000000" points="619,-716.5 619,-746.5 834,-746.5 834,-716.5 619,-716.5"/>
<text text-anchor="start" x="626" y="-727.9" font-family="Arial" font-size="14.00" fill="#000000">tenant_id </text>
<text text-anchor="start" x="687.474" y="-727.9" font-family="Arial" font-size="14.00" fill="#666666">[varchar(36)]</text>
<polygon fill="none" stroke="#000000" points="619,-686.5 619,-716.5 834,-716.5 834,-686.5 619,-686.5"/>
<text text-anchor="start" x="626" y="-697.9" font-family="Arial" font-size="14.00" fill="#000000">role_id </text>
<text text-anchor="start" x="671.8948" y="-697.9" font-family="Arial" font-size="14.00" fill="#666666">[int]</text>
<polygon fill="none" stroke="#000000" points="619,-656.5 619,-686.5 834,-686.5 834,-656.5 619,-656.5"/>
<text text-anchor="start" x="626" y="-667.9" font-family="Arial" font-size="14.00" fill="#000000">created_at </text>
<text text-anchor="start" x="696.028" y="-667.9" font-family="Arial" font-size="14.00" fill="#666666">[datetime]</text>
<polygon fill="none" stroke="#000000" points="619,-626.5 619,-656.5 834,-656.5 834,-626.5 619,-626.5"/>
<text text-anchor="start" x="626" y="-637.9" font-family="Arial" font-size="14.00" fill="#000000">updated_at </text>
<text text-anchor="start" x="699.9326" y="-637.9" font-family="Arial" font-size="14.00" fill="#666666">[datetime]</text>
</g>
<!-- post_comments&#45;&gt;tenant_users -->
<g id="edge2" class="edge">
<title>post_comments:tenant_user_id&#45;&gt;tenant_users:id</title>
<path fill="none" stroke="#000000" d="M518.5607,-1431.0437C464.5757,-1374.1448 550.2622,-791.5 619,-791.5"/>
<polygon fill="#000000" stroke="#000000" points="518.9571,-1431.2308 526.0789,-1439.5693 523.4785,-1433.3654 528,-1435.5 528,-1435.5 528,-1435.5 523.4785,-1433.3654 529.9211,-1431.4307 518.9571,-1431.2308 518.9571,-1431.2308"/>

</g>
<!-- post_likes -->
<g id="node3" class="node">
<title>post_likes</title>
<polygon fill="#efefef" stroke="transparent" points="872,-1495.5 872,-1530.5 1063,-1530.5 1063,-1495.5 872,-1495.5"/>
<polygon fill="none" stroke="#000000" points="872,-1495.5 872,-1530.5 1063,-1530.5 1063,-1495.5 872,-1495.5"/>
<text text-anchor="start" x="878.8654" y="-1508.3" font-family="Arial Bold" font-size="18.00" fill="#000000">post_likes</text>
<text text-anchor="start" x="958.8808" y="-1508.3" font-family="Arial" font-size="14.00" fill="#000000"> </text>

<polygon fill="none" stroke="#000000" points="872,-1465.5 872,-1495.5 1063,-1495.5 1063,-1465.5 872,-1465.5"/>
<text text-anchor="start" x="879" y="-1476.9" font-family="Arial" font-size="14.00" fill="#000000">id </text>
<text text-anchor="start" x="893.7798" y="-1476.9" font-family="Arial" font-size="14.00" fill="#666666">[bigint]</text>
<polygon fill="none" stroke="#000000" points="872,-1435.5 872,-1465.5 1063,-1465.5 1063,-1435.5 872,-1435.5"/>
<text text-anchor="start" x="879" y="-1446.9" font-family="Arial" font-size="14.00" fill="#000000">post_id </text>
<text text-anchor="start" x="928.0182" y="-1446.9" font-family="Arial" font-size="14.00" fill="#666666">[bigint]</text>
<polygon fill="none" stroke="#000000" points="872,-1405.5 872,-1435.5 1063,-1435.5 1063,-1405.5 872,-1405.5"/>
<text text-anchor="start" x="879" y="-1416.9" font-family="Arial" font-size="14.00" fill="#000000">tenant_user_id </text>
<text text-anchor="start" x="975.4824" y="-1416.9" font-family="Arial" font-size="14.00" fill="#666666">[varchar(36)]</text>
<polygon fill="none" stroke="#000000" points="872,-1375.5 872,-1405.5 1063,-1405.5 1063,-1375.5 872,-1375.5"/>
<text text-anchor="start" x="879" y="-1386.9" font-family="Arial" font-size="14.00" fill="#000000">created_at </text>
<text text-anchor="start" x="949.028" y="-1386.9" font-family="Arial" font-size="14.00" fill="#666666">[datetime]</text>
<polygon fill="none" stroke="#000000" points="872,-1345.5 872,-1375.5 1063,-1375.5 1063,-1345.5 872,-1345.5"/>
<text text-anchor="start" x="879" y="-1356.9" font-family="Arial" font-size="14.00" fill="#000000">updated_at </text>
<text text-anchor="start" x="952.9326" y="-1356.9" font-family="Arial" font-size="14.00" fill="#666666">[datetime]</text>
</g>
<!-- post_likes&#45;&gt;posts -->
<g id="edge3" class="edge">
<title>post_likes:post_id&#45;&gt;posts:id</title>
<path fill="none" stroke="#000000" d="M861.9523,-1449.7138C812.0776,-1441.0887 858.0286,-1363.2436 872,-1303 877.703,-1278.4091 891.297,-1276.5909 897,-1252 906.3882,-1211.5188 938.5556,-1158.5 897,-1158.5"/>
<polygon fill="#000000" stroke="#000000" points="862.0305,-1449.7198 871.6489,-1454.9863 867.0152,-1450.1099 872,-1450.5 872,-1450.5 872,-1450.5 867.0152,-1450.1099 872.3511,-1446.0137 862.0305,-1449.7198 862.0305,-1449.7198"/>

</g>
<!-- post_likes&#45;&gt;tenant_users -->
<g id="edge4" class="edge">
<title>post_likes:tenant_user_id&#45;&gt;tenant_users:id</title>
<path fill="none" stroke="#000000" d="M1073.2262,-1419.3936C1200.6194,-1390.162 979.1215,-791.5 834,-791.5"/>
<polygon fill="#000000" stroke="#000000" points="1072.942,-1419.4242 1062.5159,-1416.0261 1067.971,-1419.9621 1063,-1420.5 1063,-1420.5 1063,-1420.5 1067.971,-1419.9621 1063.4841,-1424.9739 1072.942,-1419.4242 1072.942,-1419.4242"/>

</g>
<!-- posts&#45;&gt;tenant_users -->
<g id="edge5" class="edge">
<title>posts:posted_by_id&#45;&gt;tenant_users:id</title>
<path fill="none" stroke="#000000" d="M707.0512,-1037.4182C667.8072,-1028.0493 688.1561,-960.0534 717,-921 749.3226,-877.2365 801.6774,-928.7635 834,-885 858.6882,-851.5731 875.5556,-791.5 834,-791.5"/>
<polygon fill="#000000" stroke="#000000" points="707.0586,-1037.4189 716.5135,-1042.9736 712.0293,-1037.9595 717,-1038.5 717,-1038.5 717,-1038.5 712.0293,-1037.9595 717.4865,-1034.0264 707.0586,-1037.4189 707.0586,-1037.4189"/>

</g>
<!-- tenants -->
<g id="node10" class="node">
<title>tenants</title>
<polygon fill="#efefef" stroke="transparent" points="816,-469.5 816,-504.5 986,-504.5 986,-469.5 816,-469.5"/>
<polygon fill="none" stroke="#000000" points="816,-469.5 816,-504.5 986,-504.5 986,-469.5 816,-469.5"/>
<text text-anchor="start" x="822.8585" y="-482.3" font-family="Arial Bold" font-size="18.00" fill="#000000">tenants</text>
<text text-anchor="start" x="881.8877" y="-482.3" font-family="Arial" font-size="14.00" fill="#000000"> </text>

<polygon fill="none" stroke="#000000" points="816,-439.5 816,-469.5 986,-469.5 986,-439.5 816,-439.5"/>
<text text-anchor="start" x="823" y="-450.9" font-family="Arial" font-size="14.00" fill="#000000">id </text>
<text text-anchor="start" x="837.7798" y="-450.9" font-family="Arial" font-size="14.00" fill="#666666">[varchar(36)]</text>
<polygon fill="none" stroke="#000000" points="816,-409.5 816,-439.5 986,-439.5 986,-409.5 816,-409.5"/>
<text text-anchor="start" x="823" y="-420.9" font-family="Arial" font-size="14.00" fill="#000000">name </text>
<text text-anchor="start" x="861.899" y="-420.9" font-family="Arial" font-size="14.00" fill="#666666">[varchar(255)]</text>
<polygon fill="none" stroke="#000000" points="816,-379.5 816,-409.5 986,-409.5 986,-379.5 816,-379.5"/>
<text text-anchor="start" x="823" y="-390.9" font-family="Arial" font-size="14.00" fill="#000000">service_plan_id </text>
<text text-anchor="start" x="924.1318" y="-390.9" font-family="Arial" font-size="14.00" fill="#666666">[int]</text>
<polygon fill="none" stroke="#000000" points="816,-349.5 816,-379.5 986,-379.5 986,-349.5 816,-349.5"/>
<text text-anchor="start" x="823" y="-360.9" font-family="Arial" font-size="14.00" fill="#000000">created_at </text>
<text text-anchor="start" x="893.028" y="-360.9" font-family="Arial" font-size="14.00" fill="#666666">[datetime]</text>
<polygon fill="none" stroke="#000000" points="816,-319.5 816,-349.5 986,-349.5 986,-319.5 816,-319.5"/>
<text text-anchor="start" x="823" y="-330.9" font-family="Arial" font-size="14.00" fill="#000000">updated_at </text>
<text text-anchor="start" x="896.9326" y="-330.9" font-family="Arial" font-size="14.00" fill="#666666">[datetime]</text>
</g>
<!-- posts&#45;&gt;tenants -->
<g id="edge6" class="edge">
<title>posts:tenant_id&#45;&gt;tenants:id</title>
<path fill="none" stroke="#000000" d="M907.0141,-1068.2278C1174.8593,-1053.6013 1258.3748,-454.5 986,-454.5"/>
<polygon fill="#000000" stroke="#000000" points="906.9963,-1068.2281 896.8777,-1064.0017 901.9982,-1068.3641 897,-1068.5 897,-1068.5 897,-1068.5 901.9982,-1068.3641 897.1223,-1072.9983 906.9963,-1068.2281 906.9963,-1068.2281"/>

</g>
<!-- right_role_mappings -->
<g id="node5" class="node">
<title>right_role_mappings</title>
<polygon fill="#efefef" stroke="transparent" points="240,-791.5 240,-826.5 514,-826.5 514,-791.5 240,-791.5"/>
<polygon fill="none" stroke="#000000" points="240,-791.5 240,-826.5 514,-826.5 514,-791.5 240,-791.5"/>
<text text-anchor="start" x="246.8583" y="-804.3" font-family="Arial Bold" font-size="18.00" fill="#000000">right_role_mappings</text>
<text text-anchor="start" x="409.8879" y="-804.3" font-family="Arial" font-size="14.00" fill="#000000"> </text>

<polygon fill="none" stroke="#000000" points="240,-761.5 240,-791.5 514,-791.5 514,-761.5 240,-761.5"/>
<text text-anchor="start" x="247" y="-772.9" font-family="Arial" font-size="14.00" fill="#000000">id </text>
<text text-anchor="start" x="261.7798" y="-772.9" font-family="Arial" font-size="14.00" fill="#666666">[int]</text>
<polygon fill="none" stroke="#000000" points="240,-731.5 240,-761.5 514,-761.5 514,-731.5 240,-731.5"/>
<text text-anchor="start" x="247" y="-742.9" font-family="Arial" font-size="14.00" fill="#000000">right_id </text>
<text text-anchor="start" x="296.7854" y="-742.9" font-family="Arial" font-size="14.00" fill="#666666">[int]</text>
<polygon fill="none" stroke="#000000" points="240,-701.5 240,-731.5 514,-731.5 514,-701.5 240,-701.5"/>
<text text-anchor="start" x="247" y="-712.9" font-family="Arial" font-size="14.00" fill="#000000">role_id </text>
<text text-anchor="start" x="292.8948" y="-712.9" font-family="Arial" font-size="14.00" fill="#666666">[int]</text>
<polygon fill="none" stroke="#000000" points="240,-671.5 240,-701.5 514,-701.5 514,-671.5 240,-671.5"/>
<text text-anchor="start" x="247" y="-682.9" font-family="Arial" font-size="14.00" fill="#000000">created_at </text>
<text text-anchor="start" x="317.028" y="-682.9" font-family="Arial" font-size="14.00" fill="#666666">[datetime]</text>
<polygon fill="none" stroke="#000000" points="240,-641.5 240,-671.5 514,-671.5 514,-641.5 240,-641.5"/>
<text text-anchor="start" x="247" y="-652.9" font-family="Arial" font-size="14.00" fill="#000000">updated_at </text>
<text text-anchor="start" x="320.9326" y="-652.9" font-family="Arial" font-size="14.00" fill="#666666">[datetime]</text>
</g>
<!-- rights -->
<g id="node6" class="node">
<title>rights</title>
<polygon fill="#efefef" stroke="transparent" points="299,-454.5 299,-489.5 454,-489.5 454,-454.5 299,-454.5"/>
<polygon fill="none" stroke="#000000" points="299,-454.5 299,-489.5 454,-489.5 454,-454.5 299,-454.5"/>
<text text-anchor="start" x="305.8726" y="-467.3" font-family="Arial Bold" font-size="18.00" fill="#000000">rights</text>
<text text-anchor="start" x="349.8736" y="-467.3" font-family="Arial" font-size="14.00" fill="#000000"> </text>

<polygon fill="none" stroke="#000000" points="299,-424.5 299,-454.5 454,-454.5 454,-424.5 299,-424.5"/>
<text text-anchor="start" x="306" y="-435.9" font-family="Arial" font-size="14.00" fill="#000000">id </text>
<text text-anchor="start" x="320.7798" y="-435.9" font-family="Arial" font-size="14.00" fill="#666666">[int]</text>
<polygon fill="none" stroke="#000000" points="299,-394.5 299,-424.5 454,-424.5 454,-394.5 299,-394.5"/>
<text text-anchor="start" x="306" y="-405.9" font-family="Arial" font-size="14.00" fill="#000000">name </text>
<text text-anchor="start" x="344.899" y="-405.9" font-family="Arial" font-size="14.00" fill="#666666">[varchar(255)]</text>
<polygon fill="none" stroke="#000000" points="299,-364.5 299,-394.5 454,-394.5 454,-364.5 299,-364.5"/>
<text text-anchor="start" x="306" y="-375.9" font-family="Arial" font-size="14.00" fill="#000000">created_at </text>
<text text-anchor="start" x="376.028" y="-375.9" font-family="Arial" font-size="14.00" fill="#666666">[datetime]</text>
<polygon fill="none" stroke="#000000" points="299,-334.5 299,-364.5 454,-364.5 454,-334.5 299,-334.5"/>
<text text-anchor="start" x="306" y="-345.9" font-family="Arial" font-size="14.00" fill="#000000">updated_at </text>
<text text-anchor="start" x="379.9326" y="-345.9" font-family="Arial" font-size="14.00" fill="#666666">[datetime]</text>
</g>
<!-- right_role_mappings&#45;&gt;rights -->
<g id="edge7" class="edge">
<title>right_role_mappings:right_id&#45;&gt;rights:id</title>
<path fill="none" stroke="#000000" d="M229.7334,-745.6129C177.5002,-735.9008 203.2756,-648.7575 240,-599 299.1057,-518.9183 394.8943,-613.0817 454,-533 478.6773,-499.565 495.5556,-439.5 454,-439.5"/>
<polygon fill="#000000" stroke="#000000" points="230.0371,-745.639 239.6126,-750.9833 235.0186,-746.0695 240,-746.5 240,-746.5 240,-746.5 235.0186,-746.0695 240.3874,-742.0167 230.0371,-745.639 230.0371,-745.639"/>

</g>
<!-- roles -->
<g id="node7" class="node">
<title>roles</title>
<polygon fill="#efefef" stroke="transparent" points="562,-469.5 562,-504.5 712,-504.5 712,-469.5 562,-469.5"/>
<polygon fill="none" stroke="#000000" points="562,-469.5 562,-504.5 712,-504.5 712,-469.5 562,-469.5"/>
<text text-anchor="start" x="568.8737" y="-482.3" font-family="Arial Bold" font-size="18.00" fill="#000000">roles</text>
<text text-anchor="start" x="607.8725" y="-482.3" font-family="Arial" font-size="14.00" fill="#000000"> </text>

<polygon fill="none" stroke="#000000" points="562,-439.5 562,-469.5 712,-469.5 712,-439.5 562,-439.5"/>
<text text-anchor="start" x="569" y="-450.9" font-family="Arial" font-size="14.00" fill="#000000">id </text>
<text text-anchor="start" x="583.7798" y="-450.9" font-family="Arial" font-size="14.00" fill="#666666">[int]</text>
<polygon fill="none" stroke="#000000" points="562,-409.5 562,-439.5 712,-439.5 712,-409.5 562,-409.5"/>
<text text-anchor="start" x="569" y="-420.9" font-family="Arial" font-size="14.00" fill="#000000">name </text>
<text text-anchor="start" x="607.899" y="-420.9" font-family="Arial" font-size="14.00" fill="#666666">[varchar(255)]</text>
<polygon fill="none" stroke="#000000" points="562,-379.5 562,-409.5 712,-409.5 712,-379.5 562,-379.5"/>
<text text-anchor="start" x="569" y="-390.9" font-family="Arial" font-size="14.00" fill="#000000">service_plan_id </text>
<text text-anchor="start" x="670.1318" y="-390.9" font-family="Arial" font-size="14.00" fill="#666666">[int]</text>
<polygon fill="none" stroke="#000000" points="562,-349.5 562,-379.5 712,-379.5 712,-349.5 562,-349.5"/>
<text text-anchor="start" x="569" y="-360.9" font-family="Arial" font-size="14.00" fill="#000000">created_at </text>
<text text-anchor="start" x="639.028" y="-360.9" font-family="Arial" font-size="14.00" fill="#666666">[datetime]</text>
<polygon fill="none" stroke="#000000" points="562,-319.5 562,-349.5 712,-349.5 712,-319.5 562,-319.5"/>
<text text-anchor="start" x="569" y="-330.9" font-family="Arial" font-size="14.00" fill="#000000">updated_at </text>
<text text-anchor="start" x="642.9326" y="-330.9" font-family="Arial" font-size="14.00" fill="#666666">[datetime]</text>
</g>
<!-- right_role_mappings&#45;&gt;roles -->
<g id="edge8" class="edge">
<title>right_role_mappings:role_id&#45;&gt;roles:id</title>
<path fill="none" stroke="#000000" d="M524.2173,-715.7484C620.8846,-700.3809 447.3169,-454.5 562,-454.5"/>
<polygon fill="#000000" stroke="#000000" points="523.9731,-715.7663 513.6698,-712.0121 518.9865,-716.1331 514,-716.5 514,-716.5 514,-716.5 518.9865,-716.1331 514.3302,-720.9879 523.9731,-715.7663 523.9731,-715.7663"/>

</g>
<!-- service_plans -->
<g id="node8" class="node">
<title>service_plans</title>
<polygon fill="#efefef" stroke="transparent" points="658,-162.5 658,-197.5 879,-197.5 879,-162.5 658,-162.5"/>
<polygon fill="none" stroke="#000000" points="658,-162.5 658,-197.5 879,-197.5 879,-162.5 658,-162.5"/>
<text text-anchor="start" x="664.8642" y="-175.3" font-family="Arial Bold" font-size="18.00" fill="#000000">service_plans</text>
<text text-anchor="start" x="774.882" y="-175.3" font-family="Arial" font-size="14.00" fill="#000000"> </text>

<polygon fill="none" stroke="#000000" points="658,-132.5 658,-162.5 879,-162.5 879,-132.5 658,-132.5"/>
<text text-anchor="start" x="665" y="-143.9" font-family="Arial" font-size="14.00" fill="#000000">id </text>
<text text-anchor="start" x="679.7798" y="-143.9" font-family="Arial" font-size="14.00" fill="#666666">[int]</text>
<polygon fill="none" stroke="#000000" points="658,-102.5 658,-132.5 879,-132.5 879,-102.5 658,-102.5"/>
<text text-anchor="start" x="665" y="-113.9" font-family="Arial" font-size="14.00" fill="#000000">name </text>
<text text-anchor="start" x="703.899" y="-113.9" font-family="Arial" font-size="14.00" fill="#666666">[varchar(255)]</text>
<polygon fill="none" stroke="#000000" points="658,-72.5 658,-102.5 879,-102.5 879,-72.5 658,-72.5"/>
<text text-anchor="start" x="665" y="-83.9" font-family="Arial" font-size="14.00" fill="#000000">created_at </text>
<text text-anchor="start" x="735.028" y="-83.9" font-family="Arial" font-size="14.00" fill="#666666">[datetime]</text>
<polygon fill="none" stroke="#000000" points="658,-42.5 658,-72.5 879,-72.5 879,-42.5 658,-42.5"/>
<text text-anchor="start" x="665" y="-53.9" font-family="Arial" font-size="14.00" fill="#000000">updated_at </text>
<text text-anchor="start" x="738.9326" y="-53.9" font-family="Arial" font-size="14.00" fill="#666666">[datetime]</text>
</g>
<!-- roles&#45;&gt;service_plans -->
<g id="edge9" class="edge">
<title>roles:service_plan_id&#45;&gt;service_plans:id</title>
<path fill="none" stroke="#000000" d="M722.3427,-393.3588C760.1444,-384.0331 734.8126,-319.6258 712,-277 698.3895,-251.5686 671.6105,-266.4314 658,-241 638.3917,-204.3615 616.4444,-147.5 658,-147.5"/>
<polygon fill="#000000" stroke="#000000" points="721.9397,-393.4031 711.5064,-390.0271 716.9698,-393.9516 712,-394.5 712,-394.5 712,-394.5 716.9698,-393.9516 712.4936,-398.9729 721.9397,-393.4031 721.9397,-393.4031"/>

</g>
<!-- tenant_users&#45;&gt;roles -->
<g id="edge10" class="edge">
<title>tenant_users:role_id&#45;&gt;roles:id</title>
<path fill="none" stroke="#000000" d="M608.5827,-700.3134C570.1854,-690.6258 591.6724,-623.882 619,-584 644.0529,-547.4377 686.9471,-584.5623 712,-548 735.4891,-513.7199 753.5556,-454.5 712,-454.5"/>
<polygon fill="#000000" stroke="#000000" points="609.0642,-700.3682 618.4907,-705.9711 614.0321,-700.9341 619,-701.5 619,-701.5 619,-701.5 614.0321,-700.9341 619.5093,-697.0289 609.0642,-700.3682 609.0642,-700.3682"/>

</g>
<!-- tenant_users&#45;&gt;tenants -->
<g id="edge11" class="edge">
<title>tenant_users:tenant_id&#45;&gt;tenants:id</title>
<path fill="none" stroke="#000000" d="M844.0499,-730.7133C893.9492,-722.0824 848.2085,-644.1881 834,-584 829.8901,-566.59 820.1099,-565.41 816,-548 806.4525,-507.5561 774.4444,-454.5 816,-454.5"/>
<polygon fill="#000000" stroke="#000000" points="843.9695,-730.7195 833.6488,-727.0137 838.9848,-731.1097 834,-731.5 834,-731.5 834,-731.5 838.9848,-731.1097 834.3512,-735.9863 843.9695,-730.7195 843.9695,-730.7195"/>

</g>
<!-- tenants&#45;&gt;service_plans -->
<g id="edge12" class="edge">
<title>tenants:service_plan_id&#45;&gt;service_plans:id</title>
<path fill="none" stroke="#000000" d="M805.6333,-393.3454C767.6398,-383.9128 791.7337,-318.8152 816,-277 832.1867,-249.1075 862.8133,-268.8925 879,-241 899.8578,-205.0582 920.5556,-147.5 879,-147.5"/>
<polygon fill="#000000" stroke="#000000" points="806.0615,-393.393 815.5018,-398.9723 811.0307,-393.9465 816,-394.5 816,-394.5 816,-394.5 811.0307,-393.9465 816.4982,-390.0277 806.0615,-393.393 806.0615,-393.393"/>

</g>
</g>
</svg>
