<?xml version="1.0" encoding="UTF-8" standalone="no"?>
<!DOCTYPE svg PUBLIC "-//W3C//DTD SVG 1.1//EN"
 "http://www.w3.org/Graphics/SVG/1.1/DTD/svg11.dtd">
<!-- Generated by graphviz version 2.40.1 (20161225.0304)
 -->
<!-- Title: service_plans Pages: 1 -->
<svg width="1376pt" height="1603pt"
 viewBox="0.00 0.00 1376.00 1603.00" xmlns="http://www.w3.org/2000/svg" xmlns:xlink="http://www.w3.org/1999/xlink">
<g id="graph0" class="graph" transform="scale(1 1) rotate(0) translate(4 1599)">
<title>service_plans</title>
<polygon fill="#ffffff" stroke="transparent" points="-4,4 -4,-1599 1372,-1599 1372,4 -4,4"/>
<!-- service_plans -->
<g id="node1" class="node">
<title>service_plans</title>
<polygon fill="#efefef" stroke="transparent" points="658,-165.5 658,-200.5 879,-200.5 879,-165.5 658,-165.5"/>
<polygon fill="none" stroke="#000000" points="658,-165.5 658,-200.5 879,-200.5 879,-165.5 658,-165.5"/>
<text text-anchor="start" x="664.8642" y="-178.3" font-family="Arial Bold" font-size="18.00" fill="#000000">service_plans</text>
<text text-anchor="start" x="774.882" y="-178.3" font-family="Arial" font-size="14.00" fill="#000000"> </text>
<text text-anchor="start" x="778.7726" y="-178.3" font-family="Arial" font-size="14.00" fill="#666666">[BASE TABLE]</text>
<polygon fill="none" stroke="#000000" points="658,-135.5 658,-165.5 879,-165.5 879,-135.5 658,-135.5"/>
<text text-anchor="start" x="665" y="-146.9" font-family="Arial" font-size="14.00" fill="#000000">id </text>
<text text-anchor="start" x="679.7798" y="-146.9" font-family="Arial" font-size="14.00" fill="#666666">[int]</text>
<polygon fill="none" stroke="#000000" points="658,-105.5 658,-135.5 879,-135.5 879,-105.5 658,-105.5"/>
<text text-anchor="start" x="665" y="-116.9" font-family="Arial" font-size="14.00" fill="#000000">name </text>
<text text-anchor="start" x="703.899" y="-116.9" font-family="Arial" font-size="14.00" fill="#666666">[varchar(255)]</text>
<polygon fill="none" stroke="#000000" points="658,-75.5 658,-105.5 879,-105.5 879,-75.5 658,-75.5"/>
<text text-anchor="start" x="665" y="-86.9" font-family="Arial" font-size="14.00" fill="#000000">created_at </text>
<text text-anchor="start" x="735.028" y="-86.9" font-family="Arial" font-size="14.00" fill="#666666">[datetime]</text>
<polygon fill="none" stroke="#000000" points="658,-45.5 658,-75.5 879,-75.5 879,-45.5 658,-45.5"/>
<text text-anchor="start" x="665" y="-56.9" font-family="Arial" font-size="14.00" fill="#000000">updated_at </text>
<text text-anchor="start" x="738.9326" y="-56.9" font-family="Arial" font-size="14.00" fill="#666666">[datetime]</text>
<polygon fill="none" stroke="#000000" stroke-width="3" points="656,-44.5 656,-202.5 880,-202.5 880,-44.5 656,-44.5"/>
</g>
<!-- roles -->
<g id="node2" class="node">
<title>roles</title>
<polygon fill="#efefef" stroke="transparent" points="562,-475.5 562,-510.5 712,-510.5 712,-475.5 562,-475.5"/>
<polygon fill="none" stroke="#000000" points="562,-475.5 562,-510.5 712,-510.5 712,-475.5 562,-475.5"/>
<text text-anchor="start" x="568.8737" y="-488.3" font-family="Arial Bold" font-size="18.00" fill="#000000">roles</text>
<text text-anchor="start" x="607.8725" y="-488.3" font-family="Arial" font-size="14.00" fill="#000000"> </text>
<text text-anchor="start" x="611.7631" y="-488.3" font-family="Arial" font-size="14.00" fill="#666666">[BASE TABLE]</text>
<polygon fill="none" stroke="#000000" points="562,-445.5 562,-475.5 712,-475.5 712,-445.5 562,-445.5"/>
<text text-anchor="start" x="569" y="-456.9" font-family="Arial" font-size="14.00" fill="#000000">id </text>
<text text-anchor="start" x="583.7798" y="-456.9" font-family="Arial" font-size="14.00" fill="#666666">[int]</text>
<polygon fill="none" stroke="#000000" points="562,-415.5 562,-445.5 712,-445.5 712,-415.5 562,-415.5"/>
<text text-anchor="start" x="569" y="-426.9" font-family="Arial" font-size="14.00" fill="#000000">name </text>
<text text-anchor="start" x="607.899" y="-426.9" font-family="Arial" font-size="14.00" fill="#666666">[varchar(255)]</text>
<polygon fill="none" stroke="#000000" points="562,-385.5 562,-415.5 712,-415.5 712,-385.5 562,-385.5"/>
<text text-anchor="start" x="569" y="-396.9" font-family="Arial" font-size="14.00" fill="#000000">service_plan_id </text>
<text text-anchor="start" x="670.1318" y="-396.9" font-family="Arial" font-size="14.00" fill="#666666">[int]</text>
<polygon fill="none" stroke="#000000" points="562,-355.5 562,-385.5 712,-385.5 712,-355.5 562,-355.5"/>
<text text-anchor="start" x="569" y="-366.9" font-family="Arial" font-size="14.00" fill="#000000">created_at </text>
<text text-anchor="start" x="639.028" y="-366.9" font-family="Arial" font-size="14.00" fill="#666666">[datetime]</text>
<polygon fill="none" stroke="#000000" points="562,-325.5 562,-355.5 712,-355.5 712,-325.5 562,-325.5"/>
<text text-anchor="start" x="569" y="-336.9" font-family="Arial" font-size="14.00" fill="#000000">updated_at </text>
<text text-anchor="start" x="642.9326" y="-336.9" font-family="Arial" font-size="14.00" fill="#666666">[datetime]</text>
</g>
<!-- roles&#45;&gt;service_plans -->
<g id="edge1" class="edge">
<title>roles:service_plan_id&#45;&gt;service_plans:id</title>
<path fill="none" stroke="#000000" d="M722.3427,-399.3588C760.1444,-390.0331 734.8126,-325.6258 712,-283 698.3895,-257.5686 671.6105,-272.4314 658,-247 637.7625,-209.186 615.1111,-150.5 658,-150.5"/>
<polygon fill="#000000" stroke="#000000" points="721.9397,-399.4031 711.5064,-396.0271 716.9698,-399.9516 712,-400.5 712,-400.5 712,-400.5 716.9698,-399.9516 712.4936,-404.9729 721.9397,-399.4031 721.9397,-399.4031"/>
<text text-anchor="start" x="406.271" y="-410.5" font-family="Arial" font-size="10.00" fill="#000000">FOREIGN KEY (service_plan_id) REFERENCES service_plans (id)</text>
</g>
<!-- right_role_mappings -->
<g id="node3" class="node">
<title>right_role_mappings</title>
<polygon fill="#efefef" stroke="transparent" points="240,-797.5 240,-832.5 514,-832.5 514,-797.5 240,-797.5"/>
<polygon fill="none" stroke="#000000" points="240,-797.5 240,-832.5 514,-832.5 514,-797.5 240,-797.5"/>
<text text-anchor="start" x="246.8583" y="-810.3" font-family="Arial Bold" font-size="18.00" fill="#000000">right_role_mappings</text>
<text text-anchor="start" x="409.8879" y="-810.3" font-family="Arial" font-size="14.00" fill="#000000"> </text>
<text text-anchor="start" x="413.7785" y="-810.3" font-family="Arial" font-size="14.00" fill="#666666">[BASE TABLE]</text>
<polygon fill="none" stroke="#000000" points="240,-767.5 240,-797.5 514,-797.5 514,-767.5 240,-767.5"/>
<text text-anchor="start" x="247" y="-778.9" font-family="Arial" font-size="14.00" fill="#000000">id </text>
<text text-anchor="start" x="261.7798" y="-778.9" font-family="Arial" font-size="14.00" fill="#666666">[int]</text>
<polygon fill="none" stroke="#000000" points="240,-737.5 240,-767.5 514,-767.5 514,-737.5 240,-737.5"/>
<text text-anchor="start" x="247" y="-748.9" font-family="Arial" font-size="14.00" fill="#000000">right_id </text>
<text text-anchor="start" x="296.7854" y="-748.9" font-family="Arial" font-size="14.00" fill="#666666">[int]</text>
<polygon fill="none" stroke="#000000" points="240,-707.5 240,-737.5 514,-737.5 514,-707.5 240,-707.5"/>
<text text-anchor="start" x="247" y="-718.9" font-family="Arial" font-size="14.00" fill="#000000">role_id </text>
<text text-anchor="start" x="292.8948" y="-718.9" font-family="Arial" font-size="14.00" fill="#666666">[int]</text>
<polygon fill="none" stroke="#000000" points="240,-677.5 240,-707.5 514,-707.5 514,-677.5 240,-677.5"/>
<text text-anchor="start" x="247" y="-688.9" font-family="Arial" font-size="14.00" fill="#000000">created_at </text>
<text text-anchor="start" x="317.028" y="-688.9" font-family="Arial" font-size="14.00" fill="#666666">[datetime]</text>
<polygon fill="none" stroke="#000000" points="240,-647.5 240,-677.5 514,-677.5 514,-647.5 240,-647.5"/>
<text text-anchor="start" x="247" y="-658.9" font-family="Arial" font-size="14.00" fill="#000000">updated_at </text>
<text text-anchor="start" x="320.9326" y="-658.9" font-family="Arial" font-size="14.00" fill="#666666">[datetime]</text>
</g>
<!-- right_role_mappings&#45;&gt;roles -->
<g id="edge2" class="edge">
<title>right_role_mappings:role_id&#45;&gt;roles:id</title>
<path fill="none" stroke="#000000" d="M524.2173,-721.7484C620.8846,-706.3809 447.3169,-460.5 562,-460.5"/>
<polygon fill="#000000" stroke="#000000" points="523.9731,-721.7663 513.6698,-718.0121 518.9865,-722.1331 514,-722.5 514,-722.5 514,-722.5 518.9865,-722.1331 514.3302,-726.9879 523.9731,-721.7663 523.9731,-721.7663"/>
<text text-anchor="start" x="520.726" y="-732.5" font-family="Arial" font-size="10.00" fill="#000000">FOREIGN KEY (role_id) REFERENCES roles (id)</text>
</g>
<!-- rights -->
<g id="node4" class="node">
<title>rights</title>
<polygon fill="#efefef" stroke="transparent" points="299,-460.5 299,-495.5 454,-495.5 454,-460.5 299,-460.5"/>
<polygon fill="none" stroke="#000000" points="299,-460.5 299,-495.5 454,-495.5 454,-460.5 299,-460.5"/>
<text text-anchor="start" x="305.8726" y="-473.3" font-family="Arial Bold" font-size="18.00" fill="#000000">rights</text>
<text text-anchor="start" x="349.8736" y="-473.3" font-family="Arial" font-size="14.00" fill="#000000"> </text>
<text text-anchor="start" x="353.7642" y="-473.3" font-family="Arial" font-size="14.00" fill="#666666">[BASE TABLE]</text>
<polygon fill="none" stroke="#000000" points="299,-430.5 299,-460.5 454,-460.5 454,-430.5 299,-430.5"/>
<text text-anchor="start" x="306" y="-441.9" font-family="Arial" font-size="14.00" fill="#000000">id </text>
<text text-anchor="start" x="320.7798" y="-441.9" font-family="Arial" font-size="14.00" fill="#666666">[int]</text>
<polygon fill="none" stroke="#000000" points="299,-400.5 299,-430.5 454,-430.5 454,-400.5 299,-400.5"/>
<text text-anchor="start" x="306" y="-411.9" font-family="Arial" font-size="14.00" fill="#000000">name </text>
<text text-anchor="start" x="344.899" y="-411.9" font-family="Arial" font-size="14.00" fill="#666666">[varchar(255)]</text>
<polygon fill="none" stroke="#000000" points="299,-370.5 299,-400.5 454,-400.5 454,-370.5 299,-370.5"/>
<text text-anchor="start" x="306" y="-381.9" font-family="Arial" font-size="14.00" fill="#000000">created_at </text>
<text text-anchor="start" x="376.028" y="-381.9" font-family="Arial" font-size="14.00" fill="#666666">[datetime]</text>
<polygon fill="none" stroke="#000000" points="299,-340.5 299,-370.5 454,-370.5 454,-340.5 299,-340.5"/>
<text text-anchor="start" x="306" y="-351.9" font-family="Arial" font-size="14.00" fill="#000000">updated_at </text>
<text text-anchor="start" x="379.9326" y="-351.9" font-family="Arial" font-size="14.00" fill="#666666">[datetime]</text>
</g>
<!-- right_role_mappings&#45;&gt;rights -->
<g id="edge3" class="edge">
<title>right_role_mappings:right_id&#45;&gt;rights:id</title>
<path fill="none" stroke="#000000" d="M229.7334,-751.6129C177.5002,-741.9008 203.2756,-654.7575 240,-605 299.1057,-524.9183 394.8943,-619.0817 454,-539 478.6773,-505.565 495.5556,-445.5 454,-445.5"/>
<polygon fill="#000000" stroke="#000000" points="230.0371,-751.639 239.6126,-756.9833 235.0186,-752.0695 240,-752.5 240,-752.5 240,-752.5 235.0186,-752.0695 240.3874,-748.0167 230.0371,-751.639 230.0371,-751.639"/>
<text text-anchor="start" x="6.947" y="-762.5" font-family="Arial" font-size="10.00" fill="#000000">FOREIGN KEY (right_id) REFERENCES rights (id)</text>
</g>
<!-- tenant_users -->
<g id="node5" class="node">
<title>tenant_users</title>
<polygon fill="#efefef" stroke="transparent" points="619,-812.5 619,-847.5 834,-847.5 834,-812.5 619,-812.5"/>
<polygon fill="none" stroke="#000000" points="619,-812.5 619,-847.5 834,-847.5 834,-812.5 619,-812.5"/>
<text text-anchor="start" x="625.8531" y="-825.3" font-family="Arial Bold" font-size="18.00" fill="#000000">tenant_users</text>
<text text-anchor="start" x="729.8931" y="-825.3" font-family="Arial" font-size="14.00" fill="#000000"> </text>
<text text-anchor="start" x="733.7837" y="-825.3" font-family="Arial" font-size="14.00" fill="#666666">[BASE TABLE]</text>
<polygon fill="none" stroke="#000000" points="619,-782.5 619,-812.5 834,-812.5 834,-782.5 619,-782.5"/>
<text text-anchor="start" x="626" y="-793.9" font-family="Arial" font-size="14.00" fill="#000000">id </text>
<text text-anchor="start" x="640.7798" y="-793.9" font-family="Arial" font-size="14.00" fill="#666666">[varchar(36)]</text>
<polygon fill="none" stroke="#000000" points="619,-752.5 619,-782.5 834,-782.5 834,-752.5 619,-752.5"/>
<text text-anchor="start" x="626" y="-763.9" font-family="Arial" font-size="14.00" fill="#000000">name </text>
<text text-anchor="start" x="664.899" y="-763.9" font-family="Arial" font-size="14.00" fill="#666666">[varchar(255)]</text>
<polygon fill="none" stroke="#000000" points="619,-722.5 619,-752.5 834,-752.5 834,-722.5 619,-722.5"/>
<text text-anchor="start" x="626" y="-733.9" font-family="Arial" font-size="14.00" fill="#000000">tenant_id </text>
<text text-anchor="start" x="687.474" y="-733.9" font-family="Arial" font-size="14.00" fill="#666666">[varchar(36)]</text>
<polygon fill="none" stroke="#000000" points="619,-692.5 619,-722.5 834,-722.5 834,-692.5 619,-692.5"/>
<text text-anchor="start" x="626" y="-703.9" font-family="Arial" font-size="14.00" fill="#000000">role_id </text>
<text text-anchor="start" x="671.8948" y="-703.9" font-family="Arial" font-size="14.00" fill="#666666">[int]</text>
<polygon fill="none" stroke="#000000" points="619,-662.5 619,-692.5 834,-692.5 834,-662.5 619,-662.5"/>
<text text-anchor="start" x="626" y="-673.9" font-family="Arial" font-size="14.00" fill="#000000">created_at </text>
<text text-anchor="start" x="696.028" y="-673.9" font-family="Arial" font-size="14.00" fill="#666666">[datetime]</text>
<polygon fill="none" stroke="#000000" points="619,-632.5 619,-662.5 834,-662.5 834,-632.5 619,-632.5"/>
<text text-anchor="start" x="626" y="-643.9" font-family="Arial" font-size="14.00" fill="#000000">updated_at </text>
<text text-anchor="start" x="699.9326" y="-643.9" font-family="Arial" font-size="14.00" fill="#666666">[datetime]</text>
</g>
<!-- tenant_users&#45;&gt;roles -->
<g id="edge4" class="edge">
<title>tenant_users:role_id&#45;&gt;roles:id</title>
<path fill="none" stroke="#000000" d="M608.5827,-706.3134C570.1854,-696.6258 591.6724,-629.882 619,-590 644.0529,-553.4377 686.9471,-590.5623 712,-554 735.4891,-519.7199 753.5556,-460.5 712,-460.5"/>
<polygon fill="#000000" stroke="#000000" points="609.0642,-706.3682 618.4907,-711.9711 614.0321,-706.9341 619,-707.5 619,-707.5 619,-707.5 614.0321,-706.9341 619.5093,-703.0289 609.0642,-706.3682 609.0642,-706.3682"/>
<text text-anchor="start" x="567.226" y="-691.5" font-family="Arial" font-size="10.00" fill="#000000">FOREIGN KEY (role_id) REFERENCES roles (id)</text>
</g>
<!-- tenants -->
<g id="node9" class="node">
<title>tenants</title>
<polygon fill="#efefef" stroke="transparent" points="816,-475.5 816,-510.5 986,-510.5 986,-475.5 816,-475.5"/>
<polygon fill="none" stroke="#000000" points="816,-475.5 816,-510.5 986,-510.5 986,-475.5 816,-475.5"/>
<text text-anchor="start" x="822.8585" y="-488.3" font-family="Arial Bold" font-size="18.00" fill="#000000">tenants</text>
<text text-anchor="start" x="881.8877" y="-488.3" font-family="Arial" font-size="14.00" fill="#000000"> </text>
<text text-anchor="start" x="885.7783" y="-488.3" font-family="Arial" font-size="14.00" fill="#666666">[BASE TABLE]</text>
<polygon fill="none" stroke="#000000" points="816,-445.5 816,-475.5 986,-475.5 986,-445.5 816,-445.5"/>
<text text-anchor="start" x="823" y="-456.9" font-family="Arial" font-size="14.00" fill="#000000">id </text>
<text text-anchor="start" x="837.7798" y="-456.9" font-family="Arial" font-size="14.00" fill="#666666">[varchar(36)]</text>
<polygon fill="none" stroke="#000000" points="816,-415.5 816,-445.5 986,-445.5 986,-415.5 816,-415.5"/>
<text text-anchor="start" x="823" y="-426.9" font-family="Arial" font-size="14.00" fill="#000000">name </text>
<text text-anchor="start" x="861.899" y="-426.9" font-family="Arial" font-size="14.00" fill="#666666">[varchar(255)]</text>
<polygon fill="none" stroke="#000000" points="816,-385.5 816,-415.5 986,-415.5 986,-385.5 816,-385.5"/>
<text text-anchor="start" x="823" y="-396.9" font-family="Arial" font-size="14.00" fill="#000000">service_plan_id </text>
<text text-anchor="start" x="924.1318" y="-396.9" font-family="Arial" font-size="14.00" fill="#666666">[int]</text>
<polygon fill="none" stroke="#000000" points="816,-355.5 816,-385.5 986,-385.5 986,-355.5 816,-355.5"/>
<text text-anchor="start" x="823" y="-366.9" font-family="Arial" font-size="14.00" fill="#000000">created_at </text>
<text text-anchor="start" x="893.028" y="-366.9" font-family="Arial" font-size="14.00" fill="#666666">[datetime]</text>
<polygon fill="none" stroke="#000000" points="816,-325.5 816,-355.5 986,-355.5 986,-325.5 816,-325.5"/>
<text text-anchor="start" x="823" y="-336.9" font-family="Arial" font-size="14.00" fill="#000000">updated_at </text>
<text text-anchor="start" x="896.9326" y="-336.9" font-family="Arial" font-size="14.00" fill="#666666">[datetime]</text>
</g>
<!-- tenant_users&#45;&gt;tenants -->
<g id="edge8" class="edge">
<title>tenant_users:tenant_id&#45;&gt;tenants:id</title>
<path fill="none" stroke="#000000" d="M844.0499,-736.7133C893.9492,-728.0824 848.2085,-650.1881 834,-590 829.8901,-572.59 820.1099,-571.41 816,-554 806.4525,-513.5561 774.4444,-460.5 816,-460.5"/>
<polygon fill="#000000" stroke="#000000" points="843.9695,-736.7195 833.6488,-733.0137 838.9848,-737.1097 834,-737.5 834,-737.5 834,-737.5 838.9848,-737.1097 834.3512,-741.9863 843.9695,-736.7195 843.9695,-736.7195"/>
<text text-anchor="start" x="840.598" y="-747.5" font-family="Arial" font-size="10.00" fill="#000000">FOREIGN KEY (tenant_id) REFERENCES tenants (id)</text>
</g>
<!-- post_comments -->
<g id="node6" class="node">
<title>post_comments</title>
<polygon fill="#efefef" stroke="transparent" points="528,-1516.5 528,-1551.5 766,-1551.5 766,-1516.5 528,-1516.5"/>
<polygon fill="none" stroke="#000000" points="528,-1516.5 528,-1551.5 766,-1551.5 766,-1516.5 528,-1516.5"/>
<text text-anchor="start" x="534.8601" y="-1529.3" font-family="Arial Bold" font-size="18.00" fill="#000000">post_comments</text>
<text text-anchor="start" x="661.8861" y="-1529.3" font-family="Arial" font-size="14.00" fill="#000000"> </text>
<text text-anchor="start" x="665.7767" y="-1529.3" font-family="Arial" font-size="14.00" fill="#666666">[BASE TABLE]</text>
<polygon fill="none" stroke="#000000" points="528,-1486.5 528,-1516.5 766,-1516.5 766,-1486.5 528,-1486.5"/>
<text text-anchor="start" x="535" y="-1497.9" font-family="Arial" font-size="14.00" fill="#000000">id </text>
<text text-anchor="start" x="549.7798" y="-1497.9" font-family="Arial" font-size="14.00" fill="#666666">[bigint]</text>
<polygon fill="none" stroke="#000000" points="528,-1456.5 528,-1486.5 766,-1486.5 766,-1456.5 528,-1456.5"/>
<text text-anchor="start" x="535" y="-1467.9" font-family="Arial" font-size="14.00" fill="#000000">post_id </text>
<text text-anchor="start" x="584.0182" y="-1467.9" font-family="Arial" font-size="14.00" fill="#666666">[bigint]</text>
<polygon fill="none" stroke="#000000" points="528,-1426.5 528,-1456.5 766,-1456.5 766,-1426.5 528,-1426.5"/>
<text text-anchor="start" x="535" y="-1437.9" font-family="Arial" font-size="14.00" fill="#000000">tenant_user_id </text>
<text text-anchor="start" x="631.4824" y="-1437.9" font-family="Arial" font-size="14.00" fill="#666666">[varchar(36)]</text>
<polygon fill="none" stroke="#000000" points="528,-1396.5 528,-1426.5 766,-1426.5 766,-1396.5 528,-1396.5"/>
<text text-anchor="start" x="535" y="-1407.9" font-family="Arial" font-size="14.00" fill="#000000">comment </text>
<text text-anchor="start" x="596.4502" y="-1407.9" font-family="Arial" font-size="14.00" fill="#666666">[varchar(255)]</text>
<polygon fill="none" stroke="#000000" points="528,-1366.5 528,-1396.5 766,-1396.5 766,-1366.5 528,-1366.5"/>
<text text-anchor="start" x="535" y="-1377.9" font-family="Arial" font-size="14.00" fill="#000000">created_at </text>
<text text-anchor="start" x="605.028" y="-1377.9" font-family="Arial" font-size="14.00" fill="#666666">[datetime]</text>
<polygon fill="none" stroke="#000000" points="528,-1336.5 528,-1366.5 766,-1366.5 766,-1336.5 528,-1336.5"/>
<text text-anchor="start" x="535" y="-1347.9" font-family="Arial" font-size="14.00" fill="#000000">updated_at </text>
<text text-anchor="start" x="608.9326" y="-1347.9" font-family="Arial" font-size="14.00" fill="#666666">[datetime]</text>
</g>
<!-- post_comments&#45;&gt;tenant_users -->
<g id="edge5" class="edge">
<title>post_comments:tenant_user_id&#45;&gt;tenant_users:id</title>
<path fill="none" stroke="#000000" d="M518.5607,-1437.0437C464.5757,-1380.1448 550.2622,-797.5 619,-797.5"/>
<polygon fill="#000000" stroke="#000000" points="518.9571,-1437.2308 526.0789,-1445.5693 523.4785,-1439.3654 528,-1441.5 528,-1441.5 528,-1441.5 523.4785,-1439.3654 529.9211,-1437.4307 518.9571,-1437.2308 518.9571,-1437.2308"/>
<text text-anchor="start" x="228.592" y="-1451.5" font-family="Arial" font-size="10.00" fill="#000000">FOREIGN KEY (tenant_user_id) REFERENCES tenant_users (id)</text>
</g>
<!-- posts -->
<g id="node8" class="node">
<title>posts</title>
<polygon fill="#efefef" stroke="transparent" points="717,-1179.5 717,-1214.5 897,-1214.5 897,-1179.5 717,-1179.5"/>
<polygon fill="none" stroke="#000000" points="717,-1179.5 717,-1214.5 897,-1214.5 897,-1179.5 717,-1179.5"/>
<text text-anchor="start" x="736.8658" y="-1192.3" font-family="Arial Bold" font-size="18.00" fill="#000000">posts</text>
<text text-anchor="start" x="779.8804" y="-1192.3" font-family="Arial" font-size="14.00" fill="#000000"> </text>
<text text-anchor="start" x="783.771" y="-1192.3" font-family="Arial" font-size="14.00" fill="#666666">[BASE TABLE]</text>
<polygon fill="none" stroke="#000000" points="717,-1149.5 717,-1179.5 897,-1179.5 897,-1149.5 717,-1149.5"/>
<text text-anchor="start" x="724" y="-1160.9" font-family="Arial" font-size="14.00" fill="#000000">id </text>
<text text-anchor="start" x="738.7798" y="-1160.9" font-family="Arial" font-size="14.00" fill="#666666">[bigint]</text>
<polygon fill="none" stroke="#000000" points="717,-1119.5 717,-1149.5 897,-1149.5 897,-1119.5 717,-1119.5"/>
<text text-anchor="start" x="724" y="-1130.9" font-family="Arial" font-size="14.00" fill="#000000">title </text>
<text text-anchor="start" x="749.6676" y="-1130.9" font-family="Arial" font-size="14.00" fill="#666666">[varchar(255)]</text>
<polygon fill="none" stroke="#000000" points="717,-1089.5 717,-1119.5 897,-1119.5 897,-1089.5 717,-1089.5"/>
<text text-anchor="start" x="724" y="-1100.9" font-family="Arial" font-size="14.00" fill="#000000">detail </text>
<text text-anchor="start" x="761.3422" y="-1100.9" font-family="Arial" font-size="14.00" fill="#666666">[varchar(255)]</text>
<polygon fill="none" stroke="#000000" points="717,-1059.5 717,-1089.5 897,-1089.5 897,-1059.5 717,-1059.5"/>
<text text-anchor="start" x="724" y="-1070.9" font-family="Arial" font-size="14.00" fill="#000000">tenant_id </text>
<text text-anchor="start" x="785.474" y="-1070.9" font-family="Arial" font-size="14.00" fill="#666666">[varchar(36)]</text>
<polygon fill="none" stroke="#000000" points="717,-1029.5 717,-1059.5 897,-1059.5 897,-1029.5 717,-1029.5"/>
<text text-anchor="start" x="723.7574" y="-1040.9" font-family="Arial" font-size="14.00" fill="#000000">posted_by_id </text>
<text text-anchor="start" x="810.906" y="-1040.9" font-family="Arial" font-size="14.00" fill="#666666">[varchar(36)]</text>
<polygon fill="none" stroke="#000000" points="717,-999.5 717,-1029.5 897,-1029.5 897,-999.5 717,-999.5"/>
<text text-anchor="start" x="724" y="-1010.9" font-family="Arial" font-size="14.00" fill="#000000">created_at </text>
<text text-anchor="start" x="794.028" y="-1010.9" font-family="Arial" font-size="14.00" fill="#666666">[datetime]</text>
<polygon fill="none" stroke="#000000" points="717,-969.5 717,-999.5 897,-999.5 897,-969.5 717,-969.5"/>
<text text-anchor="start" x="724" y="-980.9" font-family="Arial" font-size="14.00" fill="#000000">updated_at </text>
<text text-anchor="start" x="797.9326" y="-980.9" font-family="Arial" font-size="14.00" fill="#666666">[datetime]</text>
</g>
<!-- post_comments&#45;&gt;posts -->
<g id="edge11" class="edge">
<title>post_comments:post_id&#45;&gt;posts:id</title>
<path fill="none" stroke="#000000" d="M776.3019,-1470.8087C840.8499,-1461.5387 799.9578,-1361.0861 766,-1294 753.7956,-1269.8893 729.2044,-1282.1107 717,-1258 698.2326,-1220.9237 675.4444,-1164.5 717,-1164.5"/>
<polygon fill="#000000" stroke="#000000" points="775.9776,-1470.8304 765.6987,-1467.0101 770.9888,-1471.1652 766,-1471.5 766,-1471.5 766,-1471.5 770.9888,-1471.1652 766.3013,-1475.9899 775.9776,-1470.8304 775.9776,-1470.8304"/>
<text text-anchor="start" x="773.495" y="-1481.5" font-family="Arial" font-size="10.00" fill="#000000">FOREIGN KEY (post_id) REFERENCES posts (id)</text>
</g>
<!-- post_likes -->
<g id="node7" class="node">
<title>post_likes</title>
<polygon fill="#efefef" stroke="transparent" points="871,-1501.5 871,-1536.5 1062,-1536.5 1062,-1501.5 871,-1501.5"/>
<polygon fill="none" stroke="#000000" points="871,-1501.5 871,-1536.5 1062,-1536.5 1062,-1501.5 871,-1501.5"/>
<text text-anchor="start" x="877.8654" y="-1514.3" font-family="Arial Bold" font-size="18.00" fill="#000000">post_likes</text>
<text text-anchor="start" x="957.8808" y="-1514.3" font-family="Arial" font-size="14.00" fill="#000000"> </text>
<text text-anchor="start" x="961.7714" y="-1514.3" font-family="Arial" font-size="14.00" fill="#666666">[BASE TABLE]</text>
<polygon fill="none" stroke="#000000" points="871,-1471.5 871,-1501.5 1062,-1501.5 1062,-1471.5 871,-1471.5"/>
<text text-anchor="start" x="878" y="-1482.9" font-family="Arial" font-size="14.00" fill="#000000">id </text>
<text text-anchor="start" x="892.7798" y="-1482.9" font-family="Arial" font-size="14.00" fill="#666666">[bigint]</text>
<polygon fill="none" stroke="#000000" points="871,-1441.5 871,-1471.5 1062,-1471.5 1062,-1441.5 871,-1441.5"/>
<text text-anchor="start" x="878" y="-1452.9" font-family="Arial" font-size="14.00" fill="#000000">post_id </text>
<text text-anchor="start" x="927.0182" y="-1452.9" font-family="Arial" font-size="14.00" fill="#666666">[bigint]</text>
<polygon fill="none" stroke="#000000" points="871,-1411.5 871,-1441.5 1062,-1441.5 1062,-1411.5 871,-1411.5"/>
<text text-anchor="start" x="878" y="-1422.9" font-family="Arial" font-size="14.00" fill="#000000">tenant_user_id </text>
<text text-anchor="start" x="974.4824" y="-1422.9" font-family="Arial" font-size="14.00" fill="#666666">[varchar(36)]</text>
<polygon fill="none" stroke="#000000" points="871,-1381.5 871,-1411.5 1062,-1411.5 1062,-1381.5 871,-1381.5"/>
<text text-anchor="start" x="878" y="-1392.9" font-family="Arial" font-size="14.00" fill="#000000">created_at </text>
<text text-anchor="start" x="948.028" y="-1392.9" font-family="Arial" font-size="14.00" fill="#666666">[datetime]</text>
<polygon fill="none" stroke="#000000" points="871,-1351.5 871,-1381.5 1062,-1381.5 1062,-1351.5 871,-1351.5"/>
<text text-anchor="start" x="878" y="-1362.9" font-family="Arial" font-size="14.00" fill="#000000">updated_at </text>
<text text-anchor="start" x="951.9326" y="-1362.9" font-family="Arial" font-size="14.00" fill="#666666">[datetime]</text>
</g>
<!-- post_likes&#45;&gt;tenant_users -->
<g id="edge6" class="edge">
<title>post_likes:tenant_user_id&#45;&gt;tenant_users:id</title>
<path fill="none" stroke="#000000" d="M1072.2225,-1425.3936C1199.5918,-1396.162 979.0475,-797.5 834,-797.5"/>
<polygon fill="#000000" stroke="#000000" points="1071.9419,-1425.4239 1061.5157,-1422.0261 1066.971,-1425.9619 1062,-1426.5 1062,-1426.5 1062,-1426.5 1066.971,-1425.9619 1062.4843,-1430.9739 1071.9419,-1425.4239 1071.9419,-1425.4239"/>
<text text-anchor="start" x="1068.592" y="-1436.5" font-family="Arial" font-size="10.00" fill="#000000">FOREIGN KEY (tenant_user_id) REFERENCES tenant_users (id)</text>
</g>
<!-- post_likes&#45;&gt;posts -->
<g id="edge12" class="edge">
<title>post_likes:post_id&#45;&gt;posts:id</title>
<path fill="none" stroke="#000000" d="M860.9478,-1455.7127C811.0242,-1447.0761 856.5565,-1369.1321 871,-1309 876.9421,-1284.2614 891.0579,-1282.7386 897,-1258 906.7054,-1217.5937 938.5556,-1164.5 897,-1164.5"/>
<polygon fill="#000000" stroke="#000000" points="861.0305,-1455.7191 870.6486,-1460.9863 866.0153,-1456.1096 871,-1456.5 871,-1456.5 871,-1456.5 866.0153,-1456.1096 871.3514,-1452.0137 861.0305,-1455.7191 861.0305,-1455.7191"/>
<text text-anchor="start" x="818.745" y="-1440.5" font-family="Arial" font-size="10.00" fill="#000000">FOREIGN KEY (post_id) REFERENCES posts (id)</text>
</g>
<!-- posts&#45;&gt;tenant_users -->
<g id="edge7" class="edge">
<title>posts:posted_by_id&#45;&gt;tenant_users:id</title>
<path fill="none" stroke="#000000" d="M707.0512,-1043.4182C667.8072,-1034.0493 688.1561,-966.0534 717,-927 749.3226,-883.2365 801.6774,-934.7635 834,-891 858.6882,-857.5731 875.5556,-797.5 834,-797.5"/>
<polygon fill="#000000" stroke="#000000" points="707.0586,-1043.4189 716.5135,-1048.9736 712.0293,-1043.9595 717,-1044.5 717,-1044.5 717,-1044.5 712.0293,-1043.9595 717.4865,-1040.0264 707.0586,-1043.4189 707.0586,-1043.4189"/>
<text text-anchor="start" x="423.9255" y="-1054.5" font-family="Arial" font-size="10.00" fill="#000000">FOREIGN KEY (posted_by_id) REFERENCES tenant_users (id)</text>
</g>
<!-- posts&#45;&gt;tenants -->
<g id="edge10" class="edge">
<title>posts:tenant_id&#45;&gt;tenants:id</title>
<path fill="none" stroke="#000000" d="M907.0141,-1074.2278C1174.8593,-1059.6013 1258.3748,-460.5 986,-460.5"/>
<polygon fill="#000000" stroke="#000000" points="906.9963,-1074.2281 896.8777,-1070.0017 901.9982,-1074.3641 897,-1074.5 897,-1074.5 897,-1074.5 901.9982,-1074.3641 897.1223,-1078.9983 906.9963,-1074.2281 906.9963,-1074.2281"/>
<text text-anchor="start" x="903.598" y="-1084.5" font-family="Arial" font-size="10.00" fill="#000000">FOREIGN KEY (tenant_id) REFERENCES tenants (id)</text>
</g>
<!-- tenants&#45;&gt;service_plans -->
<g id="edge9" class="edge">
<title>tenants:service_plan_id&#45;&gt;service_plans:id</title>
<path fill="none" stroke="#000000" d="M805.6333,-399.3454C767.6398,-389.9128 791.7337,-324.8152 816,-283 832.1867,-255.1075 862.8133,-274.8925 879,-247 900.5271,-209.905 921.8889,-150.5 879,-150.5"/>
<polygon fill="#000000" stroke="#000000" points="806.0615,-399.393 815.5018,-404.9723 811.0307,-399.9465 816,-400.5 816,-400.5 816,-400.5 811.0307,-399.9465 816.4982,-396.0277 806.0615,-399.393 806.0615,-399.393"/>
<text text-anchor="start" x="823.271" y="-410.5" font-family="Arial" font-size="10.00" fill="#000000">FOREIGN KEY (service_plan_id) REFERENCES service_plans (id)</text>
</g>
</g>
</svg>
