<?xml version="1.0" encoding="UTF-8" standalone="no"?>
<!DOCTYPE svg PUBLIC "-//W3C//DTD SVG 1.1//EN"
 "http://www.w3.org/Graphics/SVG/1.1/DTD/svg11.dtd">
<!-- Generated by graphviz version 2.40.1 (20161225.0304)
 -->
<!-- Title: tenant_users Pages: 1 -->
<svg width="1204pt" height="1603pt"
 viewBox="0.00 0.00 1204.00 1603.00" xmlns="http://www.w3.org/2000/svg" xmlns:xlink="http://www.w3.org/1999/xlink">
<g id="graph0" class="graph" transform="scale(1 1) rotate(0) translate(4 1599)">
<title>tenant_users</title>
<polygon fill="#ffffff" stroke="transparent" points="-4,4 -4,-1599 1200,-1599 1200,4 -4,4"/>
<!-- tenant_users -->
<g id="node1" class="node">
<title>tenant_users</title>
<polygon fill="#efefef" stroke="transparent" points="557,-809.5 557,-844.5 772,-844.5 772,-809.5 557,-809.5"/>
<polygon fill="none" stroke="#000000" points="557,-809.5 557,-844.5 772,-844.5 772,-809.5 557,-809.5"/>
<text text-anchor="start" x="563.8531" y="-822.3" font-family="Arial Bold" font-size="18.00" fill="#000000">tenant_users</text>
<text text-anchor="start" x="667.8931" y="-822.3" font-family="Arial" font-size="14.00" fill="#000000"> </text>
<text text-anchor="start" x="671.7837" y="-822.3" font-family="Arial" font-size="14.00" fill="#666666">[BASE TABLE]</text>
<polygon fill="none" stroke="#000000" points="557,-779.5 557,-809.5 772,-809.5 772,-779.5 557,-779.5"/>
<text text-anchor="start" x="564" y="-790.9" font-family="Arial" font-size="14.00" fill="#000000">id </text>
<text text-anchor="start" x="578.7798" y="-790.9" font-family="Arial" font-size="14.00" fill="#666666">[varchar(36)]</text>
<polygon fill="none" stroke="#000000" points="557,-749.5 557,-779.5 772,-779.5 772,-749.5 557,-749.5"/>
<text text-anchor="start" x="564" y="-760.9" font-family="Arial" font-size="14.00" fill="#000000">name </text>
<text text-anchor="start" x="602.899" y="-760.9" font-family="Arial" font-size="14.00" fill="#666666">[varchar(255)]</text>
<polygon fill="none" stroke="#000000" points="557,-719.5 557,-749.5 772,-749.5 772,-719.5 557,-719.5"/>
<text text-anchor="start" x="564" y="-730.9" font-family="Arial" font-size="14.00" fill="#000000">tenant_id </text>
<text text-anchor="start" x="625.474" y="-730.9" font-family="Arial" font-size="14.00" fill="#666666">[varchar(36)]</text>
<polygon fill="none" stroke="#000000" points="557,-689.5 557,-719.5 772,-719.5 772,-689.5 557,-689.5"/>
<text text-anchor="start" x="564" y="-700.9" font-family="Arial" font-size="14.00" fill="#000000">role_id </text>
<text text-anchor="start" x="609.8948" y="-700.9" font-family="Arial" font-size="14.00" fill="#666666">[int]</text>
<polygon fill="none" stroke="#000000" points="557,-659.5 557,-689.5 772,-689.5 772,-659.5 557,-659.5"/>
<text text-anchor="start" x="564" y="-670.9" font-family="Arial" font-size="14.00" fill="#000000">created_at </text>
<text text-anchor="start" x="634.028" y="-670.9" font-family="Arial" font-size="14.00" fill="#666666">[datetime]</text>
<polygon fill="none" stroke="#000000" points="557,-629.5 557,-659.5 772,-659.5 772,-629.5 557,-629.5"/>
<text text-anchor="start" x="564" y="-640.9" font-family="Arial" font-size="14.00" fill="#000000">updated_at </text>
<text text-anchor="start" x="637.9326" y="-640.9" font-family="Arial" font-size="14.00" fill="#666666">[datetime]</text>
<polygon fill="none" stroke="#000000" stroke-width="3" points="555,-628.5 555,-846.5 773,-846.5 773,-628.5 555,-628.5"/>
</g>
<!-- tenants -->
<g id="node5" class="node">
<title>tenants</title>
<polygon fill="#efefef" stroke="transparent" points="403,-469.5 403,-504.5 573,-504.5 573,-469.5 403,-469.5"/>
<polygon fill="none" stroke="#000000" points="403,-469.5 403,-504.5 573,-504.5 573,-469.5 403,-469.5"/>
<text text-anchor="start" x="409.8585" y="-482.3" font-family="Arial Bold" font-size="18.00" fill="#000000">tenants</text>
<text text-anchor="start" x="468.8877" y="-482.3" font-family="Arial" font-size="14.00" fill="#000000"> </text>
<text text-anchor="start" x="472.7783" y="-482.3" font-family="Arial" font-size="14.00" fill="#666666">[BASE TABLE]</text>
<polygon fill="none" stroke="#000000" points="403,-439.5 403,-469.5 573,-469.5 573,-439.5 403,-439.5"/>
<text text-anchor="start" x="410" y="-450.9" font-family="Arial" font-size="14.00" fill="#000000">id </text>
<text text-anchor="start" x="424.7798" y="-450.9" font-family="Arial" font-size="14.00" fill="#666666">[varchar(36)]</text>
<polygon fill="none" stroke="#000000" points="403,-409.5 403,-439.5 573,-439.5 573,-409.5 403,-409.5"/>
<text text-anchor="start" x="410" y="-420.9" font-family="Arial" font-size="14.00" fill="#000000">name </text>
<text text-anchor="start" x="448.899" y="-420.9" font-family="Arial" font-size="14.00" fill="#666666">[varchar(255)]</text>
<polygon fill="none" stroke="#000000" points="403,-379.5 403,-409.5 573,-409.5 573,-379.5 403,-379.5"/>
<text text-anchor="start" x="410" y="-390.9" font-family="Arial" font-size="14.00" fill="#000000">service_plan_id </text>
<text text-anchor="start" x="511.1318" y="-390.9" font-family="Arial" font-size="14.00" fill="#666666">[int]</text>
<polygon fill="none" stroke="#000000" points="403,-349.5 403,-379.5 573,-379.5 573,-349.5 403,-349.5"/>
<text text-anchor="start" x="410" y="-360.9" font-family="Arial" font-size="14.00" fill="#000000">created_at </text>
<text text-anchor="start" x="480.028" y="-360.9" font-family="Arial" font-size="14.00" fill="#666666">[datetime]</text>
<polygon fill="none" stroke="#000000" points="403,-319.5 403,-349.5 573,-349.5 573,-319.5 403,-319.5"/>
<text text-anchor="start" x="410" y="-330.9" font-family="Arial" font-size="14.00" fill="#000000">updated_at </text>
<text text-anchor="start" x="483.9326" y="-330.9" font-family="Arial" font-size="14.00" fill="#666666">[datetime]</text>
</g>
<!-- tenant_users&#45;&gt;tenants -->
<g id="edge7" class="edge">
<title>tenant_users:tenant_id&#45;&gt;tenants:id</title>
<path fill="none" stroke="#000000" d="M546.7591,-733.7003C495.9899,-724.9264 543.9009,-645.7257 557,-584 560.6347,-566.8723 569.3653,-565.1277 573,-548 581.6266,-507.3497 614.5556,-454.5 573,-454.5"/>
<polygon fill="#000000" stroke="#000000" points="547.0304,-733.7214 556.6496,-738.9863 552.0152,-734.1107 557,-734.5 557,-734.5 557,-734.5 552.0152,-734.1107 557.3504,-730.0137 547.0304,-733.7214 547.0304,-733.7214"/>
<text text-anchor="start" x="307.598" y="-744.5" font-family="Arial" font-size="10.00" fill="#000000">FOREIGN KEY (tenant_id) REFERENCES tenants (id)</text>
</g>
<!-- roles -->
<g id="node6" class="node">
<title>roles</title>
<polygon fill="#efefef" stroke="transparent" points="677,-469.5 677,-504.5 827,-504.5 827,-469.5 677,-469.5"/>
<polygon fill="none" stroke="#000000" points="677,-469.5 677,-504.5 827,-504.5 827,-469.5 677,-469.5"/>
<text text-anchor="start" x="683.8737" y="-482.3" font-family="Arial Bold" font-size="18.00" fill="#000000">roles</text>
<text text-anchor="start" x="722.8725" y="-482.3" font-family="Arial" font-size="14.00" fill="#000000"> </text>
<text text-anchor="start" x="726.7631" y="-482.3" font-family="Arial" font-size="14.00" fill="#666666">[BASE TABLE]</text>
<polygon fill="none" stroke="#000000" points="677,-439.5 677,-469.5 827,-469.5 827,-439.5 677,-439.5"/>
<text text-anchor="start" x="684" y="-450.9" font-family="Arial" font-size="14.00" fill="#000000">id </text>
<text text-anchor="start" x="698.7798" y="-450.9" font-family="Arial" font-size="14.00" fill="#666666">[int]</text>
<polygon fill="none" stroke="#000000" points="677,-409.5 677,-439.5 827,-439.5 827,-409.5 677,-409.5"/>
<text text-anchor="start" x="684" y="-420.9" font-family="Arial" font-size="14.00" fill="#000000">name </text>
<text text-anchor="start" x="722.899" y="-420.9" font-family="Arial" font-size="14.00" fill="#666666">[varchar(255)]</text>
<polygon fill="none" stroke="#000000" points="677,-379.5 677,-409.5 827,-409.5 827,-379.5 677,-379.5"/>
<text text-anchor="start" x="684" y="-390.9" font-family="Arial" font-size="14.00" fill="#000000">service_plan_id </text>
<text text-anchor="start" x="785.1318" y="-390.9" font-family="Arial" font-size="14.00" fill="#666666">[int]</text>
<polygon fill="none" stroke="#000000" points="677,-349.5 677,-379.5 827,-379.5 827,-349.5 677,-349.5"/>
<text text-anchor="start" x="684" y="-360.9" font-family="Arial" font-size="14.00" fill="#000000">created_at </text>
<text text-anchor="start" x="754.028" y="-360.9" font-family="Arial" font-size="14.00" fill="#666666">[datetime]</text>
<polygon fill="none" stroke="#000000" points="677,-319.5 677,-349.5 827,-349.5 827,-319.5 677,-319.5"/>
<text text-anchor="start" x="684" y="-330.9" font-family="Arial" font-size="14.00" fill="#000000">updated_at </text>
<text text-anchor="start" x="757.9326" y="-330.9" font-family="Arial" font-size="14.00" fill="#666666">[datetime]</text>
</g>
<!-- tenant_users&#45;&gt;roles -->
<g id="edge8" class="edge">
<title>tenant_users:role_id&#45;&gt;roles:id</title>
<path fill="none" stroke="#000000" d="M782.1837,-703.4043C822.2673,-693.9122 800.2893,-624.9726 772,-584 746.3457,-546.8439 702.6543,-585.1561 677,-548 653.3892,-513.8036 635.4444,-454.5 677,-454.5"/>
<polygon fill="#000000" stroke="#000000" points="781.9426,-703.4301 771.5186,-700.0258 776.9713,-703.9651 772,-704.5 772,-704.5 772,-704.5 776.9713,-703.9651 772.4814,-708.9742 781.9426,-703.4301 781.9426,-703.4301"/>
<text text-anchor="start" x="778.726" y="-714.5" font-family="Arial" font-size="10.00" fill="#000000">FOREIGN KEY (role_id) REFERENCES roles (id)</text>
</g>
<!-- post_comments -->
<g id="node2" class="node">
<title>post_comments</title>
<polygon fill="#efefef" stroke="transparent" points="306,-1516.5 306,-1551.5 544,-1551.5 544,-1516.5 306,-1516.5"/>
<polygon fill="none" stroke="#000000" points="306,-1516.5 306,-1551.5 544,-1551.5 544,-1516.5 306,-1516.5"/>
<text text-anchor="start" x="312.8601" y="-1529.3" font-family="Arial Bold" font-size="18.00" fill="#000000">post_comments</text>
<text text-anchor="start" x="439.8861" y="-1529.3" font-family="Arial" font-size="14.00" fill="#000000"> </text>
<text text-anchor="start" x="443.7767" y="-1529.3" font-family="Arial" font-size="14.00" fill="#666666">[BASE TABLE]</text>
<polygon fill="none" stroke="#000000" points="306,-1486.5 306,-1516.5 544,-1516.5 544,-1486.5 306,-1486.5"/>
<text text-anchor="start" x="313" y="-1497.9" font-family="Arial" font-size="14.00" fill="#000000">id </text>
<text text-anchor="start" x="327.7798" y="-1497.9" font-family="Arial" font-size="14.00" fill="#666666">[bigint]</text>
<polygon fill="none" stroke="#000000" points="306,-1456.5 306,-1486.5 544,-1486.5 544,-1456.5 306,-1456.5"/>
<text text-anchor="start" x="313" y="-1467.9" font-family="Arial" font-size="14.00" fill="#000000">post_id </text>
<text text-anchor="start" x="362.0182" y="-1467.9" font-family="Arial" font-size="14.00" fill="#666666">[bigint]</text>
<polygon fill="none" stroke="#000000" points="306,-1426.5 306,-1456.5 544,-1456.5 544,-1426.5 306,-1426.5"/>
<text text-anchor="start" x="313" y="-1437.9" font-family="Arial" font-size="14.00" fill="#000000">tenant_user_id </text>
<text text-anchor="start" x="409.4824" y="-1437.9" font-family="Arial" font-size="14.00" fill="#666666">[varchar(36)]</text>
<polygon fill="none" stroke="#000000" points="306,-1396.5 306,-1426.5 544,-1426.5 544,-1396.5 306,-1396.5"/>
<text text-anchor="start" x="313" y="-1407.9" font-family="Arial" font-size="14.00" fill="#000000">comment </text>
<text text-anchor="start" x="374.4502" y="-1407.9" font-family="Arial" font-size="14.00" fill="#666666">[varchar(255)]</text>
<polygon fill="none" stroke="#000000" points="306,-1366.5 306,-1396.5 544,-1396.5 544,-1366.5 306,-1366.5"/>
<text text-anchor="start" x="313" y="-1377.9" font-family="Arial" font-size="14.00" fill="#000000">created_at </text>
<text text-anchor="start" x="383.028" y="-1377.9" font-family="Arial" font-size="14.00" fill="#666666">[datetime]</text>
<polygon fill="none" stroke="#000000" points="306,-1336.5 306,-1366.5 544,-1366.5 544,-1336.5 306,-1336.5"/>
<text text-anchor="start" x="313" y="-1347.9" font-family="Arial" font-size="14.00" fill="#000000">updated_at </text>
<text text-anchor="start" x="386.9326" y="-1347.9" font-family="Arial" font-size="14.00" fill="#666666">[datetime]</text>
</g>
<!-- post_comments&#45;&gt;tenant_users -->
<g id="edge1" class="edge">
<title>post_comments:tenant_user_id&#45;&gt;tenant_users:id</title>
<path fill="none" stroke="#000000" d="M295.8179,-1440.4504C163.4944,-1411.5273 406.3964,-794.5 557,-794.5"/>
<polygon fill="#000000" stroke="#000000" points="296.0527,-1440.4746 305.5386,-1445.9763 301.0264,-1440.9873 306,-1441.5 306,-1441.5 306,-1441.5 301.0264,-1440.9873 306.4614,-1437.0237 296.0527,-1440.4746 296.0527,-1440.4746"/>
<text text-anchor="start" x="6.592" y="-1451.5" font-family="Arial" font-size="10.00" fill="#000000">FOREIGN KEY (tenant_user_id) REFERENCES tenant_users (id)</text>
</g>
<!-- posts -->
<g id="node3" class="node">
<title>posts</title>
<polygon fill="#efefef" stroke="transparent" points="495,-1179.5 495,-1214.5 675,-1214.5 675,-1179.5 495,-1179.5"/>
<polygon fill="none" stroke="#000000" points="495,-1179.5 495,-1214.5 675,-1214.5 675,-1179.5 495,-1179.5"/>
<text text-anchor="start" x="514.8658" y="-1192.3" font-family="Arial Bold" font-size="18.00" fill="#000000">posts</text>
<text text-anchor="start" x="557.8804" y="-1192.3" font-family="Arial" font-size="14.00" fill="#000000"> </text>
<text text-anchor="start" x="561.771" y="-1192.3" font-family="Arial" font-size="14.00" fill="#666666">[BASE TABLE]</text>
<polygon fill="none" stroke="#000000" points="495,-1149.5 495,-1179.5 675,-1179.5 675,-1149.5 495,-1149.5"/>
<text text-anchor="start" x="502" y="-1160.9" font-family="Arial" font-size="14.00" fill="#000000">id </text>
<text text-anchor="start" x="516.7798" y="-1160.9" font-family="Arial" font-size="14.00" fill="#666666">[bigint]</text>
<polygon fill="none" stroke="#000000" points="495,-1119.5 495,-1149.5 675,-1149.5 675,-1119.5 495,-1119.5"/>
<text text-anchor="start" x="502" y="-1130.9" font-family="Arial" font-size="14.00" fill="#000000">title </text>
<text text-anchor="start" x="527.6676" y="-1130.9" font-family="Arial" font-size="14.00" fill="#666666">[varchar(255)]</text>
<polygon fill="none" stroke="#000000" points="495,-1089.5 495,-1119.5 675,-1119.5 675,-1089.5 495,-1089.5"/>
<text text-anchor="start" x="502" y="-1100.9" font-family="Arial" font-size="14.00" fill="#000000">detail </text>
<text text-anchor="start" x="539.3422" y="-1100.9" font-family="Arial" font-size="14.00" fill="#666666">[varchar(255)]</text>
<polygon fill="none" stroke="#000000" points="495,-1059.5 495,-1089.5 675,-1089.5 675,-1059.5 495,-1059.5"/>
<text text-anchor="start" x="502" y="-1070.9" font-family="Arial" font-size="14.00" fill="#000000">tenant_id </text>
<text text-anchor="start" x="563.474" y="-1070.9" font-family="Arial" font-size="14.00" fill="#666666">[varchar(36)]</text>
<polygon fill="none" stroke="#000000" points="495,-1029.5 495,-1059.5 675,-1059.5 675,-1029.5 495,-1029.5"/>
<text text-anchor="start" x="501.7574" y="-1040.9" font-family="Arial" font-size="14.00" fill="#000000">posted_by_id </text>
<text text-anchor="start" x="588.906" y="-1040.9" font-family="Arial" font-size="14.00" fill="#666666">[varchar(36)]</text>
<polygon fill="none" stroke="#000000" points="495,-999.5 495,-1029.5 675,-1029.5 675,-999.5 495,-999.5"/>
<text text-anchor="start" x="502" y="-1010.9" font-family="Arial" font-size="14.00" fill="#000000">created_at </text>
<text text-anchor="start" x="572.028" y="-1010.9" font-family="Arial" font-size="14.00" fill="#666666">[datetime]</text>
<polygon fill="none" stroke="#000000" points="495,-969.5 495,-999.5 675,-999.5 675,-969.5 495,-969.5"/>
<text text-anchor="start" x="502" y="-980.9" font-family="Arial" font-size="14.00" fill="#000000">updated_at </text>
<text text-anchor="start" x="575.9326" y="-980.9" font-family="Arial" font-size="14.00" fill="#666666">[datetime]</text>
</g>
<!-- post_comments&#45;&gt;posts -->
<g id="edge2" class="edge">
<title>post_comments:post_id&#45;&gt;posts:id</title>
<path fill="none" stroke="#000000" d="M554.3019,-1470.8087C618.8499,-1461.5387 577.9578,-1361.0861 544,-1294 531.7956,-1269.8893 507.2044,-1282.1107 495,-1258 476.2326,-1220.9237 453.4444,-1164.5 495,-1164.5"/>
<polygon fill="#000000" stroke="#000000" points="553.9776,-1470.8304 543.6987,-1467.0101 548.9888,-1471.1652 544,-1471.5 544,-1471.5 544,-1471.5 548.9888,-1471.1652 544.3013,-1475.9899 553.9776,-1470.8304 553.9776,-1470.8304"/>
<text text-anchor="start" x="551.495" y="-1481.5" font-family="Arial" font-size="10.00" fill="#000000">FOREIGN KEY (post_id) REFERENCES posts (id)</text>
</g>
<!-- posts&#45;&gt;tenant_users -->
<g id="edge5" class="edge">
<title>posts:posted_by_id&#45;&gt;tenant_users:id</title>
<path fill="none" stroke="#000000" d="M684.9495,-1043.4177C724.1994,-1034.0445 703.8904,-966.019 675,-927 642.3724,-882.9335 589.6276,-935.0665 557,-891 531.4785,-856.531 514.1111,-794.5 557,-794.5"/>
<polygon fill="#000000" stroke="#000000" points="684.9414,-1043.4185 674.5133,-1040.0264 679.9707,-1043.9592 675,-1044.5 675,-1044.5 675,-1044.5 679.9707,-1043.9592 675.4867,-1048.9736 684.9414,-1043.4185 684.9414,-1043.4185"/>
<text text-anchor="start" x="681.9255" y="-1054.5" font-family="Arial" font-size="10.00" fill="#000000">FOREIGN KEY (posted_by_id) REFERENCES tenant_users (id)</text>
</g>
<!-- posts&#45;&gt;tenants -->
<g id="edge4" class="edge">
<title>posts:tenant_id&#45;&gt;tenants:id</title>
<path fill="none" stroke="#000000" d="M484.8821,-1074.2251C214.2364,-1059.4557 127.8278,-454.5 403,-454.5"/>
<polygon fill="#000000" stroke="#000000" points="485.0037,-1074.2283 494.8777,-1078.9983 490.0018,-1074.3642 495,-1074.5 495,-1074.5 495,-1074.5 490.0018,-1074.3642 495.1223,-1070.0017 485.0037,-1074.2283 485.0037,-1074.2283"/>
<text text-anchor="start" x="245.598" y="-1084.5" font-family="Arial" font-size="10.00" fill="#000000">FOREIGN KEY (tenant_id) REFERENCES tenants (id)</text>
</g>
<!-- post_likes -->
<g id="node4" class="node">
<title>post_likes</title>
<polygon fill="#efefef" stroke="transparent" points="649,-1501.5 649,-1536.5 840,-1536.5 840,-1501.5 649,-1501.5"/>
<polygon fill="none" stroke="#000000" points="649,-1501.5 649,-1536.5 840,-1536.5 840,-1501.5 649,-1501.5"/>
<text text-anchor="start" x="655.8654" y="-1514.3" font-family="Arial Bold" font-size="18.00" fill="#000000">post_likes</text>
<text text-anchor="start" x="735.8808" y="-1514.3" font-family="Arial" font-size="14.00" fill="#000000"> </text>
<text text-anchor="start" x="739.7714" y="-1514.3" font-family="Arial" font-size="14.00" fill="#666666">[BASE TABLE]</text>
<polygon fill="none" stroke="#000000" points="649,-1471.5 649,-1501.5 840,-1501.5 840,-1471.5 649,-1471.5"/>
<text text-anchor="start" x="656" y="-1482.9" font-family="Arial" font-size="14.00" fill="#000000">id </text>
<text text-anchor="start" x="670.7798" y="-1482.9" font-family="Arial" font-size="14.00" fill="#666666">[bigint]</text>
<polygon fill="none" stroke="#000000" points="649,-1441.5 649,-1471.5 840,-1471.5 840,-1441.5 649,-1441.5"/>
<text text-anchor="start" x="656" y="-1452.9" font-family="Arial" font-size="14.00" fill="#000000">post_id </text>
<text text-anchor="start" x="705.0182" y="-1452.9" font-family="Arial" font-size="14.00" fill="#666666">[bigint]</text>
<polygon fill="none" stroke="#000000" points="649,-1411.5 649,-1441.5 840,-1441.5 840,-1411.5 649,-1411.5"/>
<text text-anchor="start" x="656" y="-1422.9" font-family="Arial" font-size="14.00" fill="#000000">tenant_user_id </text>
<text text-anchor="start" x="752.4824" y="-1422.9" font-family="Arial" font-size="14.00" fill="#666666">[varchar(36)]</text>
<polygon fill="none" stroke="#000000" points="649,-1381.5 649,-1411.5 840,-1411.5 840,-1381.5 649,-1381.5"/>
<text text-anchor="start" x="656" y="-1392.9" font-family="Arial" font-size="14.00" fill="#000000">created_at </text>
<text text-anchor="start" x="726.028" y="-1392.9" font-family="Arial" font-size="14.00" fill="#666666">[datetime]</text>
<polygon fill="none" stroke="#000000" points="649,-1351.5 649,-1381.5 840,-1381.5 840,-1351.5 649,-1351.5"/>
<text text-anchor="start" x="656" y="-1362.9" font-family="Arial" font-size="14.00" fill="#000000">updated_at </text>
<text text-anchor="start" x="729.9326" y="-1362.9" font-family="Arial" font-size="14.00" fill="#666666">[datetime]</text>
</g>
<!-- post_likes&#45;&gt;tenant_users -->
<g id="edge6" class="edge">
<title>post_likes:tenant_user_id&#45;&gt;tenant_users:id</title>
<path fill="none" stroke="#000000" d="M849.3701,-1422.1267C903.9806,-1366.2881 839.1789,-794.5 772,-794.5"/>
<polygon fill="#000000" stroke="#000000" points="849.0616,-1422.2707 838.0968,-1422.4223 844.5308,-1424.3853 840,-1426.5 840,-1426.5 840,-1426.5 844.5308,-1424.3853 841.9032,-1430.5777 849.0616,-1422.2707 849.0616,-1422.2707"/>
<text text-anchor="start" x="846.592" y="-1436.5" font-family="Arial" font-size="10.00" fill="#000000">FOREIGN KEY (tenant_user_id) REFERENCES tenant_users (id)</text>
</g>
<!-- post_likes&#45;&gt;posts -->
<g id="edge3" class="edge">
<title>post_likes:post_id&#45;&gt;posts:id</title>
<path fill="none" stroke="#000000" d="M638.9478,-1455.7127C589.0242,-1447.0761 634.5565,-1369.1321 649,-1309 654.9421,-1284.2614 669.0579,-1282.7386 675,-1258 684.7054,-1217.5937 716.5556,-1164.5 675,-1164.5"/>
<polygon fill="#000000" stroke="#000000" points="639.0305,-1455.7191 648.6486,-1460.9863 644.0153,-1456.1096 649,-1456.5 649,-1456.5 649,-1456.5 644.0153,-1456.1096 649.3514,-1452.0137 639.0305,-1455.7191 639.0305,-1455.7191"/>
<text text-anchor="start" x="596.745" y="-1440.5" font-family="Arial" font-size="10.00" fill="#000000">FOREIGN KEY (post_id) REFERENCES posts (id)</text>
</g>
<!-- service_plans -->
<g id="node7" class="node">
<title>service_plans</title>
<polygon fill="#efefef" stroke="transparent" points="509,-162.5 509,-197.5 730,-197.5 730,-162.5 509,-162.5"/>
<polygon fill="none" stroke="#000000" points="509,-162.5 509,-197.5 730,-197.5 730,-162.5 509,-162.5"/>
<text text-anchor="start" x="515.8642" y="-175.3" font-family="Arial Bold" font-size="18.00" fill="#000000">service_plans</text>
<text text-anchor="start" x="625.882" y="-175.3" font-family="Arial" font-size="14.00" fill="#000000"> </text>
<text text-anchor="start" x="629.7726" y="-175.3" font-family="Arial" font-size="14.00" fill="#666666">[BASE TABLE]</text>
<polygon fill="none" stroke="#000000" points="509,-132.5 509,-162.5 730,-162.5 730,-132.5 509,-132.5"/>
<text text-anchor="start" x="516" y="-143.9" font-family="Arial" font-size="14.00" fill="#000000">id </text>
<text text-anchor="start" x="530.7798" y="-143.9" font-family="Arial" font-size="14.00" fill="#666666">[int]</text>
<polygon fill="none" stroke="#000000" points="509,-102.5 509,-132.5 730,-132.5 730,-102.5 509,-102.5"/>
<text text-anchor="start" x="516" y="-113.9" font-family="Arial" font-size="14.00" fill="#000000">name </text>
<text text-anchor="start" x="554.899" y="-113.9" font-family="Arial" font-size="14.00" fill="#666666">[varchar(255)]</text>
<polygon fill="none" stroke="#000000" points="509,-72.5 509,-102.5 730,-102.5 730,-72.5 509,-72.5"/>
<text text-anchor="start" x="516" y="-83.9" font-family="Arial" font-size="14.00" fill="#000000">created_at </text>
<text text-anchor="start" x="586.028" y="-83.9" font-family="Arial" font-size="14.00" fill="#666666">[datetime]</text>
<polygon fill="none" stroke="#000000" points="509,-42.5 509,-72.5 730,-72.5 730,-42.5 509,-42.5"/>
<text text-anchor="start" x="516" y="-53.9" font-family="Arial" font-size="14.00" fill="#000000">updated_at </text>
<text text-anchor="start" x="589.9326" y="-53.9" font-family="Arial" font-size="14.00" fill="#666666">[datetime]</text>
</g>
<!-- tenants&#45;&gt;service_plans -->
<g id="edge9" class="edge">
<title>tenants:service_plan_id&#45;&gt;service_plans:id</title>
<path fill="none" stroke="#000000" d="M583.369,-393.344C621.3811,-383.9006 597.4075,-318.733 573,-277 556.524,-248.8286 525.476,-269.1714 509,-241 488.0208,-205.1289 467.4444,-147.5 509,-147.5"/>
<polygon fill="#000000" stroke="#000000" points="582.9384,-393.3919 572.5014,-390.0277 577.9692,-393.946 573,-394.5 573,-394.5 573,-394.5 577.9692,-393.946 573.4986,-398.9723 582.9384,-393.3919 582.9384,-393.3919"/>
<text text-anchor="start" x="267.271" y="-404.5" font-family="Arial" font-size="10.00" fill="#000000">FOREIGN KEY (service_plan_id) REFERENCES service_plans (id)</text>
</g>
<!-- roles&#45;&gt;service_plans -->
<g id="edge10" class="edge">
<title>roles:service_plan_id&#45;&gt;service_plans:id</title>
<path fill="none" stroke="#000000" d="M666.6604,-393.3604C628.883,-384.0477 654.3721,-319.7241 677,-277 690.3277,-251.8358 716.6723,-266.1642 730,-241 749.4495,-204.277 771.5556,-147.5 730,-147.5"/>
<polygon fill="#000000" stroke="#000000" points="667.0602,-393.4044 676.507,-398.9729 672.0301,-393.9522 677,-394.5 677,-394.5 677,-394.5 672.0301,-393.9522 677.493,-390.0271 667.0602,-393.4044 667.0602,-393.4044"/>
<text text-anchor="start" x="684.271" y="-404.5" font-family="Arial" font-size="10.00" fill="#000000">FOREIGN KEY (service_plan_id) REFERENCES service_plans (id)</text>
</g>
<!-- right_role_mappings -->
<g id="node8" class="node">
<title>right_role_mappings</title>
<polygon fill="#efefef" stroke="transparent" points="879,-794.5 879,-829.5 1153,-829.5 1153,-794.5 879,-794.5"/>
<polygon fill="none" stroke="#000000" points="879,-794.5 879,-829.5 1153,-829.5 1153,-794.5 879,-794.5"/>
<text text-anchor="start" x="885.8583" y="-807.3" font-family="Arial Bold" font-size="18.00" fill="#000000">right_role_mappings</text>
<text text-anchor="start" x="1048.8879" y="-807.3" font-family="Arial" font-size="14.00" fill="#000000"> </text>
<text text-anchor="start" x="1052.7785" y="-807.3" font-family="Arial" font-size="14.00" fill="#666666">[BASE TABLE]</text>
<polygon fill="none" stroke="#000000" points="879,-764.5 879,-794.5 1153,-794.5 1153,-764.5 879,-764.5"/>
<text text-anchor="start" x="886" y="-775.9" font-family="Arial" font-size="14.00" fill="#000000">id </text>
<text text-anchor="start" x="900.7798" y="-775.9" font-family="Arial" font-size="14.00" fill="#666666">[int]</text>
<polygon fill="none" stroke="#000000" points="879,-734.5 879,-764.5 1153,-764.5 1153,-734.5 879,-734.5"/>
<text text-anchor="start" x="886" y="-745.9" font-family="Arial" font-size="14.00" fill="#000000">right_id </text>
<text text-anchor="start" x="935.7854" y="-745.9" font-family="Arial" font-size="14.00" fill="#666666">[int]</text>
<polygon fill="none" stroke="#000000" points="879,-704.5 879,-734.5 1153,-734.5 1153,-704.5 879,-704.5"/>
<text text-anchor="start" x="886" y="-715.9" font-family="Arial" font-size="14.00" fill="#000000">role_id </text>
<text text-anchor="start" x="931.8948" y="-715.9" font-family="Arial" font-size="14.00" fill="#666666">[int]</text>
<polygon fill="none" stroke="#000000" points="879,-674.5 879,-704.5 1153,-704.5 1153,-674.5 879,-674.5"/>
<text text-anchor="start" x="886" y="-685.9" font-family="Arial" font-size="14.00" fill="#000000">created_at </text>
<text text-anchor="start" x="956.028" y="-685.9" font-family="Arial" font-size="14.00" fill="#666666">[datetime]</text>
<polygon fill="none" stroke="#000000" points="879,-644.5 879,-674.5 1153,-674.5 1153,-644.5 879,-644.5"/>
<text text-anchor="start" x="886" y="-655.9" font-family="Arial" font-size="14.00" fill="#000000">updated_at </text>
<text text-anchor="start" x="959.9326" y="-655.9" font-family="Arial" font-size="14.00" fill="#666666">[datetime]</text>
</g>
<!-- right_role_mappings&#45;&gt;roles -->
<g id="edge11" class="edge">
<title>right_role_mappings:role_id&#45;&gt;roles:id</title>
<path fill="none" stroke="#000000" d="M868.9293,-718.7861C770.0795,-703.6979 943.3903,-454.5 827,-454.5"/>
<polygon fill="#000000" stroke="#000000" points="869.025,-718.7928 878.6818,-723.9887 874.0125,-719.1464 879,-719.5 879,-719.5 879,-719.5 874.0125,-719.1464 879.3182,-715.0113 869.025,-718.7928 869.025,-718.7928"/>
<text text-anchor="start" x="885.726" y="-729.5" font-family="Arial" font-size="10.00" fill="#000000">FOREIGN KEY (role_id) REFERENCES roles (id)</text>
</g>
<!-- rights -->
<g id="node9" class="node">
<title>rights</title>
<polygon fill="#efefef" stroke="transparent" points="938,-454.5 938,-489.5 1093,-489.5 1093,-454.5 938,-454.5"/>
<polygon fill="none" stroke="#000000" points="938,-454.5 938,-489.5 1093,-489.5 1093,-454.5 938,-454.5"/>
<text text-anchor="start" x="944.8726" y="-467.3" font-family="Arial Bold" font-size="18.00" fill="#000000">rights</text>
<text text-anchor="start" x="988.8736" y="-467.3" font-family="Arial" font-size="14.00" fill="#000000"> </text>
<text text-anchor="start" x="992.7642" y="-467.3" font-family="Arial" font-size="14.00" fill="#666666">[BASE TABLE]</text>
<polygon fill="none" stroke="#000000" points="938,-424.5 938,-454.5 1093,-454.5 1093,-424.5 938,-424.5"/>
<text text-anchor="start" x="945" y="-435.9" font-family="Arial" font-size="14.00" fill="#000000">id </text>
<text text-anchor="start" x="959.7798" y="-435.9" font-family="Arial" font-size="14.00" fill="#666666">[int]</text>
<polygon fill="none" stroke="#000000" points="938,-394.5 938,-424.5 1093,-424.5 1093,-394.5 938,-394.5"/>
<text text-anchor="start" x="945" y="-405.9" font-family="Arial" font-size="14.00" fill="#000000">name </text>
<text text-anchor="start" x="983.899" y="-405.9" font-family="Arial" font-size="14.00" fill="#666666">[varchar(255)]</text>
<polygon fill="none" stroke="#000000" points="938,-364.5 938,-394.5 1093,-394.5 1093,-364.5 938,-364.5"/>
<text text-anchor="start" x="945" y="-375.9" font-family="Arial" font-size="14.00" fill="#000000">created_at </text>
<text text-anchor="start" x="1015.028" y="-375.9" font-family="Arial" font-size="14.00" fill="#666666">[datetime]</text>
<polygon fill="none" stroke="#000000" points="938,-334.5 938,-364.5 1093,-364.5 1093,-334.5 938,-334.5"/>
<text text-anchor="start" x="945" y="-345.9" font-family="Arial" font-size="14.00" fill="#000000">updated_at </text>
<text text-anchor="start" x="1018.9326" y="-345.9" font-family="Arial" font-size="14.00" fill="#666666">[datetime]</text>
</g>
<!-- right_role_mappings&#45;&gt;rights -->
<g id="edge12" class="edge">
<title>right_role_mappings:right_id&#45;&gt;rights:id</title>
<path fill="none" stroke="#000000" d="M868.7364,-748.6151C816.5362,-738.9272 842.5936,-651.9906 879,-602 937.8301,-521.2189 1034.1699,-613.7811 1093,-533 1117.4636,-499.4084 1134.5556,-439.5 1093,-439.5"/>
<polygon fill="#000000" stroke="#000000" points="869.037,-748.6409 878.6134,-753.9834 874.0185,-749.0705 879,-749.5 879,-749.5 879,-749.5 874.0185,-749.0705 879.3866,-745.0166 869.037,-748.6409 869.037,-748.6409"/>
<text text-anchor="start" x="885.947" y="-759.5" font-family="Arial" font-size="10.00" fill="#000000">FOREIGN KEY (right_id) REFERENCES rights (id)</text>
</g>
</g>
</svg>
