<?xml version="1.0" encoding="UTF-8" standalone="no"?>
<!DOCTYPE svg PUBLIC "-//W3C//DTD SVG 1.1//EN"
 "http://www.w3.org/Graphics/SVG/1.1/DTD/svg11.dtd">
<!-- Generated by graphviz version 2.40.1 (20161225.0304)
 -->
<!-- Title: tenants Pages: 1 -->
<svg width="1177pt" height="1603pt"
 viewBox="0.00 0.00 1177.00 1603.00" xmlns="http://www.w3.org/2000/svg" xmlns:xlink="http://www.w3.org/1999/xlink">
<g id="graph0" class="graph" transform="scale(1 1) rotate(0) translate(4 1599)">
<title>tenants</title>
<polygon fill="#ffffff" stroke="transparent" points="-4,4 -4,-1599 1173,-1599 1173,4 -4,4"/>
<!-- tenants -->
<g id="node1" class="node">
<title>tenants</title>
<polygon fill="#efefef" stroke="transparent" points="466,-472.5 466,-507.5 636,-507.5 636,-472.5 466,-472.5"/>
<polygon fill="none" stroke="#000000" points="466,-472.5 466,-507.5 636,-507.5 636,-472.5 466,-472.5"/>
<text text-anchor="start" x="472.8585" y="-485.3" font-family="Arial Bold" font-size="18.00" fill="#000000">tenants</text>
<text text-anchor="start" x="531.8877" y="-485.3" font-family="Arial" font-size="14.00" fill="#000000"> </text>
<text text-anchor="start" x="535.7783" y="-485.3" font-family="Arial" font-size="14.00" fill="#666666">[BASE TABLE]</text>
<polygon fill="none" stroke="#000000" points="466,-442.5 466,-472.5 636,-472.5 636,-442.5 466,-442.5"/>
<text text-anchor="start" x="473" y="-453.9" font-family="Arial" font-size="14.00" fill="#000000">id </text>
<text text-anchor="start" x="487.7798" y="-453.9" font-family="Arial" font-size="14.00" fill="#666666">[varchar(36)]</text>
<polygon fill="none" stroke="#000000" points="466,-412.5 466,-442.5 636,-442.5 636,-412.5 466,-412.5"/>
<text text-anchor="start" x="473" y="-423.9" font-family="Arial" font-size="14.00" fill="#000000">name </text>
<text text-anchor="start" x="511.899" y="-423.9" font-family="Arial" font-size="14.00" fill="#666666">[varchar(255)]</text>
<polygon fill="none" stroke="#000000" points="466,-382.5 466,-412.5 636,-412.5 636,-382.5 466,-382.5"/>
<text text-anchor="start" x="473" y="-393.9" font-family="Arial" font-size="14.00" fill="#000000">service_plan_id </text>
<text text-anchor="start" x="574.1318" y="-393.9" font-family="Arial" font-size="14.00" fill="#666666">[int]</text>
<polygon fill="none" stroke="#000000" points="466,-352.5 466,-382.5 636,-382.5 636,-352.5 466,-352.5"/>
<text text-anchor="start" x="473" y="-363.9" font-family="Arial" font-size="14.00" fill="#000000">created_at </text>
<text text-anchor="start" x="543.028" y="-363.9" font-family="Arial" font-size="14.00" fill="#666666">[datetime]</text>
<polygon fill="none" stroke="#000000" points="466,-322.5 466,-352.5 636,-352.5 636,-322.5 466,-322.5"/>
<text text-anchor="start" x="473" y="-333.9" font-family="Arial" font-size="14.00" fill="#000000">updated_at </text>
<text text-anchor="start" x="546.9326" y="-333.9" font-family="Arial" font-size="14.00" fill="#666666">[datetime]</text>
<polygon fill="none" stroke="#000000" stroke-width="3" points="464.5,-321.5 464.5,-509.5 637.5,-509.5 637.5,-321.5 464.5,-321.5"/>
</g>
<!-- service_plans -->
<g id="node6" class="node">
<title>service_plans</title>
<polygon fill="#efefef" stroke="transparent" points="573,-162.5 573,-197.5 794,-197.5 794,-162.5 573,-162.5"/>
<polygon fill="none" stroke="#000000" points="573,-162.5 573,-197.5 794,-197.5 794,-162.5 573,-162.5"/>
<text text-anchor="start" x="579.8642" y="-175.3" font-family="Arial Bold" font-size="18.00" fill="#000000">service_plans</text>
<text text-anchor="start" x="689.882" y="-175.3" font-family="Arial" font-size="14.00" fill="#000000"> </text>
<text text-anchor="start" x="693.7726" y="-175.3" font-family="Arial" font-size="14.00" fill="#666666">[BASE TABLE]</text>
<polygon fill="none" stroke="#000000" points="573,-132.5 573,-162.5 794,-162.5 794,-132.5 573,-132.5"/>
<text text-anchor="start" x="580" y="-143.9" font-family="Arial" font-size="14.00" fill="#000000">id </text>
<text text-anchor="start" x="594.7798" y="-143.9" font-family="Arial" font-size="14.00" fill="#666666">[int]</text>
<polygon fill="none" stroke="#000000" points="573,-102.5 573,-132.5 794,-132.5 794,-102.5 573,-102.5"/>
<text text-anchor="start" x="580" y="-113.9" font-family="Arial" font-size="14.00" fill="#000000">name </text>
<text text-anchor="start" x="618.899" y="-113.9" font-family="Arial" font-size="14.00" fill="#666666">[varchar(255)]</text>
<polygon fill="none" stroke="#000000" points="573,-72.5 573,-102.5 794,-102.5 794,-72.5 573,-72.5"/>
<text text-anchor="start" x="580" y="-83.9" font-family="Arial" font-size="14.00" fill="#000000">created_at </text>
<text text-anchor="start" x="650.028" y="-83.9" font-family="Arial" font-size="14.00" fill="#666666">[datetime]</text>
<polygon fill="none" stroke="#000000" points="573,-42.5 573,-72.5 794,-72.5 794,-42.5 573,-42.5"/>
<text text-anchor="start" x="580" y="-53.9" font-family="Arial" font-size="14.00" fill="#000000">updated_at </text>
<text text-anchor="start" x="653.9326" y="-53.9" font-family="Arial" font-size="14.00" fill="#666666">[datetime]</text>
</g>
<!-- tenants&#45;&gt;service_plans -->
<g id="edge7" class="edge">
<title>tenants:service_plan_id&#45;&gt;service_plans:id</title>
<path fill="none" stroke="#000000" d="M646.1348,-396.4353C685.8034,-387.2063 660.9909,-320.0638 636,-277 619.8133,-249.1075 589.1867,-268.8925 573,-241 552.1422,-205.0582 531.4444,-147.5 573,-147.5"/>
<polygon fill="#000000" stroke="#000000" points="645.9453,-396.4551 635.5298,-393.0246 640.9726,-396.9775 636,-397.5 636,-397.5 636,-397.5 640.9726,-396.9775 636.4702,-401.9754 645.9453,-396.4551 645.9453,-396.4551"/>
<text text-anchor="start" x="330.271" y="-407.5" font-family="Arial" font-size="10.00" fill="#000000">FOREIGN KEY (service_plan_id) REFERENCES service_plans (id)</text>
</g>
<!-- posts -->
<g id="node2" class="node">
<title>posts</title>
<polygon fill="#efefef" stroke="transparent" points="471,-1179.5 471,-1214.5 651,-1214.5 651,-1179.5 471,-1179.5"/>
<polygon fill="none" stroke="#000000" points="471,-1179.5 471,-1214.5 651,-1214.5 651,-1179.5 471,-1179.5"/>
<text text-anchor="start" x="490.8658" y="-1192.3" font-family="Arial Bold" font-size="18.00" fill="#000000">posts</text>
<text text-anchor="start" x="533.8804" y="-1192.3" font-family="Arial" font-size="14.00" fill="#000000"> </text>
<text text-anchor="start" x="537.771" y="-1192.3" font-family="Arial" font-size="14.00" fill="#666666">[BASE TABLE]</text>
<polygon fill="none" stroke="#000000" points="471,-1149.5 471,-1179.5 651,-1179.5 651,-1149.5 471,-1149.5"/>
<text text-anchor="start" x="478" y="-1160.9" font-family="Arial" font-size="14.00" fill="#000000">id </text>
<text text-anchor="start" x="492.7798" y="-1160.9" font-family="Arial" font-size="14.00" fill="#666666">[bigint]</text>
<polygon fill="none" stroke="#000000" points="471,-1119.5 471,-1149.5 651,-1149.5 651,-1119.5 471,-1119.5"/>
<text text-anchor="start" x="478" y="-1130.9" font-family="Arial" font-size="14.00" fill="#000000">title </text>
<text text-anchor="start" x="503.6676" y="-1130.9" font-family="Arial" font-size="14.00" fill="#666666">[varchar(255)]</text>
<polygon fill="none" stroke="#000000" points="471,-1089.5 471,-1119.5 651,-1119.5 651,-1089.5 471,-1089.5"/>
<text text-anchor="start" x="478" y="-1100.9" font-family="Arial" font-size="14.00" fill="#000000">detail </text>
<text text-anchor="start" x="515.3422" y="-1100.9" font-family="Arial" font-size="14.00" fill="#666666">[varchar(255)]</text>
<polygon fill="none" stroke="#000000" points="471,-1059.5 471,-1089.5 651,-1089.5 651,-1059.5 471,-1059.5"/>
<text text-anchor="start" x="478" y="-1070.9" font-family="Arial" font-size="14.00" fill="#000000">tenant_id </text>
<text text-anchor="start" x="539.474" y="-1070.9" font-family="Arial" font-size="14.00" fill="#666666">[varchar(36)]</text>
<polygon fill="none" stroke="#000000" points="471,-1029.5 471,-1059.5 651,-1059.5 651,-1029.5 471,-1029.5"/>
<text text-anchor="start" x="477.7574" y="-1040.9" font-family="Arial" font-size="14.00" fill="#000000">posted_by_id </text>
<text text-anchor="start" x="564.906" y="-1040.9" font-family="Arial" font-size="14.00" fill="#666666">[varchar(36)]</text>
<polygon fill="none" stroke="#000000" points="471,-999.5 471,-1029.5 651,-1029.5 651,-999.5 471,-999.5"/>
<text text-anchor="start" x="478" y="-1010.9" font-family="Arial" font-size="14.00" fill="#000000">created_at </text>
<text text-anchor="start" x="548.028" y="-1010.9" font-family="Arial" font-size="14.00" fill="#666666">[datetime]</text>
<polygon fill="none" stroke="#000000" points="471,-969.5 471,-999.5 651,-999.5 651,-969.5 471,-969.5"/>
<text text-anchor="start" x="478" y="-980.9" font-family="Arial" font-size="14.00" fill="#000000">updated_at </text>
<text text-anchor="start" x="551.9326" y="-980.9" font-family="Arial" font-size="14.00" fill="#666666">[datetime]</text>
</g>
<!-- posts&#45;&gt;tenants -->
<g id="edge1" class="edge">
<title>posts:tenant_id&#45;&gt;tenants:id</title>
<path fill="none" stroke="#000000" d="M460.6858,-1074.2042C196.6868,-1058.9334 195.2502,-457.5 466,-457.5"/>
<polygon fill="#000000" stroke="#000000" points="461.0041,-1074.2132 470.871,-1078.9982 466.0021,-1074.3566 471,-1074.5 471,-1074.5 471,-1074.5 466.0021,-1074.3566 471.129,-1070.0018 461.0041,-1074.2132 461.0041,-1074.2132"/>
<text text-anchor="start" x="221.598" y="-1084.5" font-family="Arial" font-size="10.00" fill="#000000">FOREIGN KEY (tenant_id) REFERENCES tenants (id)</text>
</g>
<!-- tenant_users -->
<g id="node4" class="node">
<title>tenant_users</title>
<polygon fill="#efefef" stroke="transparent" points="533,-812.5 533,-847.5 748,-847.5 748,-812.5 533,-812.5"/>
<polygon fill="none" stroke="#000000" points="533,-812.5 533,-847.5 748,-847.5 748,-812.5 533,-812.5"/>
<text text-anchor="start" x="539.8531" y="-825.3" font-family="Arial Bold" font-size="18.00" fill="#000000">tenant_users</text>
<text text-anchor="start" x="643.8931" y="-825.3" font-family="Arial" font-size="14.00" fill="#000000"> </text>
<text text-anchor="start" x="647.7837" y="-825.3" font-family="Arial" font-size="14.00" fill="#666666">[BASE TABLE]</text>
<polygon fill="none" stroke="#000000" points="533,-782.5 533,-812.5 748,-812.5 748,-782.5 533,-782.5"/>
<text text-anchor="start" x="540" y="-793.9" font-family="Arial" font-size="14.00" fill="#000000">id </text>
<text text-anchor="start" x="554.7798" y="-793.9" font-family="Arial" font-size="14.00" fill="#666666">[varchar(36)]</text>
<polygon fill="none" stroke="#000000" points="533,-752.5 533,-782.5 748,-782.5 748,-752.5 533,-752.5"/>
<text text-anchor="start" x="540" y="-763.9" font-family="Arial" font-size="14.00" fill="#000000">name </text>
<text text-anchor="start" x="578.899" y="-763.9" font-family="Arial" font-size="14.00" fill="#666666">[varchar(255)]</text>
<polygon fill="none" stroke="#000000" points="533,-722.5 533,-752.5 748,-752.5 748,-722.5 533,-722.5"/>
<text text-anchor="start" x="540" y="-733.9" font-family="Arial" font-size="14.00" fill="#000000">tenant_id </text>
<text text-anchor="start" x="601.474" y="-733.9" font-family="Arial" font-size="14.00" fill="#666666">[varchar(36)]</text>
<polygon fill="none" stroke="#000000" points="533,-692.5 533,-722.5 748,-722.5 748,-692.5 533,-692.5"/>
<text text-anchor="start" x="540" y="-703.9" font-family="Arial" font-size="14.00" fill="#000000">role_id </text>
<text text-anchor="start" x="585.8948" y="-703.9" font-family="Arial" font-size="14.00" fill="#666666">[int]</text>
<polygon fill="none" stroke="#000000" points="533,-662.5 533,-692.5 748,-692.5 748,-662.5 533,-662.5"/>
<text text-anchor="start" x="540" y="-673.9" font-family="Arial" font-size="14.00" fill="#000000">created_at </text>
<text text-anchor="start" x="610.028" y="-673.9" font-family="Arial" font-size="14.00" fill="#666666">[datetime]</text>
<polygon fill="none" stroke="#000000" points="533,-632.5 533,-662.5 748,-662.5 748,-632.5 533,-632.5"/>
<text text-anchor="start" x="540" y="-643.9" font-family="Arial" font-size="14.00" fill="#000000">updated_at </text>
<text text-anchor="start" x="613.9326" y="-643.9" font-family="Arial" font-size="14.00" fill="#666666">[datetime]</text>
</g>
<!-- posts&#45;&gt;tenant_users -->
<g id="edge8" class="edge">
<title>posts:posted_by_id&#45;&gt;tenant_users:id</title>
<path fill="none" stroke="#000000" d="M660.9495,-1043.4177C700.1994,-1034.0445 679.8904,-966.019 651,-927 618.3724,-882.9335 565.6276,-935.0665 533,-891 508.2719,-857.6026 491.4444,-797.5 533,-797.5"/>
<polygon fill="#000000" stroke="#000000" points="660.9414,-1043.4185 650.5133,-1040.0264 655.9707,-1043.9592 651,-1044.5 651,-1044.5 651,-1044.5 655.9707,-1043.9592 651.4867,-1048.9736 660.9414,-1043.4185 660.9414,-1043.4185"/>
<text text-anchor="start" x="657.9255" y="-1054.5" font-family="Arial" font-size="10.00" fill="#000000">FOREIGN KEY (posted_by_id) REFERENCES tenant_users (id)</text>
</g>
<!-- post_comments -->
<g id="node3" class="node">
<title>post_comments</title>
<polygon fill="#efefef" stroke="transparent" points="602,-1516.5 602,-1551.5 840,-1551.5 840,-1516.5 602,-1516.5"/>
<polygon fill="none" stroke="#000000" points="602,-1516.5 602,-1551.5 840,-1551.5 840,-1516.5 602,-1516.5"/>
<text text-anchor="start" x="608.8601" y="-1529.3" font-family="Arial Bold" font-size="18.00" fill="#000000">post_comments</text>
<text text-anchor="start" x="735.8861" y="-1529.3" font-family="Arial" font-size="14.00" fill="#000000"> </text>
<text text-anchor="start" x="739.7767" y="-1529.3" font-family="Arial" font-size="14.00" fill="#666666">[BASE TABLE]</text>
<polygon fill="none" stroke="#000000" points="602,-1486.5 602,-1516.5 840,-1516.5 840,-1486.5 602,-1486.5"/>
<text text-anchor="start" x="609" y="-1497.9" font-family="Arial" font-size="14.00" fill="#000000">id </text>
<text text-anchor="start" x="623.7798" y="-1497.9" font-family="Arial" font-size="14.00" fill="#666666">[bigint]</text>
<polygon fill="none" stroke="#000000" points="602,-1456.5 602,-1486.5 840,-1486.5 840,-1456.5 602,-1456.5"/>
<text text-anchor="start" x="609" y="-1467.9" font-family="Arial" font-size="14.00" fill="#000000">post_id </text>
<text text-anchor="start" x="658.0182" y="-1467.9" font-family="Arial" font-size="14.00" fill="#666666">[bigint]</text>
<polygon fill="none" stroke="#000000" points="602,-1426.5 602,-1456.5 840,-1456.5 840,-1426.5 602,-1426.5"/>
<text text-anchor="start" x="609" y="-1437.9" font-family="Arial" font-size="14.00" fill="#000000">tenant_user_id </text>
<text text-anchor="start" x="705.4824" y="-1437.9" font-family="Arial" font-size="14.00" fill="#666666">[varchar(36)]</text>
<polygon fill="none" stroke="#000000" points="602,-1396.5 602,-1426.5 840,-1426.5 840,-1396.5 602,-1396.5"/>
<text text-anchor="start" x="609" y="-1407.9" font-family="Arial" font-size="14.00" fill="#000000">comment </text>
<text text-anchor="start" x="670.4502" y="-1407.9" font-family="Arial" font-size="14.00" fill="#666666">[varchar(255)]</text>
<polygon fill="none" stroke="#000000" points="602,-1366.5 602,-1396.5 840,-1396.5 840,-1366.5 602,-1366.5"/>
<text text-anchor="start" x="609" y="-1377.9" font-family="Arial" font-size="14.00" fill="#000000">created_at </text>
<text text-anchor="start" x="679.028" y="-1377.9" font-family="Arial" font-size="14.00" fill="#666666">[datetime]</text>
<polygon fill="none" stroke="#000000" points="602,-1336.5 602,-1366.5 840,-1366.5 840,-1336.5 602,-1336.5"/>
<text text-anchor="start" x="609" y="-1347.9" font-family="Arial" font-size="14.00" fill="#000000">updated_at </text>
<text text-anchor="start" x="682.9326" y="-1347.9" font-family="Arial" font-size="14.00" fill="#666666">[datetime]</text>
</g>
<!-- post_comments&#45;&gt;posts -->
<g id="edge2" class="edge">
<title>post_comments:post_id&#45;&gt;posts:id</title>
<path fill="none" stroke="#000000" d="M591.6981,-1470.8087C527.1501,-1461.5387 568.0422,-1361.0861 602,-1294 614.2044,-1269.8893 638.7956,-1282.1107 651,-1258 669.7674,-1220.9237 692.5556,-1164.5 651,-1164.5"/>
<polygon fill="#000000" stroke="#000000" points="592.0224,-1470.8304 601.6987,-1475.9899 597.0112,-1471.1652 602,-1471.5 602,-1471.5 602,-1471.5 597.0112,-1471.1652 602.3013,-1467.0101 592.0224,-1470.8304 592.0224,-1470.8304"/>
<text text-anchor="start" x="549.745" y="-1455.5" font-family="Arial" font-size="10.00" fill="#000000">FOREIGN KEY (post_id) REFERENCES posts (id)</text>
</g>
<!-- post_comments&#45;&gt;tenant_users -->
<g id="edge3" class="edge">
<title>post_comments:tenant_user_id&#45;&gt;tenant_users:id</title>
<path fill="none" stroke="#000000" d="M845.6741,-1432.8832C863.8239,-1356.4625 781.6704,-797.5 748,-797.5"/>
<polygon fill="#000000" stroke="#000000" points="845.4997,-1433.1481 836.2416,-1439.0251 842.7498,-1437.3241 840,-1441.5 840,-1441.5 840,-1441.5 842.7498,-1437.3241 843.7584,-1443.9749 845.4997,-1433.1481 845.4997,-1433.1481"/>
<text text-anchor="start" x="846.592" y="-1451.5" font-family="Arial" font-size="10.00" fill="#000000">FOREIGN KEY (tenant_user_id) REFERENCES tenant_users (id)</text>
</g>
<!-- tenant_users&#45;&gt;tenants -->
<g id="edge6" class="edge">
<title>tenant_users:tenant_id&#45;&gt;tenants:id</title>
<path fill="none" stroke="#000000" d="M522.7423,-736.6194C470.6054,-726.977 497.2046,-640.4299 533,-590 561.0688,-550.4557 607.9312,-593.5443 636,-554 660.8248,-519.0259 678.8889,-457.5 636,-457.5"/>
<polygon fill="#000000" stroke="#000000" points="523.0367,-736.6445 532.615,-741.9835 528.0183,-737.0723 533,-737.5 533,-737.5 533,-737.5 528.0183,-737.0723 533.385,-733.0165 523.0367,-736.6445 523.0367,-736.6445"/>
<text text-anchor="start" x="283.598" y="-747.5" font-family="Arial" font-size="10.00" fill="#000000">FOREIGN KEY (tenant_id) REFERENCES tenants (id)</text>
</g>
<!-- roles -->
<g id="node7" class="node">
<title>roles</title>
<polygon fill="#efefef" stroke="transparent" points="743,-472.5 743,-507.5 893,-507.5 893,-472.5 743,-472.5"/>
<polygon fill="none" stroke="#000000" points="743,-472.5 743,-507.5 893,-507.5 893,-472.5 743,-472.5"/>
<text text-anchor="start" x="749.8737" y="-485.3" font-family="Arial Bold" font-size="18.00" fill="#000000">roles</text>
<text text-anchor="start" x="788.8725" y="-485.3" font-family="Arial" font-size="14.00" fill="#000000"> </text>
<text text-anchor="start" x="792.7631" y="-485.3" font-family="Arial" font-size="14.00" fill="#666666">[BASE TABLE]</text>
<polygon fill="none" stroke="#000000" points="743,-442.5 743,-472.5 893,-472.5 893,-442.5 743,-442.5"/>
<text text-anchor="start" x="750" y="-453.9" font-family="Arial" font-size="14.00" fill="#000000">id </text>
<text text-anchor="start" x="764.7798" y="-453.9" font-family="Arial" font-size="14.00" fill="#666666">[int]</text>
<polygon fill="none" stroke="#000000" points="743,-412.5 743,-442.5 893,-442.5 893,-412.5 743,-412.5"/>
<text text-anchor="start" x="750" y="-423.9" font-family="Arial" font-size="14.00" fill="#000000">name </text>
<text text-anchor="start" x="788.899" y="-423.9" font-family="Arial" font-size="14.00" fill="#666666">[varchar(255)]</text>
<polygon fill="none" stroke="#000000" points="743,-382.5 743,-412.5 893,-412.5 893,-382.5 743,-382.5"/>
<text text-anchor="start" x="750" y="-393.9" font-family="Arial" font-size="14.00" fill="#000000">service_plan_id </text>
<text text-anchor="start" x="851.1318" y="-393.9" font-family="Arial" font-size="14.00" fill="#666666">[int]</text>
<polygon fill="none" stroke="#000000" points="743,-352.5 743,-382.5 893,-382.5 893,-352.5 743,-352.5"/>
<text text-anchor="start" x="750" y="-363.9" font-family="Arial" font-size="14.00" fill="#000000">created_at </text>
<text text-anchor="start" x="820.028" y="-363.9" font-family="Arial" font-size="14.00" fill="#666666">[datetime]</text>
<polygon fill="none" stroke="#000000" points="743,-322.5 743,-352.5 893,-352.5 893,-322.5 743,-322.5"/>
<text text-anchor="start" x="750" y="-333.9" font-family="Arial" font-size="14.00" fill="#000000">updated_at </text>
<text text-anchor="start" x="823.9326" y="-333.9" font-family="Arial" font-size="14.00" fill="#666666">[datetime]</text>
</g>
<!-- tenant_users&#45;&gt;roles -->
<g id="edge9" class="edge">
<title>tenant_users:role_id&#45;&gt;roles:id</title>
<path fill="none" stroke="#000000" d="M757.9755,-706.6915C844.4145,-691.174 635.5566,-457.5 743,-457.5"/>
<polygon fill="#000000" stroke="#000000" points="757.9673,-706.692 747.6364,-703.0147 752.9837,-707.096 748,-707.5 748,-707.5 748,-707.5 752.9837,-707.096 748.3636,-711.9853 757.9673,-706.692 757.9673,-706.692"/>
<text text-anchor="start" x="754.726" y="-717.5" font-family="Arial" font-size="10.00" fill="#000000">FOREIGN KEY (role_id) REFERENCES roles (id)</text>
</g>
<!-- post_likes -->
<g id="node5" class="node">
<title>post_likes</title>
<polygon fill="#efefef" stroke="transparent" points="306,-1501.5 306,-1536.5 497,-1536.5 497,-1501.5 306,-1501.5"/>
<polygon fill="none" stroke="#000000" points="306,-1501.5 306,-1536.5 497,-1536.5 497,-1501.5 306,-1501.5"/>
<text text-anchor="start" x="312.8654" y="-1514.3" font-family="Arial Bold" font-size="18.00" fill="#000000">post_likes</text>
<text text-anchor="start" x="392.8808" y="-1514.3" font-family="Arial" font-size="14.00" fill="#000000"> </text>
<text text-anchor="start" x="396.7714" y="-1514.3" font-family="Arial" font-size="14.00" fill="#666666">[BASE TABLE]</text>
<polygon fill="none" stroke="#000000" points="306,-1471.5 306,-1501.5 497,-1501.5 497,-1471.5 306,-1471.5"/>
<text text-anchor="start" x="313" y="-1482.9" font-family="Arial" font-size="14.00" fill="#000000">id </text>
<text text-anchor="start" x="327.7798" y="-1482.9" font-family="Arial" font-size="14.00" fill="#666666">[bigint]</text>
<polygon fill="none" stroke="#000000" points="306,-1441.5 306,-1471.5 497,-1471.5 497,-1441.5 306,-1441.5"/>
<text text-anchor="start" x="313" y="-1452.9" font-family="Arial" font-size="14.00" fill="#000000">post_id </text>
<text text-anchor="start" x="362.0182" y="-1452.9" font-family="Arial" font-size="14.00" fill="#666666">[bigint]</text>
<polygon fill="none" stroke="#000000" points="306,-1411.5 306,-1441.5 497,-1441.5 497,-1411.5 306,-1411.5"/>
<text text-anchor="start" x="313" y="-1422.9" font-family="Arial" font-size="14.00" fill="#000000">tenant_user_id </text>
<text text-anchor="start" x="409.4824" y="-1422.9" font-family="Arial" font-size="14.00" fill="#666666">[varchar(36)]</text>
<polygon fill="none" stroke="#000000" points="306,-1381.5 306,-1411.5 497,-1411.5 497,-1381.5 306,-1381.5"/>
<text text-anchor="start" x="313" y="-1392.9" font-family="Arial" font-size="14.00" fill="#000000">created_at </text>
<text text-anchor="start" x="383.028" y="-1392.9" font-family="Arial" font-size="14.00" fill="#666666">[datetime]</text>
<polygon fill="none" stroke="#000000" points="306,-1351.5 306,-1381.5 497,-1381.5 497,-1351.5 306,-1351.5"/>
<text text-anchor="start" x="313" y="-1362.9" font-family="Arial" font-size="14.00" fill="#000000">updated_at </text>
<text text-anchor="start" x="386.9326" y="-1362.9" font-family="Arial" font-size="14.00" fill="#666666">[datetime]</text>
</g>
<!-- post_likes&#45;&gt;posts -->
<g id="edge4" class="edge">
<title>post_likes:post_id&#45;&gt;posts:id</title>
<path fill="none" stroke="#000000" d="M507.0522,-1455.7127C556.9758,-1447.0761 511.4435,-1369.1321 497,-1309 491.0579,-1284.2614 476.9421,-1282.7386 471,-1258 461.2946,-1217.5937 429.4444,-1164.5 471,-1164.5"/>
<polygon fill="#000000" stroke="#000000" points="506.9695,-1455.7191 496.6486,-1452.0137 501.9847,-1456.1096 497,-1456.5 497,-1456.5 497,-1456.5 501.9847,-1456.1096 497.3514,-1460.9863 506.9695,-1455.7191 506.9695,-1455.7191"/>
<text text-anchor="start" x="265.495" y="-1466.5" font-family="Arial" font-size="10.00" fill="#000000">FOREIGN KEY (post_id) REFERENCES posts (id)</text>
</g>
<!-- post_likes&#45;&gt;tenant_users -->
<g id="edge5" class="edge">
<title>post_likes:tenant_user_id&#45;&gt;tenant_users:id</title>
<path fill="none" stroke="#000000" d="M295.7811,-1425.3936C168.4355,-1396.162 388.0263,-797.5 533,-797.5"/>
<polygon fill="#000000" stroke="#000000" points="296.0581,-1425.4235 305.5156,-1430.9739 301.0291,-1425.9617 306,-1426.5 306,-1426.5 306,-1426.5 301.0291,-1425.9617 306.4844,-1422.0261 296.0581,-1425.4235 296.0581,-1425.4235"/>
<text text-anchor="start" x="6.592" y="-1436.5" font-family="Arial" font-size="10.00" fill="#000000">FOREIGN KEY (tenant_user_id) REFERENCES tenant_users (id)</text>
</g>
<!-- roles&#45;&gt;service_plans -->
<g id="edge11" class="edge">
<title>roles:service_plan_id&#45;&gt;service_plans:id</title>
<path fill="none" stroke="#000000" d="M732.6804,-396.3706C695.0625,-387.1395 721.5811,-323.3429 743,-280 755.6417,-254.4185 781.3583,-266.5815 794,-241 812.4103,-203.7451 835.5556,-147.5 794,-147.5"/>
<polygon fill="#000000" stroke="#000000" points="733.0594,-396.412 742.5104,-401.9733 738.0297,-396.956 743,-397.5 743,-397.5 743,-397.5 738.0297,-396.956 743.4896,-393.0267 733.0594,-396.412 733.0594,-396.412"/>
<text text-anchor="start" x="750.271" y="-407.5" font-family="Arial" font-size="10.00" fill="#000000">FOREIGN KEY (service_plan_id) REFERENCES service_plans (id)</text>
</g>
<!-- right_role_mappings -->
<g id="node8" class="node">
<title>right_role_mappings</title>
<polygon fill="#efefef" stroke="transparent" points="852,-797.5 852,-832.5 1126,-832.5 1126,-797.5 852,-797.5"/>
<polygon fill="none" stroke="#000000" points="852,-797.5 852,-832.5 1126,-832.5 1126,-797.5 852,-797.5"/>
<text text-anchor="start" x="858.8583" y="-810.3" font-family="Arial Bold" font-size="18.00" fill="#000000">right_role_mappings</text>
<text text-anchor="start" x="1021.8879" y="-810.3" font-family="Arial" font-size="14.00" fill="#000000"> </text>
<text text-anchor="start" x="1025.7785" y="-810.3" font-family="Arial" font-size="14.00" fill="#666666">[BASE TABLE]</text>
<polygon fill="none" stroke="#000000" points="852,-767.5 852,-797.5 1126,-797.5 1126,-767.5 852,-767.5"/>
<text text-anchor="start" x="859" y="-778.9" font-family="Arial" font-size="14.00" fill="#000000">id </text>
<text text-anchor="start" x="873.7798" y="-778.9" font-family="Arial" font-size="14.00" fill="#666666">[int]</text>
<polygon fill="none" stroke="#000000" points="852,-737.5 852,-767.5 1126,-767.5 1126,-737.5 852,-737.5"/>
<text text-anchor="start" x="859" y="-748.9" font-family="Arial" font-size="14.00" fill="#000000">right_id </text>
<text text-anchor="start" x="908.7854" y="-748.9" font-family="Arial" font-size="14.00" fill="#666666">[int]</text>
<polygon fill="none" stroke="#000000" points="852,-707.5 852,-737.5 1126,-737.5 1126,-707.5 852,-707.5"/>
<text text-anchor="start" x="859" y="-718.9" font-family="Arial" font-size="14.00" fill="#000000">role_id </text>
<text text-anchor="start" x="904.8948" y="-718.9" font-family="Arial" font-size="14.00" fill="#666666">[int]</text>
<polygon fill="none" stroke="#000000" points="852,-677.5 852,-707.5 1126,-707.5 1126,-677.5 852,-677.5"/>
<text text-anchor="start" x="859" y="-688.9" font-family="Arial" font-size="14.00" fill="#000000">created_at </text>
<text text-anchor="start" x="929.028" y="-688.9" font-family="Arial" font-size="14.00" fill="#666666">[datetime]</text>
<polygon fill="none" stroke="#000000" points="852,-647.5 852,-677.5 1126,-677.5 1126,-647.5 852,-647.5"/>
<text text-anchor="start" x="859" y="-658.9" font-family="Arial" font-size="14.00" fill="#000000">updated_at </text>
<text text-anchor="start" x="932.9326" y="-658.9" font-family="Arial" font-size="14.00" fill="#666666">[datetime]</text>
</g>
<!-- right_role_mappings&#45;&gt;roles -->
<g id="edge10" class="edge">
<title>right_role_mappings:role_id&#45;&gt;roles:id</title>
<path fill="none" stroke="#000000" d="M841.7794,-721.4115C804.9524,-712.5073 836.5763,-650.8201 852,-605 861.6134,-576.4407 883.3866,-579.5593 893,-551 906.2573,-511.6159 934.5556,-457.5 893,-457.5"/>
<polygon fill="#000000" stroke="#000000" points="842.0562,-721.4409 851.5234,-726.9747 847.0281,-721.9705 852,-722.5 852,-722.5 852,-722.5 847.0281,-721.9705 852.4766,-718.0253 842.0562,-721.4409 842.0562,-721.4409"/>
<text text-anchor="start" x="858.726" y="-732.5" font-family="Arial" font-size="10.00" fill="#000000">FOREIGN KEY (role_id) REFERENCES roles (id)</text>
</g>
</g>
</svg>
